<?xml version="1.0" encoding="UTF-8" standalone="no"?>
<svg
   xmlns:dc="http://purl.org/dc/elements/1.1/"
   xmlns:cc="http://creativecommons.org/ns#"
   xmlns:rdf="http://www.w3.org/1999/02/22-rdf-syntax-ns#"
   xmlns:svg="http://www.w3.org/2000/svg"
   xmlns="http://www.w3.org/2000/svg"
   viewBox="0 0 648.65332 639.69336"
   height="639.69336"
   width="648.65332"
   xml:space="preserve"
   id="svg2"
   version="1.1"><metadata
     id="metadata8"><rdf:RDF><cc:Work
         rdf:about=""><dc:format>image/svg+xml</dc:format><dc:type
           rdf:resource="http://purl.org/dc/dcmitype/StillImage" /></cc:Work></rdf:RDF></metadata><defs
     id="defs6" /><g
     transform="matrix(1.3333333,0,0,-1.3333333,0,639.69333)"
     id="g10"><g
       transform="scale(0.1)"
       id="g12"><path
         id="path14"
         style="fill:#e7e8e5;fill-opacity:1;fill-rule:nonzero;stroke:none"
         d="m 3125.64,2391.66 c -480.4,4.56 -915.12,8.68 -1230.23,11.67 -157.2,0.75 -284.46,1.36 -372.82,1.78 -43.78,-0.1 -77.85,-0.18 -101.37,-0.24 -11.35,-0.15 -20.1,-0.27 -26.36,-0.35 -5.94,-0.14 -8.99,-0.3 -8.99,-0.48 0,-0.18 3.04,-0.38 8.98,-0.58 6.26,-0.15 15.01,-0.35 26.36,-0.62 23.52,-0.29 57.58,-0.71 101.36,-1.26 88.36,-0.47 215.62,-1.15 372.82,-1.99 315.12,-0.2 749.87,-0.47 1230.28,-0.77 480.17,0.05 914.99,-0.58 1229.77,-2.87 157.39,-1.12 284.77,-2.6 372.8,-4.27 44.01,-0.84 78.19,-1.71 101.36,-2.6 23.17,-0.89 35.34,-1.78 35.33,-2.64 0,-0.85 -12.18,-1.63 -35.36,-2.28 -23.18,-0.65 -57.36,-1.19 -101.38,-1.57 -88.04,-0.79 -215.43,-0.98 -372.82,-0.5 -314.78,0.89 -749.59,4.66 -1229.73,9.57" /><path
         id="path16"
         style="fill:#e7e8e5;fill-opacity:1;fill-rule:nonzero;stroke:none"
         d="m 3116.07,2284.76 c -473.83,78.16 -902.62,148.89 -1213.43,200.16 -155.17,24.81 -280.79,44.91 -368.02,58.85 -43.26,6.6 -76.93,11.73 -100.18,15.28 -11.24,1.58 -19.89,2.79 -26.1,3.67 -5.89,0.76 -8.92,1.06 -8.95,0.88 -0.03,-0.19 2.94,-0.85 8.77,-1.97 6.17,-1.11 14.77,-2.66 25.94,-4.67 23.19,-3.9 56.77,-9.55 99.93,-16.81 87.22,-14.02 212.81,-34.2 367.96,-59.13 311.28,-48.46 740.71,-115.32 1215.24,-189.2 474.35,-73.47 903.81,-140.68 1214.4,-191.19 155.3,-25.22 280.89,-46.21 367.58,-61.37 43.35,-7.58 76.97,-13.7 99.72,-18.14 22.75,-4.44 34.62,-7.2 34.48,-8.06 -0.14,-0.85 -12.29,0.24 -35.29,3.13 -23.01,2.9 -56.86,7.6 -100.41,13.95 -87.09,12.7 -212.97,32.02 -368.37,56.61 -310.82,49.12 -739.75,119.52 -1213.27,198.01" /><path
         id="path18"
         style="fill:#e7e8e5;fill-opacity:1;fill-rule:nonzero;stroke:none"
         d="m 3089.62,2180.65 c -455.42,150.8 -867.56,287.25 -1166.3,386.17 -149.27,48.6 -270.11,87.95 -354.03,115.27 -41.67,13.23 -74.1,23.52 -96.49,30.63 -10.85,3.3 -19.2,5.85 -25.19,7.67 -5.7,1.67 -8.65,2.43 -8.71,2.25 -0.06,-0.18 2.77,-1.3 8.35,-3.31 5.92,-2.06 14.16,-4.92 24.87,-8.65 22.27,-7.45 54.53,-18.25 95.99,-32.13 83.89,-27.39 204.7,-66.83 353.93,-115.54 299.66,-96.19 713.05,-228.88 1169.88,-375.52 456.7,-146.2 870.07,-279.25 1168.72,-377.36 149.33,-49.03 270.01,-89.27 353.19,-117.72 41.6,-14.22 73.82,-25.49 95.57,-33.41 21.75,-7.93 33.04,-12.51 32.76,-13.34 -0.28,-0.84 -12.11,2.12 -34.37,8.54 -22.25,6.43 -54.94,16.32 -96.93,29.35 -83.98,26.06 -205.2,64.68 -354.74,113.1 -299.1,96.77 -711.42,232.93 -1166.5,384" /><path
         id="path20"
         style="fill:#e7e8e5;fill-opacity:1;fill-rule:nonzero;stroke:none"
         d="m 3046.92,2082.06 c -425.71,219.55 -810.96,418.24 -1090.2,562.25 -139.66,71.17 -252.72,128.78 -331.22,168.78 -39.04,19.54 -69.43,34.74 -90.39,45.23 -10.19,4.96 -18.04,8.77 -23.65,11.5 -5.36,2.53 -8.15,3.75 -8.24,3.59 -0.08,-0.17 2.53,-1.71 7.73,-4.56 5.5,-2.94 13.19,-7.05 23.18,-12.39 20.8,-10.81 50.94,-26.48 89.67,-46.61 78.47,-40.06 191.49,-97.75 331.1,-169.02 280.55,-141.51 667.62,-336.73 1095.33,-552.46 427.67,-215.29 814.65,-410.86 1093.93,-554.08 139.65,-71.59 252.41,-130.04 330.02,-171.02 38.81,-20.49 68.84,-36.61 89.07,-47.8 20.22,-11.19 30.64,-17.45 30.24,-18.22 -0.4,-0.77 -11.61,4 -32.55,13.81 -20.95,9.81 -51.65,24.66 -91.03,44.06 -78.77,38.78 -192.31,95.75 -332.26,166.77 -279.93,141.99 -665.4,340.4 -1090.73,560.17" /><path
         id="path22"
         style="fill:#e7e8e5;fill-opacity:1;fill-rule:nonzero;stroke:none"
         d="m 2989.06,1991.26 c -385.68,282.48 -734.69,538.11 -987.68,723.4 -126.65,91.82 -229.19,166.15 -300.39,217.77 -35.46,25.32 -63.06,45.01 -82.11,58.62 -9.28,6.46 -16.42,11.43 -21.54,15 -4.89,3.33 -7.45,4.96 -7.56,4.81 -0.11,-0.15 2.23,-2.08 6.91,-5.69 4.97,-3.76 11.91,-9 20.93,-15.81 18.84,-13.89 46.12,-34 81.19,-59.86 71.16,-51.66 173.64,-126.06 300.23,-217.97 254.69,-183.02 606.05,-435.5 994.32,-714.51 388.29,-278.57 739.51,-531.38 992.65,-715.9 126.59,-92.23 228.69,-167.35 298.86,-219.8 35.08,-26.22 62.18,-46.77 80.38,-60.94 18.2,-14.169 27.5,-21.958 26.98,-22.661 -0.51,-0.699 -10.83,5.742 -29.97,18.652 -19.13,12.919 -47.09,32.319 -82.92,57.539 -71.66,50.45 -174.77,124.21 -301.75,215.93 -253.98,183.39 -603.27,438.79 -988.53,721.42" /><path
         id="path24"
         style="fill:#e7e8e5;fill-opacity:1;fill-rule:nonzero;stroke:none"
         d="m 2917.57,1910.48 c -336.44,338.2 -640.9,644.24 -861.58,866.08 -110.63,110.13 -200.2,199.29 -262.39,261.2 -31.04,30.45 -55.19,54.14 -71.86,70.5 -8.15,7.81 -14.42,13.82 -18.91,18.12 -4.3,4.04 -6.58,6.04 -6.71,5.91 -0.13,-0.12 1.88,-2.38 5.93,-6.67 4.32,-4.48 10.36,-10.72 18.19,-18.82 16.42,-16.62 40.2,-40.67 70.76,-71.59 62.14,-61.95 151.64,-151.16 262.2,-261.37 222.72,-219.85 529.98,-523.16 869.52,-858.33 339.63,-334.74 646.7,-638.35 867.65,-859.45 110.51,-110.529 199.52,-200.388 260.56,-262.958 30.52,-31.282 54.06,-55.743 69.8,-72.532 15.75,-16.789 23.71,-25.91 23.08,-26.519 -0.62,-0.602 -9.79,7.328 -26.65,23.031 -16.87,15.688 -41.43,39.148 -72.84,69.559 -62.83,60.828 -153.06,149.511 -264.02,259.589 -221.97,220.11 -526.73,525.97 -862.73,864.25" /><path
         id="path26"
         style="fill:#e7e8e5;fill-opacity:1;fill-rule:nonzero;stroke:none"
         d="m 2834.22,1841.65 c -279,385.69 -531.47,734.72 -714.48,987.71 -91.92,125.76 -166.33,227.57 -218,298.26 -25.86,34.84 -45.99,61.95 -59.88,80.66 -6.81,8.96 -12.05,15.86 -15.82,20.81 -3.61,4.65 -5.54,6.97 -5.69,6.86 -0.16,-0.1 1.47,-2.65 4.8,-7.5 3.56,-5.08 8.53,-12.18 14.99,-21.39 13.6,-18.92 33.3,-46.33 58.61,-81.56 51.62,-70.73 125.96,-172.59 217.79,-298.42 185.33,-251.33 441.02,-598.08 723.56,-981.25 282.71,-382.75 538.16,-729.76 721.55,-982.068 91.73,-126.133 165.48,-228.563 215.91,-299.731 25.22,-35.582 44.61,-63.351 57.51,-82.351 12.9,-19 19.32,-29.239 18.61,-29.739 -0.71,-0.511 -8.51,8.739 -22.7,26.829 -14.19,18.089 -34.75,45.019 -60.99,79.882 -52.47,69.727 -127.61,171.168 -219.86,296.93 -184.55,251.478 -437.36,600.368 -715.91,986.068" /><path
         id="path28"
         style="fill:#e7e8e5;fill-opacity:1;fill-rule:nonzero;stroke:none"
         d="m 2741.02,1786.49 c -214.41,423.97 -408.43,807.63 -549.07,1085.73 -70.86,138.39 -128.21,250.42 -168.04,328.21 -20.02,38.39 -35.61,68.27 -46.36,88.9 -5.31,9.89 -9.4,17.52 -12.33,22.98 -2.84,5.15 -4.38,7.74 -4.55,7.66 -0.17,-0.09 1.04,-2.85 3.55,-8.16 2.71,-5.57 6.5,-13.34 11.41,-23.44 10.43,-20.79 25.54,-50.9 44.95,-89.6 39.77,-77.82 97.04,-189.89 167.79,-328.32 143.21,-276.83 340.79,-658.73 559.12,-1080.74 218.56,-421.63 415.86,-803.761 557,-1081.241 70.6,-138.719 127.2,-251.258 165.72,-329.34 19.27,-39.027 34.01,-69.449 43.74,-90.207 9.73,-20.762 14.45,-31.859 13.66,-32.25 -0.79,-0.391 -7.04,9.949 -18.18,30 -11.15,20.051 -27.2,49.82 -47.58,88.297 -40.78,76.953 -98.92,188.73 -170.09,327.172 -142.41,276.851 -336.78,660.429 -550.74,1084.349" /><path
         id="path30"
         style="fill:#e7e8e5;fill-opacity:1;fill-rule:nonzero;stroke:none"
         d="m 2640.17,1746.42 c -144.08,451.96 -274.47,860.95 -368.99,1157.41 -47.89,147.66 -86.66,267.19 -113.59,350.19 -13.65,41.02 -24.27,72.94 -31.6,94.98 -3.67,10.6 -6.5,18.76 -8.52,24.61 -1.98,5.53 -3.08,8.33 -3.27,8.27 -0.18,-0.06 0.56,-2.97 2.2,-8.61 1.79,-5.92 4.29,-14.18 7.53,-24.92 6.98,-22.15 17.09,-54.23 30.08,-95.46 26.86,-83.02 65.54,-202.58 113.31,-350.27 97.28,-295.59 231.47,-703.39 379.77,-1154.02 148.57,-450.29 282.46,-858.26 377.58,-1154.19 47.58,-147.949 85.53,-267.871 111.11,-350.949 12.79,-41.539 22.5,-73.871 28.79,-95.871 6.3,-22.02 9.18,-33.711 8.34,-33.981 -0.84,-0.257 -5.37,10.911 -13.18,32.454 -7.81,21.527 -18.91,53.417 -32.91,94.578 -27.99,82.32 -67.57,201.73 -115.78,349.48 -96.47,295.5 -227.21,704.459 -370.87,1156.299" /><path
         id="path32"
         style="fill:#e7e8e5;fill-opacity:1;fill-rule:nonzero;stroke:none"
         d="m 2534.16,1722.51 c -70.19,468.68 -133.71,892.82 -179.75,1200.25 -23.74,153.24 -42.95,277.3 -56.3,363.45 -6.93,42.63 -12.32,75.8 -16.05,98.7 -1.92,11.04 -3.41,19.54 -4.47,25.63 -1.08,5.76 -1.72,8.7 -1.91,8.67 -0.18,-0.03 0.09,-3.02 0.81,-8.84 0.82,-6.13 1.97,-14.67 3.46,-25.77 3.36,-22.96 8.23,-56.21 14.49,-98.94 13.28,-86.16 32.4,-210.23 56.02,-363.5 48.89,-307 116.35,-730.54 190.88,-1198.57 74.87,-467.74 141.99,-891.41 188.7,-1198.399 23.39,-153.492 41.73,-277.812 53.74,-363.82 6.01,-43.012 10.44,-76.4413 13.15,-99.1522 2.7,-22.7188 3.68,-34.7071 2.81,-34.8399 -0.86,-0.1289 -3.55,11.6133 -7.82,34.082 -4.28,22.4805 -10.15,55.6991 -17.4,98.5081 -14.51,85.64 -34.54,209.703 -58.57,363.101 -48.12,306.782 -112,730.94 -181.79,1199.44" /><path
         id="path34"
         style="fill:#e7e8e5;fill-opacity:1;fill-rule:nonzero;stroke:none"
         d="m 2425.65,1715.24 c 4.32,473.75 8.24,902.46 11.08,1213.22 0.66,155.02 1.2,280.51 1.57,367.66 -0.13,43.17 -0.23,76.77 -0.3,99.96 -0.16,11.2 -0.28,19.82 -0.37,26 -0.15,5.86 -0.31,8.86 -0.5,8.86 -0.18,0 -0.37,-3 -0.58,-8.85 -0.14,-6.18 -0.35,-14.8 -0.61,-26 -0.28,-23.19 -0.69,-56.78 -1.21,-99.95 -0.43,-87.15 -1.04,-212.65 -1.79,-367.67 -0.01,-310.77 -0.02,-739.5 -0.03,-1213.26 0.34,-473.53 -0.02,-902.339 -2.15,-1212.769 -1.04,-155.211 -2.46,-280.832 -4.1,-367.628 -0.82,-43.4107 -1.69,-77.1138 -2.58,-99.9614 C 2423.2,11.9922 2422.3,-0.0078125 2421.43,0 c -0.86,0 -1.65,12.0117 -2.33,34.8711 -0.68,22.8594 -1.24,56.5703 -1.66,99.9809 -0.85,86.82 -1.12,212.437 -0.74,367.66 0.71,310.429 4.27,739.218 8.95,1212.728" /><path
         id="path36"
         style="fill:#e7e8e5;fill-opacity:1;fill-rule:nonzero;stroke:none"
         d="m 2317.24,1724.61 c 78.96,467.32 150.41,890.22 202.2,1196.77 25.07,153.04 45.37,276.93 59.46,362.96 6.66,42.67 11.84,75.87 15.42,98.8 1.6,11.09 2.82,19.63 3.71,25.74 0.77,5.81 1.07,8.81 0.88,8.83 -0.19,0.03 -0.86,-2.9 -1.99,-8.65 -1.12,-6.08 -2.68,-14.56 -4.72,-25.58 -3.93,-22.87 -9.64,-55.99 -16.98,-98.55 -14.15,-86.02 -34.54,-209.9 -59.73,-362.92 -48.94,-307 -116.46,-730.53 -191.08,-1198.55 -74.21,-467.83 -142.09,-891.39 -193.11,-1197.71 -25.47,-153.168 -46.68,-277.039 -62,-362.539 -7.66,-42.762 -13.84,-75.9219 -18.33,-98.3516 -4.49,-22.4375 -7.28,-34.1485 -8.15,-34.0078 -0.87,0.1406 0.23,12.1211 3.15,34.8086 2.92,22.6796 7.67,56.0698 14.08,99.0198 12.82,85.902 32.34,210.039 57.17,363.312 49.62,306.559 120.73,729.588 200.02,1196.618" /><path
         id="path38"
         style="fill:#e7e8e5;fill-opacity:1;fill-rule:nonzero;stroke:none"
         d="m 2211.66,1750.62 c 152.62,449.22 290.74,855.74 390.84,1150.41 49.2,147.24 89.02,266.43 116.68,349.21 13.38,41.1 23.79,73.09 30.99,95.17 3.34,10.7 5.92,18.94 7.76,24.85 1.69,5.62 2.46,8.53 2.28,8.59 -0.18,0.06 -1.32,-2.73 -3.35,-8.24 -2.09,-5.83 -4.99,-13.96 -8.76,-24.52 -7.54,-21.98 -18.47,-53.79 -32.52,-94.68 -27.72,-82.76 -67.63,-201.92 -116.94,-349.12 C 2501.29,2606.72 2367,2198.96 2218.6,1748.37 2070.63,1297.88 1935.98,890.152 1836.68,595.57 c -49.62,-147.3 -90.35,-266.328 -119.15,-348.39 -14.39,-41.02 -25.8,-72.801 -33.82,-94.258 -8.02,-21.461 -12.66,-32.59 -13.5,-32.313 -0.85,0.27 2.14,11.942 8.64,33.891 6.5,21.949 16.51,54.191 29.7,95.609 26.37,82.84 65.46,202.403 114.46,349.903 97.94,295.027 235.75,701.728 388.65,1150.608" /><path
         id="path40"
         style="fill:#e7e8e5;fill-opacity:1;fill-rule:nonzero;stroke:none"
         d="m 2111.66,1792.67 c 222.36,419.96 423.59,800 569.45,1075.47 72.07,137.77 130.43,249.3 170.94,326.75 19.79,38.51 35.18,68.48 45.81,89.17 5.02,10.05 8.88,17.79 11.64,23.33 2.57,5.28 3.8,8.03 3.63,8.12 -0.17,0.08 -1.73,-2.5 -4.61,-7.62 -2.99,-5.43 -7.14,-13.01 -12.55,-22.87 -10.95,-20.52 -26.82,-50.25 -47.21,-88.46 -40.57,-77.41 -99,-188.9 -171.18,-326.62 -143.31,-276.76 -341.04,-658.6 -559.52,-1080.53 -218.05,-421.9 -416.1,-803.64 -561.17,-1079.14 -72.5,-137.77 -131.7,-249 -173.21,-325.571 -20.75,-38.289 -37.08,-67.91 -48.41,-87.859 -11.33,-19.949 -17.68,-30.231 -18.45,-29.84 -0.78,0.402 4.04,11.449 13.98,32.109 9.93,20.672 24.97,50.942 44.61,89.801 39.28,77.699 96.97,189.699 168.9,327.762 143.81,276.148 344.77,656.418 567.35,1075.998" /><path
         id="path42"
         style="fill:#e7e8e5;fill-opacity:1;fill-rule:nonzero;stroke:none"
         d="m 2019.55,1849.67 c 286.2,380.52 545.2,724.87 732.93,974.47 93.03,124.96 168.34,226.13 220.64,296.37 25.65,34.99 45.6,62.22 59.38,81.02 6.55,9.15 11.59,16.19 15.2,21.24 3.37,4.83 5.03,7.35 4.87,7.46 -0.15,0.11 -2.1,-2.2 -5.76,-6.81 -3.81,-4.91 -9.12,-11.76 -16.01,-20.66 -14.08,-18.58 -34.46,-45.5 -60.65,-80.1 -52.35,-70.21 -127.73,-171.32 -220.85,-296.22 -185.42,-251.27 -441.23,-597.93 -723.91,-981 -282.23,-383.1 -538.37,-729.62 -725.32,-979.37 -93.45,-124.89 -169.55,-225.629 -222.69,-294.859 -26.57,-34.621 -47.39,-61.359 -61.75,-79.309 -14.36,-17.961 -22.259,-27.14 -22.962,-26.621 -0.707,0.508 5.809,10.68 18.902,29.559 13.08,18.879 32.73,46.473 58.28,81.82 51.12,70.699 125.85,172.43 218.78,297.699 185.8,250.591 444.56,595.211 730.92,975.311" /><path
         id="path44"
         style="fill:#e7e8e5;fill-opacity:1;fill-rule:nonzero;stroke:none"
         d="m 1937.59,1920.13 c 342.73,331.99 652.88,632.43 877.69,850.2 111.61,109.17 201.96,197.54 264.7,258.91 30.86,30.63 54.87,54.47 71.45,70.92 7.91,8.04 13.99,14.22 18.36,18.66 4.09,4.24 6.13,6.49 5.99,6.62 -0.13,0.13 -2.42,-1.85 -6.76,-5.85 -4.54,-4.27 -10.87,-10.22 -19.08,-17.95 -16.83,-16.2 -41.21,-39.67 -72.54,-69.83 -62.78,-61.33 -153.19,-149.64 -264.87,-258.74 C 2589.73,2553.3 2282.35,2250.09 1942.7,1915.05 1603.47,1579.91 1295.8,1276.9 1071.73,1058.86 959.719,949.82 868.652,861.98 805.242,801.742 c -31.703,-30.121 -56.484,-53.34 -73.504,-68.883 -17.011,-15.527 -26.258,-23.39 -26.875,-22.769 -0.617,0.609 7.43,9.66 23.332,26.301 15.907,16.64 39.672,40.879 70.496,71.871 61.637,62 151.508,151.027 263.059,260.528 223.07,219.03 533.03,519.77 875.84,851.34" /><path
         id="path46"
         style="fill:#e7e8e5;fill-opacity:1;fill-rule:nonzero;stroke:none"
         d="m 1867.75,2002.28 c 390.92,275.38 744.69,524.58 1001.11,705.21 127.47,90.73 230.66,164.17 302.31,215.17 35.31,25.53 62.78,45.39 81.76,59.1 9.08,6.73 16.07,11.9 21.08,15.61 4.71,3.57 7.07,5.47 6.96,5.63 -0.11,0.15 -2.68,-1.46 -7.61,-4.74 -5.15,-3.52 -12.34,-8.43 -21.67,-14.8 -19.19,-13.43 -46.97,-32.87 -82.67,-57.85 -71.7,-50.95 -174.94,-124.33 -302.47,-214.96 -254.74,-182.93 -606.2,-435.3 -994.56,-714.17 -387.95,-279.03 -739.67,-531.17 -995.396,-712.18 -127.848,-90.54 -231.66,-163.34 -303.801,-213.11 -36.07,-24.9 -64.215,-44.03 -83.477,-56.77 -19.257,-12.74 -29.628,-19.068 -30.144,-18.369 -0.512,0.699 8.859,8.399 27.195,22.399 18.336,14.01 45.637,34.3 80.969,60.2 70.668,51.79 173.484,125.95 300.953,217 254.891,182.16 608.521,431.69 999.461,706.63" /><path
         id="path48"
         style="fill:#e7e8e5;fill-opacity:1;fill-rule:nonzero;stroke:none"
         d="m 1811.75,2094.16 c 429.78,211.7 818.7,403.29 1100.62,542.16 140.28,69.96 253.84,126.59 332.71,165.92 38.91,19.76 69.2,35.15 90.11,45.77 10.03,5.24 17.76,9.28 23.29,12.18 5.23,2.79 7.85,4.31 7.77,4.48 -0.09,0.17 -2.89,-1.02 -8.27,-3.5 -5.65,-2.68 -13.53,-6.42 -23.76,-11.27 -21.08,-10.3 -51.6,-25.21 -90.83,-44.38 C 3164.5,2766.25 3050.9,2709.7 2910.57,2639.84 2629.95,2498.44 2242.82,2303.35 1815.02,2087.77 1387.61,1871.98 1000.25,1677.16 718.969,1537.8 578.34,1468.09 464.262,1412.2 385.113,1374.16 c -39.574,-19.02 -70.41,-33.58 -91.453,-43.19 -21.043,-9.6 -32.293,-14.26 -32.691,-13.48 -0.395,0.77 10.082,6.94 30.41,17.95 20.324,11 50.504,26.84 89.512,46.97 78.004,40.26 191.308,97.66 331.644,167.94 280.641,140.62 669.485,332.54 1099.215,543.81" /><path
         id="path50"
         style="fill:#e7e8e5;fill-opacity:1;fill-rule:nonzero;stroke:none"
         d="m 1771.06,2193.58 c 458.2,142.38 872.85,271.23 1173.41,364.62 149.7,47.32 270.88,85.63 355.03,112.24 41.59,13.49 73.95,23.98 96.29,31.23 10.75,3.62 19.02,6.41 24.95,8.41 5.6,1.96 8.44,3.05 8.38,3.23 -0.06,0.18 -3.01,-0.56 -8.72,-2.17 -6.01,-1.77 -14.38,-4.24 -25.27,-7.44 -22.45,-6.9 -54.98,-16.89 -96.78,-29.73 -84.17,-26.54 -205.38,-64.76 -355.11,-111.97 -299.68,-96.11 -713.11,-228.71 -1169.97,-375.23 -456.51,-146.81 -870.122,-279.11 -1170.137,-373.09 -149.996,-47.02 -271.574,-84.52 -355.805,-109.8 -42.113,-12.64 -74.887,-22.23 -97.203,-28.46 -22.316,-6.21 -34.172,-9.06 -34.441,-8.24 -0.27,0.84 11.058,5.3 32.89,13.02 21.828,7.72 54.156,18.68 95.887,32.51 83.457,27.66 204.516,66.77 354.312,114.4 299.579,95.32 714.197,224.52 1172.287,366.47" /><path
         id="path52"
         style="fill:#e7e8e5;fill-opacity:1;fill-rule:nonzero;stroke:none"
         d="m 1746.74,2298.11 c 475.22,69.51 905.26,132.42 1216.97,178.02 155.38,23.5 281.17,42.53 368.52,55.74 43.22,6.87 76.85,12.21 100.08,15.89 11.18,1.91 19.8,3.38 25.98,4.44 5.84,1.06 8.82,1.69 8.79,1.88 -0.03,0.18 -3.06,-0.09 -8.96,-0.8 -6.21,-0.81 -14.88,-1.95 -26.14,-3.43 -23.28,-3.33 -56.99,-8.15 -100.31,-14.35 -87.36,-13.15 -213.16,-32.09 -368.56,-55.48 -311.28,-48.4 -740.72,-115.19 -1215.27,-188.99 -474.25,-74.12 -903.82,-140.58 -1215.09,-186.84 -155.633,-23.16 -281.68,-41.33 -368.891,-53.23 -43.605,-5.95 -77.5035,-10.34 -100.5348,-13.02 -23.0273,-2.68 -35.1875,-3.66 -35.3242,-2.81 -0.1289,0.86 11.7695,3.52 34.5586,7.75 22.7891,4.23 56.4644,10.03 99.8824,17.21 86.832,14.37 212.622,34.2 368.153,57.99 311.054,47.65 741.116,110.91 1216.146,180.03" /><path
         id="path54"
         style="fill:#e7e8e5;fill-opacity:1;fill-rule:nonzero;stroke:none"
         d="m 1739.3,2405.11 c 480.4,-3.97 915.13,-7.56 1230.24,-10.17 157.2,-0.55 284.46,-1.01 372.83,-1.32 43.78,0.15 77.84,0.27 101.36,0.36 11.36,0.16 20.1,0.29 26.36,0.38 5.94,0.15 8.98,0.32 8.99,0.5 0,0.18 -3.04,0.37 -8.98,0.56 -6.27,0.14 -15.01,0.34 -26.36,0.59 -23.52,0.26 -57.59,0.64 -101.36,1.14 -88.37,0.36 -215.63,0.88 -372.83,1.53 -315.12,-0.19 -749.86,-0.44 -1230.27,-0.73 -480.17,-0.63 -915.003,-0.54 -1229.784,1.37 -157.391,0.92 -284.766,2.24 -372.797,3.81 -44.0154,0.78 -78.1912,1.62 -101.3631,2.48 -23.1757,0.86 -35.33980625,1.74 -35.3359,2.59 0.00390625,0.85 12.1758,1.64 35.3516,2.32 23.1836,0.69 57.3632,1.26 101.3824,1.7 88.043,0.89 215.426,1.24 372.821,0.95 314.789,-0.5 749.595,-3.74 1229.745,-8.06" /><path
         id="path56"
         style="fill:#e7e8e5;fill-opacity:1;fill-rule:nonzero;stroke:none"
         d="m 1748.74,2512.02 c 473.92,-77.56 902.81,-147.76 1213.68,-198.64 155.2,-24.62 280.84,-44.56 368.09,-58.4 43.28,-6.54 76.95,-11.63 100.2,-15.14 11.24,-1.57 19.9,-2.78 26.1,-3.64 5.9,-0.76 8.93,-1.05 8.96,-0.87 0.03,0.19 -2.94,0.85 -8.78,1.95 -6.16,1.11 -14.77,2.65 -25.94,4.64 -23.19,3.87 -56.78,9.48 -99.95,16.69 -87.23,13.9 -212.86,33.93 -368.04,58.67 -311.34,48.07 -740.85,114.39 -1215.48,187.68 -474.45,72.88 -903.986,139.55 -1214.642,189.67 -155.333,25.03 -280.958,45.86 -367.668,60.91 -43.356,7.52 -76.9809,13.6 -99.7348,18.01 -22.7579,4.41 -34.6329,7.16 -34.4961,8.02 0.1406,0.86 12.2968,-0.22 35.3007,-3.09 23.0079,-2.86 56.8712,-7.52 100.4262,-13.81 87.113,-12.6 213.004,-31.76 368.445,-56.16 310.879,-48.73 739.899,-118.6 1213.529,-196.49" /><path
         id="path58"
         style="fill:#e7e8e5;fill-opacity:1;fill-rule:nonzero;stroke:none"
         d="m 1775.05,2616.16 c 455.61,-150.22 867.93,-286.16 1166.79,-384.7 149.34,-48.42 270.23,-87.61 354.18,-114.83 41.69,-13.17 74.13,-23.42 96.53,-30.5 10.86,-3.29 19.21,-5.83 25.21,-7.65 5.69,-1.66 8.64,-2.42 8.7,-2.24 0.06,0.19 -2.76,1.3 -8.35,3.31 -5.92,2.05 -14.17,4.9 -24.88,8.61 -22.28,7.43 -54.55,18.19 -96.03,32.01 -83.93,27.29 -204.79,66.57 -354.08,115.11 -299.78,95.8 -713.35,227.98 -1170.36,374.04 -456.9,145.63 -870.436,278.16 -1169.213,375.9 -149.395,48.84 -270.121,88.93 -353.344,117.27 -41.609,14.17 -73.848,25.4 -95.609,33.29 -21.762,7.9 -33.055,12.47 -32.778,13.3 0.278,0.84 12.114,-2.11 34.379,-8.5 22.262,-6.4 54.961,-16.25 96.969,-29.23 84.02,-25.95 205.285,-64.42 354.891,-112.65 299.218,-96.4 711.715,-232.04 1166.995,-382.54" /><path
         id="path60"
         style="fill:#e7e8e5;fill-opacity:1;fill-rule:nonzero;stroke:none"
         d="m 1817.62,2714.81 c 425.99,-219.02 811.49,-417.23 1090.92,-560.89 139.75,-70.99 252.88,-128.46 331.44,-168.37 39.07,-19.49 69.47,-34.65 90.45,-45.12 10.2,-4.94 18.04,-8.74 23.66,-11.47 5.36,-2.52 8.15,-3.73 8.24,-3.57 0.09,0.17 -2.53,1.71 -7.73,4.55 -5.51,2.93 -13.2,7.03 -23.19,12.36 -20.82,10.79 -50.98,26.41 -89.74,46.49 -78.52,39.97 -191.61,97.52 -331.31,168.61 -280.73,141.16 -668.05,335.9 -1096.05,551.09 -427.94,214.76 -815.165,409.84 -1094.63,552.72 -139.746,71.41 -252.575,129.72 -330.246,170.61 -38.836,20.44 -68.887,36.52 -89.121,47.69 -20.239,11.16 -30.668,17.41 -30.266,18.18 0.398,0.76 11.605,-3.99 32.57,-13.77 20.957,-9.79 51.668,-24.6 91.082,-43.95 78.821,-38.68 192.43,-95.5 332.473,-166.35 280.108,-141.64 665.838,-339.57 1091.448,-558.81" /><path
         id="path62"
         style="fill:#e7e8e5;fill-opacity:1;fill-rule:nonzero;stroke:none"
         d="m 1875.36,2805.68 c 386.04,-282 735.38,-537.2 988.6,-722.17 126.78,-91.67 229.41,-165.87 300.67,-217.4 35.5,-25.27 63.12,-44.94 82.19,-58.52 9.28,-6.45 16.43,-11.41 21.55,-14.97 4.9,-3.32 7.46,-4.95 7.57,-4.8 0.11,0.15 -2.23,2.07 -6.91,5.68 -4.98,3.75 -11.93,8.98 -20.96,15.78 -18.85,13.87 -46.16,33.95 -81.26,59.76 -71.23,51.57 -173.81,125.85 -300.51,217.6 -254.92,182.7 -606.61,434.75 -995.23,713.27 -388.64,278.09 -740.18,530.46 -993.558,714.67 -126.707,92.08 -228.907,167.07 -299.141,219.43 -35.117,26.18 -62.246,46.7 -80.465,60.84 -18.218,14.15 -27.527,21.94 -27.008,22.63 0.52,0.7 10.84,-5.72 29.993,-18.61 19.156,-12.9 47.14,-32.26 83,-57.44 71.722,-50.36 174.929,-124 302.019,-215.56 254.22,-183.07 603.83,-438.04 989.45,-720.19" /><path
         id="path64"
         style="fill:#e7e8e5;fill-opacity:1;fill-rule:nonzero;stroke:none"
         d="m 1946.76,2886.55 c 336.86,-337.78 641.71,-643.45 862.67,-865.02 110.77,-109.99 200.45,-199.04 262.72,-260.87 31.08,-30.41 55.26,-54.07 71.96,-70.41 8.15,-7.8 14.42,-13.8 18.92,-18.1 4.32,-4.03 6.59,-6.03 6.72,-5.9 0.13,0.13 -1.88,2.38 -5.93,6.66 -4.33,4.47 -10.37,10.71 -18.22,18.81 -16.44,16.58 -40.25,40.61 -70.85,71.49 -62.23,61.87 -151.84,150.98 -262.54,261.04 -222.99,219.58 -530.64,522.51 -870.6,857.26 -340.05,334.32 -647.51,637.55 -868.75,858.38 -110.641,110.39 -199.766,200.15 -260.891,262.64 -30.563,31.24 -54.125,55.67 -69.895,72.44 -15.761,16.77 -23.734,25.89 -23.109,26.49 0.621,0.61 9.801,-7.32 26.683,-23 16.883,-15.67 41.481,-39.09 72.926,-69.46 62.91,-60.75 153.246,-149.32 264.346,-259.27 222.25,-219.84 527.4,-525.32 863.84,-863.18" /><path
         id="path66"
         style="fill:#e7e8e5;fill-opacity:1;fill-rule:nonzero;stroke:none"
         d="m 2030.01,2955.48 c 279.49,-385.34 532.41,-734.06 715.74,-986.82 92.08,-125.64 166.62,-227.36 218.38,-297.99 25.91,-34.81 46.06,-61.89 59.98,-80.59 6.83,-8.95 12.08,-15.84 15.85,-20.78 3.62,-4.65 5.55,-6.97 5.7,-6.86 0.15,0.1 -1.48,2.65 -4.81,7.5 -3.57,5.07 -8.55,12.16 -15.02,21.36 -13.62,18.91 -33.35,46.3 -58.71,81.49 -51.71,70.67 -126.18,172.44 -218.17,298.15 -185.65,251.11 -441.78,597.53 -724.82,980.35 -283.19,382.41 -539.08,729.1 -722.79,981.18 -91.89,126.02 -165.78,228.35 -216.3,299.46 -25.26,35.55 -44.68,63.3 -57.61,82.28 -12.93,18.99 -19.36,29.22 -18.65,29.72 0.71,0.51 8.53,-8.73 22.74,-26.8 14.21,-18.08 34.81,-44.99 61.08,-79.81 52.57,-69.66 127.83,-171.01 220.25,-296.66 184.87,-251.25 438.12,-599.82 717.16,-985.18" /><path
         id="path68"
         style="fill:#e7e8e5;fill-opacity:1;fill-rule:nonzero;stroke:none"
         d="m 2123.15,3010.76 c 214.95,-423.7 409.47,-807.12 550.46,-1085.05 71.03,-138.3 128.53,-250.25 168.46,-327.99 20.07,-38.37 35.69,-68.23 46.47,-88.84 5.33,-9.9 9.43,-17.51 12.36,-22.97 2.85,-5.15 4.39,-7.74 4.56,-7.66 0.17,0.09 -1.04,2.85 -3.56,8.16 -2.72,5.56 -6.51,13.33 -11.44,23.42 -10.46,20.78 -25.6,50.87 -45.06,89.54 -39.87,77.78 -97.29,189.78 -168.22,328.12 -143.57,276.64 -341.63,658.3 -560.5,1080.04 -219.1,421.36 -416.89,803.24 -558.39,1080.54 -70.77,138.64 -127.53,251.11 -166.15,329.13 -19.31,39.01 -34.09,69.42 -43.85,90.16 -9.75,20.75 -14.48,31.84 -13.7,32.23 0.79,0.4 7.05,-9.93 18.22,-29.97 11.18,-20.04 27.26,-49.79 47.7,-88.24 40.87,-76.9 99.15,-188.61 170.51,-326.96 142.76,-276.67 337.62,-660.01 552.13,-1083.66" /><path
         id="path70"
         style="fill:#e7e8e5;fill-opacity:1;fill-rule:nonzero;stroke:none"
         d="m 2223.94,3050.95 c 144.67,-451.77 275.59,-860.6 370.49,-1156.95 48.08,-147.59 87,-267.07 114.03,-350.04 13.71,-41 24.37,-72.91 31.73,-94.94 3.68,-10.6 6.52,-18.75 8.55,-24.6 1.99,-5.52 3.1,-8.32 3.28,-8.26 0.18,0.05 -0.57,2.97 -2.21,8.6 -1.8,5.92 -4.31,14.18 -7.56,24.91 -7.01,22.14 -17.16,54.21 -30.21,95.42 -26.96,82.99 -65.8,202.5 -113.77,350.13 -97.65,295.47 -232.37,703.1 -381.24,1153.54 -149.16,450.11 -283.58,857.92 -379.07,1153.72 -47.78,147.89 -85.88,267.76 -111.57,350.81 -12.85,41.52 -22.59,73.84 -28.91,95.84 -6.32,22.01 -9.22,33.69 -8.38,33.96 0.84,0.27 5.38,-10.9 13.22,-32.43 7.84,-21.52 18.97,-53.39 33.03,-94.53 28.1,-82.29 67.83,-201.65 116.23,-349.34 96.85,-295.38 228.12,-704.18 372.36,-1155.84" /><path
         id="path72"
         style="fill:#e7e8e5;fill-opacity:1;fill-rule:nonzero;stroke:none"
         d="m 2329.92,3075 c 70.79,-468.6 134.85,-892.65 181.29,-1200.02 23.93,-153.22 43.31,-277.26 56.76,-363.39 6.99,-42.62 12.42,-75.78 16.18,-98.68 1.94,-11.03 3.43,-19.53 4.51,-25.62 1.08,-5.76 1.73,-8.7 1.91,-8.67 0.19,0.03 -0.09,3.02 -0.81,8.84 -0.83,6.12 -1.99,14.67 -3.5,25.77 -3.39,22.95 -8.3,56.2 -14.61,98.92 -13.39,86.14 -32.67,210.19 -56.49,363.42 -49.29,306.94 -117.28,730.4 -192.42,1198.34 -75.47,467.64 -143.12,891.23 -190.23,1198.16 -23.59,153.47 -42.09,277.76 -54.21,363.76 -6.07,43 -10.54,76.42 -13.27,99.13 -2.74,22.71 -3.74,34.7 -2.87,34.84 0.87,0.13 3.57,-11.6 7.87,-34.08 4.31,-22.47 10.22,-55.68 17.53,-98.49 14.61,-85.62 34.81,-209.65 59.03,-363.02 48.51,-306.72 112.94,-730.8 183.33,-1199.21" /><path
         id="path74"
         style="fill:#e7e8e5;fill-opacity:1;fill-rule:nonzero;stroke:none"
         d="m 2438.41,3082.4 c -3.73,-473.75 -7.09,-902.47 -9.53,-1213.23 -0.47,-155.02 -0.85,-280.52 -1.11,-367.66 0.19,-43.18 0.33,-76.77 0.43,-99.97 0.17,-11.19 0.31,-19.81 0.4,-25.99 0.15,-5.86 0.33,-8.86 0.51,-8.86 0.18,0 0.37,3 0.57,8.85 0.14,6.18 0.33,14.8 0.58,26 0.25,23.19 0.61,56.79 1.08,99.96 0.32,87.14 0.77,212.64 1.33,367.66 -0.39,310.77 -0.93,739.5 -1.52,1213.26 -0.95,473.53 -1.12,902.34 0.61,1212.78 0.84,155.21 2.1,280.82 3.63,367.64 0.76,43.4 1.59,77.11 2.45,99.96 0.85,22.85 1.74,34.85 2.61,34.85 0.86,0 1.66,-12.01 2.37,-34.86 0.71,-22.86 1.31,-56.58 1.79,-99.99 0.96,-86.82 1.39,-212.44 1.2,-367.66 -0.31,-310.43 -3.33,-739.23 -7.4,-1212.74" /><path
         id="path76"
         style="fill:#e7e8e5;fill-opacity:1;fill-rule:nonzero;stroke:none"
         d="m 2546.83,3073.17 c -78.35,-467.42 -149.25,-890.42 -200.65,-1197.02 -24.86,-153.08 -45,-276.99 -58.98,-363.04 -6.61,-42.68 -11.74,-75.89 -15.29,-98.82 -1.58,-11.09 -2.8,-19.63 -3.67,-25.75 -0.77,-5.81 -1.06,-8.8 -0.88,-8.83 0.19,-0.03 0.86,2.9 1.98,8.65 1.11,6.09 2.66,14.57 4.69,25.59 3.91,22.88 9.57,56 16.85,98.57 14.04,86.04 34.27,209.95 59.25,363 48.55,307.06 115.52,730.67 189.53,1198.78 73.6,467.93 140.93,891.58 191.55,1197.97 25.28,153.19 46.32,277.1 61.53,362.62 7.6,42.75 13.74,75.92 18.2,98.36 4.45,22.45 7.23,34.16 8.1,34.02 0.88,-0.13 -0.21,-12.12 -3.1,-34.81 -2.89,-22.69 -7.59,-56.08 -13.95,-99.04 -12.71,-85.92 -32.07,-210.08 -56.7,-363.38 -49.21,-306.62 -119.78,-729.74 -198.46,-1196.87" /><path
         id="path78"
         style="fill:#e7e8e5;fill-opacity:1;fill-rule:nonzero;stroke:none"
         d="m 2652.44,3047.29 c -152.03,-449.41 -289.61,-856.11 -389.34,-1150.91 -49,-147.3 -88.66,-266.54 -116.21,-349.35 -13.33,-41.12 -23.7,-73.12 -30.87,-95.22 -3.33,-10.7 -5.89,-18.94 -7.73,-24.86 -1.68,-5.62 -2.45,-8.53 -2.26,-8.59 0.18,-0.05 1.31,2.74 3.34,8.25 2.07,5.83 4.96,13.97 8.72,24.53 7.52,21.99 18.41,53.82 32.4,94.73 27.61,82.78 67.37,202 116.48,349.26 96.96,295.69 230.72,703.62 378.54,1154.41 147.37,450.67 281.49,858.57 380.41,1153.28 49.42,147.36 89.99,266.45 118.68,348.53 14.34,41.05 25.71,72.85 33.7,94.31 8,21.47 12.62,32.61 13.47,32.33 0.84,-0.27 -2.13,-11.94 -8.6,-33.9 -6.48,-21.96 -16.44,-54.21 -29.57,-95.65 -26.26,-82.88 -65.2,-202.49 -114.01,-350.05 -97.55,-295.15 -234.83,-702.03 -387.15,-1151.1" /><path
         id="path80"
         style="fill:#e7e8e5;fill-opacity:1;fill-rule:nonzero;stroke:none"
         d="m 2752.5,3005.37 c -221.82,-420.24 -422.55,-800.54 -568.05,-1076.19 -71.9,-137.87 -130.1,-249.47 -170.52,-326.96 -19.73,-38.55 -35.09,-68.53 -45.69,-89.24 -5,-10.05 -8.85,-17.8 -11.61,-23.34 -2.56,-5.29 -3.79,-8.04 -3.62,-8.12 0.17,-0.09 1.72,2.49 4.6,7.62 2.98,5.44 7.13,13.03 12.52,22.88 10.93,20.54 26.75,50.29 47.09,88.53 40.48,77.46 98.76,189.02 170.77,326.83 142.95,276.95 340.17,659.03 558.11,1081.24 217.49,422.17 415.05,804.16 559.76,1079.85 72.32,137.86 131.38,249.17 172.79,325.79 20.7,38.31 36.99,67.95 48.3,87.92 11.3,19.97 17.63,30.25 18.41,29.86 0.78,-0.4 -4.03,-11.45 -13.94,-32.13 -9.91,-20.68 -24.91,-50.97 -44.5,-89.85 -39.17,-77.76 -96.72,-189.83 -168.47,-327.98 C 3175,3805.75 2974.54,3425.23 2752.5,3005.37" /><path
         id="path82"
         style="fill:#e7e8e5;fill-opacity:1;fill-rule:nonzero;stroke:none"
         d="m 2844.69,2948.48 c -285.71,-380.88 -544.27,-725.55 -731.68,-975.39 -92.87,-125.08 -168.04,-226.33 -220.25,-296.64 -25.61,-35.03 -45.53,-62.28 -59.28,-81.09 -6.54,-9.16 -11.57,-16.21 -15.17,-21.27 -3.37,-4.83 -5.02,-7.36 -4.87,-7.46 0.15,-0.11 2.1,2.2 5.76,6.82 3.8,4.91 9.1,11.77 15.99,20.67 14.05,18.61 34.39,45.55 60.54,80.18 52.26,70.27 127.51,171.48 220.47,296.5 185.09,251.5 440.45,598.48 722.64,981.91 281.74,383.45 537.43,730.28 724.05,980.27 93.29,125.02 169.27,225.85 222.31,295.15 26.53,34.65 47.32,61.41 61.65,79.39 14.34,17.97 22.22,27.16 22.93,26.64 0.7,-0.51 -5.8,-10.69 -18.86,-29.59 -13.06,-18.89 -32.68,-46.5 -58.19,-81.88 -51.01,-70.77 -125.62,-172.59 -218.38,-297.98 -185.48,-250.82 -443.8,-595.76 -729.66,-976.23" /><path
         id="path84"
         style="fill:#e7e8e5;fill-opacity:1;fill-rule:nonzero;stroke:none"
         d="m 2926.73,2878.13 c -342.3,-332.42 -652.06,-633.25 -876.59,-851.3 -111.47,-109.31 -201.71,-197.8 -264.37,-259.25 -30.82,-30.66 -54.79,-54.53 -71.35,-71 -7.9,-8.05 -13.98,-14.24 -18.34,-18.68 -4.09,-4.25 -6.12,-6.5 -5.98,-6.63 0.13,-0.13 2.42,1.86 6.75,5.86 4.53,4.27 10.85,10.23 19.06,17.97 16.81,16.22 41.16,39.72 72.45,69.92 62.7,61.4 153,149.84 264.54,259.07 222.51,220.06 529.49,523.64 868.72,859.11 338.8,335.56 646.08,638.96 869.86,857.28 111.88,109.18 202.83,197.13 266.16,257.45 31.67,30.16 56.42,53.41 73.42,68.97 16.99,15.56 26.23,23.42 26.84,22.81 0.62,-0.61 -7.41,-9.67 -23.3,-26.33 -15.88,-16.66 -39.61,-40.93 -70.39,-71.96 -61.57,-62.08 -151.32,-151.22 -262.73,-260.86 -222.79,-219.31 -532.36,-520.44 -874.75,-852.43" /><path
         id="path86"
         style="fill:#e7e8e5;fill-opacity:1;fill-rule:nonzero;stroke:none"
         d="m 2996.68,2796.07 c -390.56,-275.87 -744.01,-525.52 -1000.2,-706.47 -127.34,-90.89 -230.44,-164.46 -302.03,-215.55 -35.28,-25.57 -62.73,-45.47 -81.68,-59.2 -9.07,-6.74 -16.06,-11.93 -21.06,-15.64 -4.71,-3.58 -7.07,-5.49 -6.96,-5.64 0.11,-0.15 2.69,1.46 7.6,4.75 5.15,3.53 12.33,8.44 21.66,14.83 19.17,13.45 46.93,32.92 82.6,57.95 71.62,51.04 174.77,124.55 302.19,215.34 254.5,183.25 605.63,436.06 993.63,715.42 387.59,279.52 738.99,532.09 994.48,713.43 127.73,90.69 231.45,163.63 303.53,213.49 36.03,24.94 64.15,44.11 83.4,56.87 19.24,12.76 29.6,19.12 30.12,18.41 0.51,-0.7 -8.85,-8.41 -27.17,-22.44 -18.31,-14.02 -45.59,-34.36 -80.89,-60.29 -70.6,-51.88 -173.32,-126.17 -300.67,-217.39 -254.66,-182.47 -607.96,-432.44 -998.55,-707.87" /><path
         id="path88"
         style="fill:#e7e8e5;fill-opacity:1;fill-rule:nonzero;stroke:none"
         d="m 3052.8,2704.25 c -429.5,-212.24 -818.18,-404.32 -1099.91,-543.54 -140.19,-70.14 -253.68,-126.92 -332.49,-166.34 -38.9,-19.82 -69.16,-35.24 -90.06,-45.89 -10.02,-5.26 -17.75,-9.3 -23.28,-12.21 -5.21,-2.8 -7.84,-4.32 -7.75,-4.49 0.08,-0.17 2.88,1.02 8.26,3.51 5.64,2.69 13.52,6.44 23.74,11.3 21.06,10.33 51.57,25.28 90.78,44.5 78.83,39.37 192.37,96.06 332.61,166.1 280.43,141.76 667.31,337.33 1094.82,553.44 427.13,216.34 814.24,411.64 1095.34,551.36 140.53,69.89 254.54,125.93 333.64,164.06 39.55,19.07 70.36,33.67 91.4,43.31 21.03,9.63 32.27,14.3 32.67,13.53 0.4,-0.78 -10.07,-6.96 -30.38,-17.99 -20.32,-11.03 -50.48,-26.91 -89.45,-47.09 -77.95,-40.36 -191.19,-97.91 -331.44,-168.36 -280.45,-140.97 -669.05,-333.38 -1098.5,-545.2" /><path
         id="path90"
         style="fill:#e7e8e5;fill-opacity:1;fill-rule:nonzero;stroke:none"
         d="m 3093.62,2604.89 c -458.02,-142.97 -872.5,-272.34 -1172.94,-366.11 -149.63,-47.52 -270.76,-85.98 -354.88,-112.69 -41.57,-13.54 -73.91,-24.08 -96.25,-31.36 -10.74,-3.63 -19.01,-6.43 -24.94,-8.44 -5.59,-1.96 -8.43,-3.06 -8.37,-3.24 0.05,-0.18 3.01,0.56 8.72,2.18 6,1.78 14.38,4.26 25.25,7.48 22.45,6.92 54.96,16.96 96.74,29.85 84.14,26.64 205.31,65.02 354.98,112.42 299.55,96.49 712.8,229.61 1169.47,376.72 456.32,147.39 869.76,280.21 1169.65,374.57 149.94,47.21 271.46,84.86 355.66,110.25 42.1,12.7 74.86,22.33 97.17,28.58 22.31,6.25 34.15,9.11 34.43,8.28 0.27,-0.83 -11.06,-5.31 -32.87,-13.06 -21.83,-7.74 -54.14,-18.75 -95.85,-32.63 -83.42,-27.77 -204.43,-67.03 -354.16,-114.85 -299.46,-95.7 -713.91,-225.42 -1171.81,-367.95" /><path
         id="path92"
         style="fill:#e7e8e5;fill-opacity:1;fill-rule:nonzero;stroke:none"
         d="m 3118.07,2500.39 c -475.12,-70.12 -905.08,-133.57 -1216.73,-179.56 -155.36,-23.7 -281.12,-42.89 -368.45,-56.21 -43.21,-6.91 -76.84,-12.3 -100.06,-16.01 -11.18,-1.93 -19.8,-3.41 -25.97,-4.47 -5.84,-1.07 -8.82,-1.71 -8.79,-1.89 0.03,-0.19 3.06,0.09 8.96,0.8 6.21,0.83 14.88,1.98 26.13,3.47 23.27,3.36 56.98,8.22 100.3,14.47 87.34,13.26 213.12,32.36 368.49,55.95 311.21,48.8 740.56,116.13 1215.02,190.52 474.15,74.73 903.63,141.73 1214.85,188.38 155.59,23.35 281.62,41.68 368.82,53.69 43.59,6.01 77.48,10.44 100.51,13.15 23.03,2.72 35.19,3.71 35.32,2.85 0.14,-0.86 -11.76,-3.52 -34.55,-7.78 -22.78,-4.26 -56.45,-10.11 -99.85,-17.35 -86.82,-14.47 -212.58,-34.46 -368.08,-58.45 -311,-48.04 -740.98,-111.85 -1215.92,-181.56" /><path
         id="path94"
         style="fill:#dadbd8;fill-opacity:1;fill-rule:nonzero;stroke:none"
         d="m 3739.25,1184.83 c -56.58,66.59 -134.85,106.67 -189.23,121.98 -50.93,14.33 -128.14,27.4 -206.75,8.23 -48.82,-11.91 -91.58,-34.91 -127.08,-68.38 -42.05,-39.64 -74.16,-94.3 -95.43,-162.46 -3.19,-10.23 -2.13,-21.05 2.99,-30.49 5.14,-9.48 13.69,-16.32 24.08,-19.24 l 133.54,-37.591 c 18.84,-5.297 39,4.191 46.88,22.101 17.71,40.21 62.41,103.72 162.83,77.32 76.53,-20.17 92.4,-84.08 95.69,-110.648 5.35,-43.242 -11.68,-87.933 -45.54,-119.55 -52.03,-48.59 -119.93,-39.161 -155.77,-29.211 -41.21,11.441 -84.12,-12.559 -95.64,-53.489 l -40.45,-143.703 c -5.91,-20.988 6.36,-42.867 27.34,-48.769 l 130.12,-36.629 c 20.98,-5.91 42.86,6.359 48.77,27.351 l 8.5,30.188 1.6,1.269 c 32.38,2.051 96.55,10.954 162.41,47.633 84.08,46.817 141.12,121.75 169.53,222.688 40.66,144.46 -9.31,243.64 -58.39,301.4" /><path
         id="path96"
         style="fill:#dadbd8;fill-opacity:1;fill-rule:nonzero;stroke:none"
         d="m 3338.07,534.621 -11.39,3.199 c -54.41,15.321 -111.14,-16.488 -126.46,-70.91 -15.32,-54.41 16.49,-111.148 70.91,-126.461 l 11.38,-3.207 c 54.41,-15.312 111.15,16.488 126.46,70.91 15.32,54.418 -16.49,111.149 -70.9,126.469" /><path
         id="path98"
         style="fill:#f3f2f1;fill-opacity:1;fill-rule:nonzero;stroke:none"
         d="m 4026.01,1980.73 c -39.29,21.52 -84.11,26.37 -112.96,23.73 -27.02,-2.46 -66.39,-10.35 -100.52,-33.94 -21.2,-14.65 -37.45,-33.5 -48.32,-56.03 -12.88,-26.69 -18.24,-58.75 -15.93,-95.28 0.34,-5.49 2.83,-10.48 7.01,-14.06 4.2,-3.6 9.55,-5.3 15.06,-4.8 l 70.84,6.47 c 9.99,0.91 17.9,9.15 18.4,19.17 1.11,22.5 10.88,61.11 63.81,66.87 40.34,4.36 59.65,-23.34 66.09,-35.46 10.49,-19.72 10.52,-44.24 0.1,-65.59 -16.01,-32.8 -50.25,-40.73 -69.24,-42.53 -21.83,-2.07 -37.98,-21.43 -36,-43.14 l 6.96,-76.23 c 1.02,-11.13 10.9,-19.36 22.03,-18.34 l 69.02,6.3 c 11.14,1.02 19.36,10.9 18.35,22.03 l -1.46,16.02 0.53,0.9 c 15.13,6.91 44.23,22.94 69.05,52.57 31.68,37.83 45.26,84.16 40.37,137.7 -6.99,76.63 -49.1,114.97 -83.19,133.64" /><path
         id="path100"
         style="fill:#f3f2f1;fill-opacity:1;fill-rule:nonzero;stroke:none"
         d="m 3953.04,1595.84 -6.03,-0.55 c -28.87,-2.63 -50.21,-28.26 -47.57,-57.13 2.63,-28.86 28.26,-50.2 57.13,-47.56 l 6.03,0.55 c 28.87,2.63 50.21,28.26 47.57,57.13 -2.63,28.86 -28.26,50.2 -57.13,47.56" /><path
         id="path102"
         style="fill:#f3f2f1;fill-opacity:1;fill-rule:nonzero;stroke:none"
         d="m 1189.2,3608.12 c -26.62,26.23 -61.49,40.34 -85.23,44.81 -22.24,4.18 -55.63,6.82 -88.4,-4.32 -20.347,-6.92 -37.691,-18.33 -51.554,-33.94 -16.414,-18.47 -28.028,-42.98 -34.512,-72.82 -0.973,-4.47 -0.109,-9.05 2.426,-12.87 2.55,-3.85 6.453,-6.44 10.988,-7.29 l 58.312,-10.96 c 8.23,-1.55 16.46,3.26 19.14,11.18 6.02,17.8 22.67,46.55 66.45,39.1 33.36,-5.69 42.54,-32.33 44.95,-43.52 3.91,-18.22 -1.65,-37.9 -14.88,-52.65 -20.33,-22.67 -49.61,-21.22 -65.26,-18.34 -17.99,3.32 -35.36,-8.53 -38.72,-26.4 l -11.8,-62.76 c -1.723,-9.16 4.33,-18.02 13.49,-19.74 l 56.82,-10.68 c 9.16,-1.73 18.02,4.33 19.74,13.49 l 2.48,13.19 0.64,0.6 c 13.72,2.09 40.72,8.32 67.39,26.43 34.05,23.13 55.51,57.21 63.8,101.29 11.86,63.08 -13.18,103.44 -36.27,126.2" /><path
         id="path104"
         style="fill:#f3f2f1;fill-opacity:1;fill-rule:nonzero;stroke:none"
         d="m 1042.87,3315.93 -4.97,0.93 c -23.76,4.47 -46.728,-11.23 -51.197,-34.99 -4.469,-23.76 11.231,-46.73 34.997,-51.19 l 4.97,-0.94 c 23.76,-4.47 46.72,11.23 51.19,34.99 4.47,23.77 -11.23,46.73 -34.99,51.2" /><path
         id="path106"
         style="fill:#e7e8e5;fill-opacity:1;fill-rule:nonzero;stroke:none"
         d="m 3920.49,3588.08 c -39.21,21.67 -84.02,26.7 -112.87,24.18 -27.03,-2.36 -66.43,-10.09 -100.65,-33.54 -21.26,-14.56 -37.59,-33.35 -48.55,-55.84 -12.98,-26.64 -18.47,-58.67 -16.31,-95.22 0.32,-5.48 2.8,-10.48 6.96,-14.08 4.19,-3.62 9.53,-5.34 15.04,-4.86 l 70.86,6.19 c 10,0.87 17.94,9.08 18.48,19.09 1.2,22.5 11.12,61.07 64.07,66.61 40.36,4.21 59.56,-23.57 65.96,-35.71 10.4,-19.77 10.34,-44.29 -0.17,-65.6 -16.14,-32.73 -50.41,-40.52 -69.4,-42.25 -21.85,-1.99 -38.07,-21.28 -36.18,-43 l 6.66,-76.25 c 0.98,-11.14 10.83,-19.4 21.96,-18.43 l 69.04,6.03 c 11.14,0.97 19.41,10.82 18.44,21.96 l -1.4,16.02 0.54,0.9 c 15.16,6.85 44.31,22.76 69.25,52.29 31.83,37.7 45.6,83.98 40.93,137.54 -6.7,76.66 -48.65,115.16 -82.66,133.97" /><path
         id="path108"
         style="fill:#e7e8e5;fill-opacity:1;fill-rule:nonzero;stroke:none"
         d="m 3845.99,3203.49 -6.04,-0.53 c -28.88,-2.52 -50.32,-28.07 -47.8,-56.94 2.52,-28.88 28.07,-50.32 56.94,-47.79 l 6.04,0.52 c 28.88,2.52 50.32,28.07 47.8,56.94 -2.52,28.88 -28.07,50.32 -56.94,47.8" /><path
         id="path110"
         style="fill:#e7e8e5;fill-opacity:1;fill-rule:nonzero;stroke:none"
         d="m 1789.95,1283.73 c -49.07,23.11 -103.59,25.67 -138.26,20.37 -32.47,-4.98 -79.46,-17.41 -118.97,-48.43 -24.54,-19.26 -42.8,-43.24 -54.27,-71.27 -13.59,-33.21 -17.71,-72.34 -12.23,-116.33 0.82,-6.59 4.2,-12.44 9.51,-16.46 5.35,-4.04 11.93,-5.71 18.55,-4.69 l 85.13,13.03 c 12.01,1.84 20.97,12.38 20.83,24.53 -0.32,27.27 8.64,74.65 72.18,85.5 48.43,8.25 73.81,-23.8 82.49,-37.97 14.12,-23.07 15.97,-52.7 4.95,-79.26 -16.93,-40.82 -57.73,-52.918 -80.54,-56.5 -26.23,-4.121 -44.32,-28.691 -40.33,-54.789 l 14.03,-91.602 c 2.05,-13.379 14.6,-22.597 27.98,-20.55 l 82.94,12.703 c 13.38,2.047 22.6,14.597 20.55,27.98 l -2.95,19.25 0.58,1.129 c 17.78,9.469 51.76,30.969 79.57,68.609 35.5,48.05 48.5,105.04 38.65,169.39 -14.11,92.09 -67.81,135.32 -110.39,155.36" /><path
         id="path112"
         style="fill:#e7e8e5;fill-opacity:1;fill-rule:nonzero;stroke:none"
         d="m 1730.13,813.23 -7.25,-1.109 c -34.69,-5.312 -58.59,-37.851 -53.28,-72.539 5.31,-34.691 37.86,-58.59 72.54,-53.281 l 7.26,1.121 c 34.69,5.308 58.59,37.848 53.28,72.539 -5.32,34.691 -37.86,58.59 -72.55,53.269" /><path
         id="path114"
         style="fill:#e7e8e5;fill-opacity:1;fill-rule:nonzero;stroke:none"
         d="m 1043.48,3017.18 c -69,32.35 -145.617,35.81 -194.308,28.26 -45.602,-7.06 -111.598,-24.65 -167.027,-68.33 -34.426,-27.12 -60.024,-60.86 -76.075,-100.27 -19.011,-46.68 -24.691,-101.68 -16.89,-163.46 1.172,-9.27 5.933,-17.48 13.414,-23.11 7.511,-5.66 16.773,-7.99 26.07,-6.55 l 119.57,18.53 c 16.871,2.62 29.422,17.45 29.196,34.51 -0.508,38.32 11.961,104.9 101.203,120.31 68.019,11.71 103.758,-33.25 115.988,-53.14 19.899,-32.37 22.569,-74 7.159,-111.35 -23.694,-57.39 -80.979,-74.49 -113.018,-79.58 -36.848,-5.85 -62.203,-40.42 -56.524,-77.07 l 19.942,-128.67 c 2.91,-18.79 20.566,-31.71 39.355,-28.8 l 116.505,18.06 c 18.79,2.91 31.7,20.57 28.79,39.36 l -4.19,27.03 0.81,1.59 c 24.96,13.35 72.64,43.65 111.62,96.6 49.76,67.6 67.88,147.7 53.88,238.08 -20.05,129.34 -95.61,189.94 -155.47,218" /><path
         id="path116"
         style="fill:#e7e8e5;fill-opacity:1;fill-rule:nonzero;stroke:none"
         d="m 960.605,2356 -10.191,-1.58 c -48.723,-7.55 -82.215,-53.33 -74.668,-102.05 7.555,-48.72 53.332,-82.22 102.055,-74.67 l 10.191,1.58 c 48.728,7.55 82.218,53.33 74.668,102.05 -7.55,48.73 -53.33,82.22 -102.055,74.67" /><path
         id="path118"
         style="fill:#ffffff;fill-opacity:1;fill-rule:nonzero;stroke:none"
         d="m 2727.57,3832.14 90.13,-15.02 c 44.31,-52.96 104.96,-93.49 177.71,-112.86 171.57,-45.66 353.1,48.55 414.89,215 71.39,192.33 -37.63,404.72 -237.4,457.74 -169.6,45.02 -349.03,-46.34 -412.66,-209.86 -31.57,-81.15 -30.64,-166.13 -4.2,-241.48 l -0.11,0.17 -28.36,-93.69" /><path
         id="path120"
         style="fill:#17282f;fill-opacity:1;fill-rule:nonzero;stroke:none"
         d="m 2727.58,3832.14 c 0,0 0.46,1.95 1.6,5.96 1.21,4.2 2.93,10.17 5.16,17.91 4.74,16.14 11.64,39.68 20.57,70.12 l 0.62,2.11 1.27,-1.81 0.11,-0.16 -1.87,-0.95 c -14.4,40.69 -26.66,98.76 -16.42,167.24 4.96,34.08 15.89,70.15 33.52,105.93 17.91,35.6 43.43,70.36 76.43,100.5 33.11,29.97 73.83,55.01 119.88,71.33 45.95,16.22 97.4,24.34 149.64,18.75 52.16,-5.14 104.76,-22.5 151.9,-51.56 47.38,-28.79 87.83,-70.97 116.79,-120.81 15.33,-24.91 25.56,-52.2 34.29,-79.41 1.99,-6.86 3.28,-13.91 4.95,-20.83 1.36,-6.98 3.63,-13.78 4.22,-20.85 0.85,-7.03 1.7,-14.04 2.55,-21.03 l 1.21,-10.47 0.17,-10.51 c 2.05,-56 -9.92,-110.69 -31.65,-158.9 -21.56,-48.5 -54.99,-89.15 -92.53,-120.85 -37.75,-31.7 -80.4,-54.17 -123.35,-67.5 -43.05,-13.2 -86.24,-17.45 -126.2,-14.73 -9.94,1.16 -19.73,2.3 -29.35,3.42 -9.58,1.35 -18.79,3.88 -27.94,5.71 -18.26,3.96 -35.29,9.96 -51.27,16.41 -64.16,26.35 -107.68,66.48 -134.97,99.3 l 0.62,-0.35 c -29.03,5.1 -51.59,9.06 -67.1,11.78 -7.42,1.34 -13.12,2.38 -17.18,3.11 -3.83,0.71 -5.67,1.14 -5.67,1.14 0,0 2.15,-0.24 6.12,-0.84 4.13,-0.62 9.94,-1.51 17.5,-2.67 15.41,-2.43 37.82,-5.95 66.67,-10.5 l 0.37,-0.06 0.25,-0.29 c 27.48,-32.33 70.95,-71.8 134.65,-97.53 15.86,-6.3 32.77,-12.16 50.85,-15.99 9.07,-1.76 18.19,-4.23 27.67,-5.52 9.52,-1.07 19.2,-2.15 29.04,-3.26 39.52,-2.53 82.17,1.84 124.66,15 42.39,13.3 84.43,35.6 121.6,66.97 36.97,31.36 69.86,71.49 91.03,119.32 21.35,47.56 33.09,101.48 31.04,156.64 l -0.18,10.35 -1.2,10.32 c -0.84,6.88 -1.67,13.79 -2.52,20.71 -0.57,6.97 -2.83,13.67 -4.17,20.55 -1.65,6.81 -2.92,13.75 -4.88,20.52 -8.62,26.79 -18.69,53.69 -33.8,78.22 -28.54,49.1 -68.35,90.67 -115.02,119.06 -46.42,28.66 -98.27,45.84 -149.65,50.97 -51.48,5.59 -102.22,-2.32 -147.59,-18.23 -45.47,-16 -85.74,-40.61 -118.53,-70.11 -32.69,-29.67 -58.02,-63.91 -75.88,-99.04 -17.56,-35.3 -28.57,-70.95 -33.67,-104.67 -10.5,-67.76 1.21,-125.43 15.1,-166.04 l 2.53,-7.41 -4.4,6.46 -0.11,0.16 1.88,0.29 c -9.37,-30.02 -16.61,-53.23 -21.57,-69.14 -2.47,-7.8 -4.36,-13.77 -5.71,-18.01 -1.3,-4.08 -2.08,-6.23 -2.08,-6.23" /><path
         id="path122"
         style="fill:#f2575d;fill-opacity:1;fill-rule:nonzero;stroke:none"
         d="m 3158,4201.09 c -26.67,17.67 -58.27,23.82 -78.96,23.68 -19.38,-0.13 -47.87,-3.38 -73.57,-18.11 -15.97,-9.16 -28.68,-21.59 -37.76,-36.97 -10.77,-18.23 -16.51,-40.72 -17.07,-66.86 -0.08,-3.92 1.39,-7.62 4.15,-10.42 2.77,-2.81 6.48,-4.35 10.43,-4.32 l 50.8,0.34 c 7.17,0.05 13.29,5.44 14.24,12.54 2.15,15.95 11.42,42.83 49.43,43.75 28.97,0.68 41.05,-20.19 44.91,-29.2 6.27,-14.67 4.83,-32.12 -3.87,-46.69 -13.37,-22.38 -38.21,-25.96 -51.83,-26.1 -15.67,-0.17 -28.32,-12.97 -28.22,-28.54 l 0.37,-54.67 c 0.06,-7.98 6.6,-14.43 14.58,-14.38 l 49.5,0.34 c 7.98,0.06 14.43,6.59 14.38,14.58 l -0.08,11.48 0.43,0.61 c 11.19,4.01 32.86,13.67 52.3,33.26 24.82,25.02 37.27,57.17 37.01,95.57 -0.37,54.96 -28.03,84.77 -51.17,100.11" /><path
         id="path124"
         style="fill:#f2575d;fill-opacity:1;fill-rule:nonzero;stroke:none"
         d="m 3082.94,3931.57 -4.33,-0.03 c -20.7,-0.14 -37.43,-17.09 -37.29,-37.8 0.14,-20.7 17.1,-37.42 37.8,-37.28 l 4.33,0.03 c 20.7,0.14 37.42,17.09 37.28,37.79 -0.14,20.7 -17.09,37.43 -37.79,37.29" /><path
         id="path126"
         style="fill:#f2575d;fill-opacity:1;fill-rule:nonzero;stroke:none"
         d="m 3220.89,3381.35 c -236.11,158.81 -516.84,215.4 -700.83,215.4 -172.31,0 -425.89,-27.18 -655.41,-156.64 -142.54,-80.41 -256.27,-190.26 -338.04,-326.51 -96.85,-161.38 -149.27,-361.06 -155.8,-593.51 -0.98,-34.86 11.9,-67.87 36.28,-92.94 24.49,-25.19 57.32,-39.06 92.45,-39.06 h 451.81 c 63.76,0 118.56,47.57 127.47,110.64 20.04,141.68 104.13,380.24 442.24,386.07 257.57,4.43 363.85,-182.04 397.59,-262.43 54.92,-130.82 40.99,-285.94 -37.26,-414.96 -120.23,-198.22 -341.4,-228.56 -462.53,-229.01 -139.31,-0.51 -252.64,-113.59 -252.64,-252.08 v -486.18 c 0,-71.01 57.76,-128.77 128.77,-128.77 h 440.2 c 71,0 128.77,57.76 128.77,128.77 v 102.15 c 0,2.45 1.53,4.57 3.89,5.39 99.72,34.99 293.01,119.53 467.11,292.64 222.26,220.97 334.95,506.18 334.95,847.69 0,488.74 -244.18,755.57 -449.02,893.34" /><path
         id="path128"
         style="fill:#17282f;fill-opacity:1;fill-rule:nonzero;stroke:none"
         d="m 2504.02,884.582 h 35.53 c 174.82,0 317.05,-142.23 317.05,-317.051 0,-174.832 -142.23,-317.051 -317.05,-317.051 h -35.53 c -174.83,0 -317.06,142.219 -317.06,317.051 0,174.821 142.23,317.051 317.06,317.051" /><path
         id="path130"
         style="fill:#17282f;fill-opacity:1;fill-rule:nonzero;stroke:none"
         d="m 2293.3,1017.35 h 440.02 c 70.97,0 128.71,55.93 128.71,124.68 v 198.77 c 0,2.37 1.53,4.42 3.89,5.22 52.01,17.68 124.78,50.11 207.12,100.71 -281.14,1.97 -793.59,4.84 -908.45,0.66 v -305.36 c 0,-68.75 57.74,-124.68 128.71,-124.68" /><path
         id="path132"
         style="fill:#f9a78d;fill-opacity:1;fill-rule:nonzero;stroke:none"
         d="m 2655.71,3219.82 -282.37,820.01 c -59.63,205.32 -228.82,341.75 -432.41,276.45 l -18.46,-7.12 c -185.79,-71.79 -285.4,-274.17 -228.79,-465.13 52.68,-177.67 113.15,-373.3 150.01,-465.3 76.3,-190.45 276.04,-136.99 276.04,-136.99 0.44,0.14 44.46,-126.95 63.71,-183.99 l 103.42,-102.19 42.72,46.67 326.13,217.59" /><path
         id="path134"
         style="fill:#f57f62;fill-opacity:1;fill-rule:nonzero;stroke:none"
         d="m 2119.73,3241.74 c 0,0 123.36,39.52 220.71,169.92 0,0 -4.36,-167.02 -201.97,-223.57 l -18.74,53.65" /><path
         id="path136"
         style="fill:#17282f;fill-opacity:1;fill-rule:nonzero;stroke:none"
         d="m 1831.84,3714.54 c 5.05,-14.63 21.62,-22.4 37,-17.39 15.34,5 23.71,20.89 18.64,35.52 -5.06,14.63 -21.62,22.42 -36.97,17.42 -15.38,-5.01 -23.74,-20.92 -18.67,-35.55" /><path
         id="path138"
         style="fill:#17282f;fill-opacity:1;fill-rule:nonzero;stroke:none"
         d="m 1763.88,3784.51 c 4.76,-2.25 19.54,21.07 48.98,32.35 29.24,11.7 56.67,4.91 58.47,9.74 0.95,2.2 -4.99,7.3 -17.03,10.51 -11.88,3.24 -30.22,3.77 -48.51,-3.39 -18.27,-7.18 -31.08,-19.87 -37.27,-30.19 -6.36,-10.44 -6.93,-18.07 -4.64,-19.02" /><path
         id="path140"
         style="fill:#17282f;fill-opacity:1;fill-rule:nonzero;stroke:none"
         d="m 2077.71,3812.03 c 4.78,-2.25 19.59,21.07 49.01,32.35 29.23,11.69 56.66,4.9 58.46,9.74 0.95,2.2 -4.95,7.3 -17.03,10.5 -11.88,3.25 -30.21,3.77 -48.51,-3.38 -18.27,-7.18 -31.07,-19.88 -37.27,-30.19 -6.34,-10.43 -6.93,-18.07 -4.66,-19.02" /><path
         id="path142"
         style="fill:#17282f;fill-opacity:1;fill-rule:nonzero;stroke:none"
         d="m 2036.58,3622.34 c -0.51,1.73 -20.01,-2.17 -51.09,-9.83 -7.81,-2.13 -15.49,-3.39 -18.74,1.25 -3.86,4.74 -3.85,14.05 -3.58,24.2 0.04,20.9 0.07,42.8 0.11,65.76 -0.61,93.33 -4.15,168.89 -7.91,168.84 -3.76,-0.06 -6.31,-75.75 -5.69,-169.08 0.33,-22.95 0.62,-44.82 0.95,-65.74 0.46,-9.64 -0.69,-21.2 7.49,-30.98 4.19,-4.83 11.28,-6.77 16.58,-6.21 5.39,0.39 9.65,1.94 13.45,3.15 30.42,9.92 48.96,16.93 48.43,18.64" /><path
         id="path144"
         style="fill:#17282f;fill-opacity:1;fill-rule:nonzero;stroke:none"
         d="m 2009.72,3977.38 c 6.89,-5.97 32.38,12.95 66.83,27.12 34.17,14.86 65.49,19.98 66.02,29.07 0.11,4.29 -8.36,8.79 -22.94,10.14 -14.47,1.39 -34.97,-1.05 -55.55,-9.73 -20.56,-8.73 -36.58,-21.73 -45.67,-33.09 -9.18,-11.4 -11.85,-20.62 -8.69,-23.51" /><path
         id="path146"
         style="fill:#17282f;fill-opacity:1;fill-rule:nonzero;stroke:none"
         d="m 1729.12,3870.45 c 8.63,-4.44 30.13,11.43 58.97,22.45 28.5,11.86 55.13,15.23 58.18,24.34 1.22,4.32 -5.13,9.63 -18.19,12.03 -12.89,2.44 -32.46,1.09 -52.17,-6.77 -19.7,-7.87 -34.69,-20.33 -42.23,-30.93 -7.68,-10.68 -8.48,-18.84 -4.56,-21.12" /><path
         id="path148"
         style="fill:#f9a78d;fill-opacity:1;fill-rule:nonzero;stroke:none"
         d="m 2409.31,3901.37 c 2.71,2.67 116.46,89.68 162.83,-42.76 46.36,-132.44 -96.17,-151.67 -97.73,-147.95 -1.56,3.71 -65.1,190.71 -65.1,190.71" /><path
         id="path150"
         style="fill:#f57f62;fill-opacity:1;fill-rule:nonzero;stroke:none"
         d="m 2497.3,3775 c 0.43,0.62 2.87,-0.81 7.4,-1.23 4.41,-0.41 11.37,0.68 17.37,5.68 12.19,10.03 16.2,36.37 8.48,60.47 -3.88,12.17 -10.42,22.76 -18.02,30.77 -7.44,8.27 -16.07,12.85 -23.55,11.63 -7.58,-0.83 -11.09,-6.79 -11.41,-11.09 -0.47,-4.32 1.29,-6.67 0.67,-7.15 -0.25,-0.45 -3.62,1.23 -4.47,7.07 -0.37,2.83 0.09,6.49 2.31,10.12 2.27,3.7 6.48,6.66 11.57,7.84 10.46,2.87 22.95,-3.31 31.3,-12.09 8.92,-8.64 16.56,-20.45 20.92,-34.11 8.49,-26.99 3.58,-56.75 -13.63,-68.98 -8.47,-5.7 -17.23,-5.61 -22.33,-3.89 -5.25,1.84 -6.98,4.55 -6.61,4.96" /><path
         id="path152"
         style="fill:#17282f;fill-opacity:1;fill-rule:nonzero;stroke:none"
         d="m 2136.54,3635.69 c -4.67,-1.27 5.5,-31.84 -13.4,-62.28 -18.83,-30.5 -52.55,-37.97 -51.36,-42.32 0.22,-2.06 9.24,-3.51 23.12,0.72 13.64,4.05 31.88,14.97 43.45,33.59 11.5,18.65 12.42,38.69 9.27,51.57 -3.11,13.17 -9.05,19.6 -11.08,18.72" /><path
         id="path154"
         style="fill:#17282f;fill-opacity:1;fill-rule:nonzero;stroke:none"
         d="m 1363,3937.03 c -0.64,8.54 2.77,16.95 8.27,23.5 12.01,14.3 29.9,19.26 46.68,25.48 41.76,15.47 79.63,40.89 110.38,73.08 -15.38,2.02 -30.41,5.77 -44.41,12.45 -28.91,13.81 -52.72,42.15 -53,74.19 -0.06,6.01 1.09,12.73 5.92,16.31 7.67,5.67 18.17,-0.12 26.52,-4.71 27.47,-15.08 49.01,-18.12 77.37,-4.79 17.61,8.28 33.85,18.61 45.07,32.61 l 1.01,2.43 c 4.38,9.53 8.7,18.68 13.01,27.58 l 0.02,0.07 v -0.04 c 32.39,66.93 63.15,116.23 100.98,149.51 55.45,48.78 159.8,97.4 233.4,103.46 73.61,6.07 153.37,-27.27 187.06,-93 26.53,45.26 83.35,64.97 135.89,62.69 l 0.97,0.91 c 57.69,-0.21 105.88,-44.1 139.42,-91.03 1.83,-2.57 3.57,-5.21 5.36,-7.81 27.01,-21.37 58.86,-36.6 92.71,-43.06 5.97,-1.14 12.88,-2.67 15.5,-8.16 2.59,-5.43 -0.53,-11.8 -3.99,-16.74 -9.19,-13.12 -21.46,-23.95 -35.4,-31.85 9.06,-10.77 18.81,-20.9 29.68,-30.02 9.24,-7.76 20.24,-17.07 18.78,-29.05 -1.13,-9.25 -10,-16.03 -19.15,-17.82 -9.16,-1.79 -18.57,0.3 -27.66,2.39 10.54,-11.67 21.07,-23.35 31.61,-35.02 -17.4,-9.76 -37.12,-15.04 -57.06,-15.92 6.34,-52.71 30.05,-146.11 29.13,-183.67 -34.91,-12.99 -44.79,-12.18 -60.44,-24.3 -20.24,-15.68 2.8,-53.17 -31.09,-52.16 -17.25,0.53 -60.83,49.86 -71.37,63.53 -69.87,90.75 -119.8,196.74 -145.43,308.36 -29.2,15.15 -61.34,24.62 -94.09,27.71 l 3.03,-1.26 c -60.74,-0.27 -128.47,-3.35 -170.86,-46.84 -32.89,-33.75 -41.74,-83.32 -59.9,-126.79 -34.41,-82.39 -86.54,-138.26 -169.39,-171.52 13,-61.1 44.42,-157.45 60.78,-212.98 l -85.02,92.73 0.13,-0.46 c -6.02,5.07 -11.4,10.43 -16.67,15.83 l -1.72,1.59 -0.09,0.25 c -8.42,8.69 -16.62,17.48 -26.26,25.61 l -0.36,-0.65 c -20.36,-36.47 -77.93,-11.96 -65.82,28.02 2.39,7.93 5.94,15.49 10.63,22.36 -9.03,-17.44 -27.02,-30.61 -46.65,-31.4 -19.62,-0.8 -39.66,12.27 -44.63,31.28 -3.39,12.97 1.65,27.4 11.27,36.39 -23.22,-10.25 -49.45,-13.65 -74.43,-9.11 -16.38,2.97 -34.27,11.06 -35.69,29.84" /><path
         id="path156"
         style="fill:#33535f;fill-opacity:1;fill-rule:nonzero;stroke:none"
         d="m 2068.16,4331.45 c -0.21,-0.64 9.92,-2.27 25.69,-10.93 15.64,-8.64 35.94,-26.11 52.39,-53.83 8.27,-13.75 16.02,-29.65 22.3,-47.49 6.36,-17.81 11.66,-37.41 17.38,-58.03 5.79,-20.58 11.85,-42.36 20.93,-64.03 4.54,-10.81 9.83,-21.58 16.18,-31.97 6.32,-10.17 13.44,-21.13 25.12,-27.68 9.36,-5.4 21.66,-4.92 30.57,0.44 9.08,5.12 15.87,13.31 19.7,22.56 7.34,18.94 3.95,38.48 1.31,55.83 l -3.89,-1.93 c 11.79,-12.27 23.7,-24.3 37.87,-32.27 14.02,-8.1 30.48,-10.92 44.91,-7.24 7.19,1.82 13.82,5.41 18.74,10.53 5.05,5.12 7.7,11.74 8.86,18.15 0.98,6.46 0.39,12.96 -1.94,18.62 -2.36,5.63 -6.52,10.29 -11.53,12.87 l -1.41,-2.56 c 20.93,-11.75 39.92,-15.33 52.61,-16.55 6.4,-0.6 11.34,-0.56 14.66,-0.47 3.32,0.17 5.03,0.35 5.03,0.48 -0.01,0.15 -1.73,0.23 -5.03,0.33 -3.3,0.16 -8.19,0.38 -14.48,1.22 -12.49,1.68 -31.06,5.68 -51.33,17.52 l -1.41,-2.56 c 8.96,-4.61 13.6,-16.6 11.43,-28.32 -1.13,-5.81 -3.61,-11.75 -8.1,-16.16 -4.41,-4.49 -10.47,-7.72 -17.06,-9.32 -13.29,-3.25 -28.66,-0.58 -41.85,7.17 -13.41,7.66 -24.96,19.39 -36.68,31.72 l -4.97,5.22 1.07,-7.15 c 2.63,-17.33 5.56,-36.21 -1.19,-53.32 -3.42,-8.29 -9.68,-15.73 -17.63,-20.18 -7.91,-4.64 -17.85,-4.99 -25.98,-0.41 -10.17,5.65 -17.14,15.94 -23.34,25.97 -6.2,10.12 -11.41,20.66 -15.9,31.28 -9,21.29 -15.11,42.89 -21,63.42 -5.85,20.56 -11.3,40.2 -17.91,58.19 -6.52,18 -14.56,34.05 -23.15,47.9 -17.08,27.93 -38.19,45.43 -54.38,53.69 -16.34,8.3 -26.59,9.29 -26.59,9.29" /><path
         id="path158"
         style="fill:#33535f;fill-opacity:1;fill-rule:nonzero;stroke:none"
         d="m 1535.35,3931.84 c -0.02,-0.07 0.66,-0.34 2.02,-0.77 1.65,-0.5 3.64,-1.1 6.08,-1.83 2.68,-0.84 6.02,-1.74 10.06,-2.37 4.02,-0.74 8.66,-1.73 13.97,-2.05 21,-2.21 52.85,-0.54 88.17,14.3 35.01,14.59 73.44,42.36 101.69,84.36 28.89,41.46 48.41,94.42 59.64,151.14 5.83,28.42 8.83,56.51 13.67,83.17 4.75,26.65 11.39,52.09 22.5,74.22 10.88,22.16 25.94,41 43.88,53.54 8.87,6.45 18.63,10.63 28.24,13.77 9.73,2.86 19.46,4.11 28.77,4.31 18.67,0.28 35.39,-4.19 48.95,-10.08 13.63,-5.96 24.07,-13.65 31.85,-20.65 15.09,-14.7 19.6,-25.96 20.23,-25.52 0.08,0.04 -0.21,0.7 -0.87,1.98 -0.81,1.52 -1.8,3.35 -3,5.6 -2.78,4.86 -7.66,11.59 -15.06,19.29 -7.72,7.34 -18.21,15.42 -32.05,21.75 -13.77,6.26 -30.84,11.1 -50.08,11.03 -9.59,-0.1 -19.66,-1.29 -29.78,-4.16 -9.99,-3.13 -20.25,-7.46 -29.47,-14.05 -18.7,-12.85 -34.33,-32.22 -45.56,-54.83 -11.49,-22.62 -18.34,-48.52 -23.18,-75.36 -4.93,-26.88 -7.97,-54.91 -13.75,-83.07 -11.14,-56.29 -30.33,-108.62 -58.58,-149.57 -27.63,-41.5 -65.03,-68.93 -99.37,-83.75 -34.59,-14.99 -65.87,-17.17 -86.67,-15.55 -21,1.69 -32.14,5.83 -32.3,5.15" /><path
         id="path160"
         style="fill:#33535f;fill-opacity:1;fill-rule:nonzero;stroke:none"
         d="m 1487.73,4010.75 c -0.06,-0.33 3.01,-1.17 8.65,-2.39 5.62,-1.34 13.94,-2.5 24.25,-3.2 10.33,-0.8 22.7,-0.58 36.34,0.78 13.61,1.59 28.47,4.44 43.59,9.15 15.08,4.87 28.88,11.08 40.93,17.61 11.93,6.76 22.17,13.69 30.16,20.28 8.02,6.53 14.15,12.26 17.98,16.59 3.91,4.25 5.94,6.7 5.7,6.93 -0.65,0.63 -9.41,-8.64 -25.76,-20.82 -8.12,-6.16 -18.38,-12.68 -30.19,-19.08 -11.93,-6.2 -25.5,-12.16 -40.27,-16.94 -14.82,-4.6 -29.34,-7.53 -42.65,-9.33 -13.35,-1.56 -25.5,-2.13 -35.68,-1.79 -20.38,0.55 -32.89,3.09 -33.05,2.21" /><path
         id="path162"
         style="fill:#17282f;fill-opacity:1;fill-rule:nonzero;stroke:none"
         d="m 1850.42,2624.57 c -1.73,-0.5 20.94,-114.02 43.13,-231.77 h 7.02 c -22.2,117.75 -48.42,232.26 -50.15,231.77" /><path
         id="path164"
         style="fill:#33535f;fill-opacity:1;fill-rule:nonzero;stroke:none"
         d="m 1946.22,2387.1 c 64.18,0 123.26,46.24 132.23,109.22 20.17,141.48 100.9,380.95 441.24,386.77 259.26,4.42 368.39,-179.1 398.96,-260.72 48.53,-129.58 42.51,-286.85 -36.26,-415.68 -121.02,-197.93 -343.65,-228.23 -465.58,-228.67 -140.22,-0.51 -254.3,-113.44 -254.3,-251.73 v -528.62 l 702.33,13.21 v 131.94 c 0,2.45 1.54,4.57 3.92,5.39 85.55,29.78 221.2,86.23 373.81,209.3 l -45.72,608.8 c 0,0 133.66,256.89 127.04,314.69 -60.52,528.04 -240.11,826.82 -313.09,854.68 -81.95,31.29 -398.35,16.05 -398.35,16.05 0,0 -136.65,-253.19 -328.36,-281.24 -106.67,-15.6 -145.62,117.6 -145.62,117.6 L 1890.69,3042.82 C 1714.34,2953.87 1680.12,2607.8 1676.88,2387.1 h 269.34" /><path
         id="path166"
         style="fill:#a7a9a8;fill-opacity:1;fill-rule:nonzero;stroke:none"
         d="m 2658.46,2021.85 c -0.07,0.13 -0.14,0.26 -0.2,0.39 0,0 16.04,6.6 34.35,15.19 0.09,-0.14 0.19,-0.28 0.29,-0.42 -11.43,-5.54 -22.92,-10.58 -34.44,-15.16 m 39.72,17.76 c -0.09,0.11 -0.17,0.22 -0.25,0.34 6.38,3.05 12.87,6.29 18.92,9.53 0.4,0.21 0.81,0.43 1.21,0.65 -6.59,-3.69 -13.22,-7.19 -19.88,-10.52" /><path
         id="path168"
         style="fill:#979999;fill-opacity:1;fill-rule:nonzero;stroke:none"
         d="m 2692.9,2037.01 c -0.1,0.14 -0.2,0.28 -0.29,0.42 0.8,0.37 1.62,0.76 2.44,1.14 0.09,-0.13 0.18,-0.24 0.27,-0.38 -0.8,-0.39 -1.61,-0.79 -2.42,-1.18" /><path
         id="path170"
         style="fill:#979999;fill-opacity:1;fill-rule:nonzero;stroke:none"
         d="m 2695.32,2038.19 c -0.09,0.14 -0.18,0.25 -0.27,0.38 0.95,0.46 1.91,0.92 2.88,1.38 0.08,-0.12 0.16,-0.23 0.25,-0.34 -0.95,-0.47 -1.91,-0.95 -2.86,-1.42" /><path
         id="path172"
         style="fill:#cc4341;fill-opacity:1;fill-rule:nonzero;stroke:none"
         d="m 3216.54,1904.14 -2.82,37.54 c 6.99,-10.5 6.07,-24.68 2.82,-37.54 m -557.97,117.49 c -0.04,0.07 -0.08,0.15 -0.11,0.22 11.52,4.58 23.01,9.62 34.44,15.16 0.81,0.39 1.62,0.79 2.42,1.18 0.95,0.47 1.91,0.95 2.86,1.42 6.66,3.33 13.29,6.83 19.88,10.52 23.06,12.44 42.09,25.94 42.09,25.94 0.01,-0.01 0.02,-0.01 0.03,-0.01 -32.62,-22.98 -67.03,-40.74 -101.61,-54.43" /><path
         id="path174"
         style="fill:#20353d;fill-opacity:1;fill-rule:nonzero;stroke:none"
         d="m 3011.09,1721 c -41.88,0 -82.02,19.78 -117.64,42.51 -98.23,62.69 -182.08,154.23 -234.88,258.12 34.58,13.69 68.99,31.45 101.61,54.43 141.56,-36.04 281.12,-81.63 422.68,-117.67 10.5,-2.67 21.69,-5.75 28.77,-13.96 0.77,-0.88 1.46,-1.8 2.09,-2.75 l 2.82,-37.54 c -0.46,-1.81 -0.96,-3.6 -1.5,-5.35 -14.89,-48.66 -47,-90.73 -85.24,-124.32 -30.8,-27.05 -67.7,-49.88 -108.58,-53.08 -3.39,-0.26 -6.77,-0.39 -10.13,-0.39" /><path
         id="path176"
         style="fill:#f9a78d;fill-opacity:1;fill-rule:nonzero;stroke:none"
         d="m 2915.76,2618.7 c 56.6,-130.62 42.25,-285.52 -38.42,-414.35 -44.77,-71.5 -101.77,-122.55 -163.94,-156.79 66.97,-72.84 134.93,-137.01 202.13,-184.7 72.31,-51.31 238.96,-36.72 302.15,75.61 77.97,138.61 84.48,492.69 84.48,492.69 14.81,213.46 14.81,213.46 14.81,213.46 l -435.98,66.78 -3.49,-11.96 c 18.71,-28.04 29.73,-61.06 38.26,-80.74" /><path
         id="path178"
         style="fill:#33535f;fill-opacity:1;fill-rule:nonzero;stroke:none"
         d="m 2156.61,2708.41 -24.83,-39.13 c -18.86,-13.02 -36.83,-5.87 -48.48,18.32 l -268.38,408.5 65.38,41.58 296.42,-391.74 c 0,0 4.17,-20.77 -20.11,-37.53" /><path
         id="path180"
         style="fill:#17282f;fill-opacity:1;fill-rule:nonzero;stroke:none"
         d="m 1820.99,3605.5 c -75.63,42.68 -170.02,49.62 -254.62,10.37 -67.54,-31.34 -118.84,-87.11 -144.44,-157.03 -25.6,-69.92 -22.44,-145.63 8.9,-213.17 31.34,-67.55 87.11,-118.84 157.03,-144.44 69.92,-25.6 145.63,-22.43 213.17,8.91 67.54,31.33 118.84,87.1 144.44,157.02 25.6,69.92 22.44,145.63 -8.91,213.17 -25.43,54.83 -66.56,97.51 -115.57,125.17 m -284.43,-502.4 c -52.54,29.65 -96.61,75.38 -123.88,134.15 -33.59,72.39 -36.98,153.53 -9.54,228.46 27.44,74.95 82.41,134.71 154.81,168.3 149.43,69.35 327.42,4.18 396.77,-145.26 33.58,-72.39 36.97,-153.53 9.53,-228.47 -27.43,-74.94 -82.4,-134.7 -154.8,-168.29 -90.66,-42.07 -191.86,-34.63 -272.89,11.11" /><path
         id="path182"
         style="fill:#33535f;fill-opacity:1;fill-rule:nonzero;stroke:none"
         d="m 1833.71,3618.03 c -75.62,42.68 -170.02,49.62 -254.62,10.37 -67.54,-31.34 -118.84,-87.11 -144.44,-157.03 -25.6,-69.92 -22.43,-145.62 8.91,-213.16 31.34,-67.55 87.1,-118.85 157.03,-144.44 69.91,-25.6 145.62,-22.44 213.16,8.9 67.55,31.34 118.84,87.11 144.44,157.03 25.6,69.92 22.44,145.62 -8.9,213.16 -25.44,54.83 -66.57,97.51 -115.58,125.17 m -284.43,-502.4 c -52.54,29.65 -96.6,75.38 -123.88,134.16 -33.58,72.38 -36.97,153.52 -9.54,228.46 27.44,74.94 82.42,134.71 154.81,168.3 149.43,69.34 327.42,4.17 396.77,-145.27 33.58,-72.39 36.97,-153.53 9.54,-228.46 -27.44,-74.94 -82.41,-134.71 -154.8,-168.3 -90.67,-42.06 -191.86,-34.62 -272.9,11.11" /><path
         id="path184"
         style="fill:#ffffff;fill-opacity:1;fill-rule:nonzero;stroke:none"
         d="m 1944.91,3371.35 c -0.11,0 -0.21,1.69 -0.3,4.91 -0.24,3.2 0.14,7.95 -0.57,14.01 -0.68,12.14 -3.41,29.68 -9.9,50.42 -3.19,10.39 -7.72,21.43 -13.08,33.02 -5.81,11.37 -12.18,23.49 -20.44,35.27 -8.05,11.88 -17.3,23.85 -28.06,35.19 -10.68,11.39 -22.51,22.53 -35.86,32.34 -13.28,9.89 -27.25,18.13 -41.36,24.83 -14.18,6.55 -28.48,11.42 -42.34,15.15 -27.86,7.01 -53.95,8.95 -75.64,7.67 -21.72,-1.2 -39.11,-4.62 -50.83,-7.88 -5.96,-1.34 -10.36,-3.11 -13.48,-3.92 -3.08,-0.92 -4.72,-1.36 -4.75,-1.25 -0.04,0.1 1.52,0.74 4.54,1.86 3.05,1.01 7.42,2.98 13.35,4.51 11.68,3.65 29.14,7.44 51.04,8.94 21.87,1.58 48.26,-0.13 76.5,-7.07 14.04,-3.7 28.54,-8.57 42.93,-15.17 14.31,-6.74 28.5,-15.08 41.96,-25.1 13.52,-9.95 25.47,-21.23 36.24,-32.77 10.84,-11.5 20.14,-23.63 28.21,-35.69 8.27,-11.94 14.63,-24.23 20.39,-35.77 5.31,-11.76 9.76,-22.95 12.84,-33.49 6.28,-21.03 8.68,-38.77 8.98,-51.02 0.53,-6.11 -0.06,-10.88 -0.03,-14.1 -0.11,-3.22 -0.23,-4.9 -0.34,-4.89" /><path
         id="path186"
         style="fill:#ffffff;fill-opacity:1;fill-rule:nonzero;stroke:none"
         d="m 1633.15,3128.14 c 0.22,0.74 13.86,-4.34 36.87,-7.48 2.89,-0.35 5.91,-0.71 9.03,-1.09 3.15,-0.35 6.45,-0.36 9.85,-0.57 6.8,-0.55 14.09,-0.19 21.74,-0.04 15.29,0.91 32.03,3.22 49.13,7.71 17.06,4.72 32.7,11.13 46.38,18.02 6.69,3.72 13.17,7.07 18.77,10.96 2.84,1.9 5.69,3.56 8.23,5.44 2.52,1.9 4.94,3.73 7.27,5.48 18.31,14.29 27.55,25.52 28.11,25 0.16,-0.15 -2.16,-2.91 -6.51,-7.79 -2.14,-2.49 -4.86,-5.44 -8.34,-8.53 -3.43,-3.13 -7.14,-6.95 -11.86,-10.45 -2.31,-1.83 -4.72,-3.73 -7.22,-5.71 -2.53,-1.96 -5.38,-3.69 -8.22,-5.65 -5.61,-4.04 -12.12,-7.52 -18.87,-11.36 -13.78,-7.13 -29.61,-13.72 -46.9,-18.5 -17.35,-4.55 -34.34,-6.81 -49.84,-7.57 -7.76,-0.07 -15.13,-0.33 -22.01,0.34 -3.44,0.27 -6.78,0.34 -9.95,0.76 -3.16,0.45 -6.2,0.89 -9.12,1.31 -5.83,0.65 -10.96,2.09 -15.5,3.07 -4.56,0.93 -8.39,2.11 -11.49,3.19 -6.22,2.03 -9.62,3.25 -9.55,3.46" /><path
         id="path188"
         style="fill:#ffffff;fill-opacity:1;fill-rule:nonzero;stroke:none"
         d="m 1838.72,3319.49 c -0.64,-0.62 -39.58,38.37 -86.98,87.06 -47.41,48.71 -85.32,88.68 -84.68,89.3 0.63,0.61 39.57,-38.36 86.98,-87.07 47.39,-48.69 85.31,-88.67 84.68,-89.29" /><path
         id="path190"
         style="fill:#ffffff;fill-opacity:1;fill-rule:nonzero;stroke:none"
         d="m 1792.74,3241.24 c -0.09,-0.07 -1.06,0.88 -2.84,2.77 -1.98,2.15 -4.52,4.92 -7.66,8.35 -6.85,7.61 -16.29,18.12 -27.85,30.98 -23.48,26.19 -56.02,62.28 -92.39,101.74 -36.39,39.46 -69.72,74.82 -93.92,100.35 -11.88,12.57 -21.59,22.83 -28.63,30.27 -3.16,3.41 -5.71,6.17 -7.69,8.31 -1.74,1.93 -2.61,2.98 -2.53,3.06 0.08,0.07 1.1,-0.82 2.99,-2.6 2.1,-2.04 4.79,-4.66 8.13,-7.9 7.01,-6.9 17.05,-17 29.36,-29.57 24.62,-25.13 58.23,-60.27 94.64,-99.75 36.39,-39.48 68.68,-75.83 91.74,-102.41 11.53,-13.29 20.78,-24.11 27.09,-31.67 2.95,-3.58 5.34,-6.48 7.21,-8.74 1.62,-2.02 2.43,-3.12 2.35,-3.19" /><path
         id="path192"
         style="fill:#ffffff;fill-opacity:1;fill-rule:nonzero;stroke:none"
         d="m 1699.64,3322.65 -215.13,234.22 c 0,0 0.01,0.01 0.04,0.05 0.35,0.41 0.7,0.81 1.05,1.22 2.06,2.36 6.97,7.77 14.1,14.45 13.16,11.52 27.47,21.83 42.79,30.79 59.27,-80.56 122.07,-165.74 187.74,-254.68 -5.92,-4.82 -11.77,-9.71 -17.55,-14.66 -14.83,16.57 -31.12,34.54 -48.33,53.21 -36.41,39.48 -70.02,74.62 -94.64,99.75 -12.31,12.57 -22.35,22.67 -29.36,29.57 -3.34,3.24 -6.03,5.86 -8.13,7.9 -1.81,1.71 -2.83,2.6 -2.98,2.6 -0.01,0 -0.01,0 -0.01,0 -0.08,-0.08 0.79,-1.13 2.53,-3.06 1.98,-2.14 4.53,-4.9 7.69,-8.31 7.04,-7.44 16.75,-17.7 28.63,-30.27 24.2,-25.53 57.53,-60.89 93.92,-100.35 17.18,-18.65 33.51,-36.53 48.43,-52.98 -3.62,-3.12 -7.23,-6.28 -10.79,-9.45 m 39.85,33.49 c -52.94,72.9 -104.12,143.27 -153.12,210.56 l 176.98,-192.26 c -8.07,-5.99 -16.02,-12.08 -23.86,-18.3" /><path
         id="path194"
         style="fill:#eeeeec;fill-opacity:1;fill-rule:nonzero;stroke:none"
         d="m 1730.23,3348.7 c -65.67,88.94 -128.47,174.12 -187.74,254.68 2.18,1.28 4.38,2.53 6.6,3.74 0.01,0.01 0.03,0.02 0.04,0.03 l 37.24,-40.45 c 49,-67.29 100.18,-137.66 153.12,-210.56 -3.1,-2.46 -6.19,-4.94 -9.26,-7.44" /><path
         id="path196"
         style="fill:#f57e87;fill-opacity:1;fill-rule:nonzero;stroke:none"
         d="m 1859.07,3149.07 -15.6,16.99 c 3.95,3.14 7.19,6.43 10.21,9.19 3.48,3.09 6.2,6.04 8.34,8.53 4.35,4.88 6.67,7.64 6.51,7.79 -0.01,0.01 -0.03,0.01 -0.05,0.01 -0.9,0 -9.65,-10.43 -26.56,-23.83 l -142.28,154.9 c 3.56,3.17 7.17,6.33 10.79,9.45 16.66,-18.37 31.57,-34.94 43.96,-48.76 11.56,-12.86 21,-23.37 27.85,-30.98 3.14,-3.43 5.68,-6.2 7.66,-8.35 1.72,-1.82 2.68,-2.78 2.82,-2.78 0.01,0 0.01,0.01 0.02,0.01 0.08,0.07 -0.73,1.17 -2.35,3.19 -1.87,2.26 -4.26,5.16 -7.21,8.74 -6.31,7.56 -15.56,18.38 -27.09,31.67 -12.16,14.01 -26.87,30.73 -43.41,49.2 5.78,4.95 11.63,9.84 17.55,14.66 3.07,2.5 6.16,4.98 9.26,7.44 7.84,6.22 15.79,12.31 23.86,18.3 l 152.61,-165.77 c 0,0 -23.85,-33.37 -48.39,-53.3 -2.61,-2.02 -5.26,-4 -7.96,-5.94 -0.18,-0.12 -0.36,-0.24 -0.54,-0.36" /><path
         id="path198"
         style="fill:#57666b;fill-opacity:1;fill-rule:nonzero;stroke:none"
         d="m 1499.7,3572.59 c 11.54,10.79 28.88,24.85 49.39,34.53 -2.22,-1.21 -4.42,-2.46 -6.6,-3.74 -15.32,-8.96 -29.63,-19.27 -42.79,-30.79" /><path
         id="path200"
         style="fill:#6a858c;fill-opacity:1;fill-rule:nonzero;stroke:none"
         d="m 1859.61,3149.43 c 2.7,1.94 5.35,3.92 7.96,5.94 -2.65,-2.16 -5.32,-4.16 -7.96,-5.94 m -375.06,407.49 c 0.11,0.13 0.47,0.55 1.05,1.22 -0.35,-0.41 -0.7,-0.81 -1.05,-1.22" /><path
         id="path202"
         style="fill:#ffffff;fill-opacity:1;fill-rule:nonzero;stroke:none"
         d="m 1843.47,3166.06 -1.55,1.69 c 16.91,13.4 25.66,23.83 26.56,23.83 0.02,0 0.04,0 0.05,-0.01 0.16,-0.15 -2.16,-2.91 -6.51,-7.79 -2.14,-2.49 -4.86,-5.44 -8.34,-8.53 -3.02,-2.76 -6.26,-6.05 -10.21,-9.19" /><path
         id="path204"
         style="fill:#ffffff;fill-opacity:1;fill-rule:nonzero;stroke:none"
         d="m 1792.72,3241.23 c -0.14,0 -1.1,0.96 -2.82,2.78 -1.98,2.15 -4.52,4.92 -7.66,8.35 -6.85,7.61 -16.29,18.12 -27.85,30.98 -12.39,13.82 -27.3,30.39 -43.96,48.76 -14.92,16.45 -31.25,34.33 -48.43,52.98 -36.39,39.46 -69.72,74.82 -93.92,100.35 -11.88,12.57 -21.59,22.83 -28.63,30.27 -3.16,3.41 -5.71,6.17 -7.69,8.31 -1.74,1.93 -2.61,2.98 -2.53,3.06 0,0 0,0 0.01,0 0.15,0 1.17,-0.89 2.98,-2.6 2.1,-2.04 4.79,-4.66 8.13,-7.9 7.01,-6.9 17.05,-17 29.36,-29.57 24.62,-25.13 58.23,-60.27 94.64,-99.75 17.21,-18.67 33.5,-36.64 48.33,-53.21 16.54,-18.47 31.25,-35.19 43.41,-49.2 11.53,-13.29 20.78,-24.11 27.09,-31.67 2.95,-3.58 5.34,-6.48 7.21,-8.74 1.62,-2.02 2.43,-3.12 2.35,-3.19 -0.01,0 -0.01,-0.01 -0.02,-0.01" /><path
         id="path206"
         style="fill:#f57e87;fill-opacity:1;fill-rule:nonzero;stroke:none"
         d="m 1792.25,3114.57 -13.71,14.77 c 7.33,2.67 14.31,5.63 20.89,8.74 l 14.32,-15.41 c -4.8,-2.23 -9.65,-4.32 -14.54,-6.26 -2.03,-0.57 -4.34,-1.18 -6.96,-1.84" /><path
         id="path208"
         style="fill:#ffffff;fill-opacity:1;fill-rule:nonzero;stroke:none"
         d="m 1646.68,3271.45 -203.9,219.75 c 0,0 0,0.01 0,0.02 2.86,6.29 5.93,12.45 9.22,18.47 0.31,0.4 0.63,0.81 0.97,1.22 l 208.47,-224.33 c -4.98,-4.99 -9.91,-10.03 -14.76,-15.13" /><path
         id="path210"
         style="fill:#f57e87;fill-opacity:1;fill-rule:nonzero;stroke:none"
         d="m 1776.2,3131.86 -129.52,139.59 c 4.85,5.1 9.78,10.14 14.76,15.13 l 135.82,-146.16 c -6.65,-3.05 -13.69,-5.94 -21.06,-8.56" /><path
         id="path212"
         style="fill:#6a858c;fill-opacity:1;fill-rule:nonzero;stroke:none"
         d="m 1799.21,3116.41 c 4.89,1.94 9.74,4.03 14.54,6.26 v 0 c 0,0 2.68,-1.46 -14.54,-6.26 m -356.43,374.81 c 0.08,0.42 1.87,8.93 9.22,18.47 -3.29,-6.02 -6.36,-12.18 -9.22,-18.47" /><path
         id="path214"
         style="fill:#ffffff;fill-opacity:1;fill-rule:nonzero;stroke:none"
         d="m 1778.54,3129.34 -2.34,2.52 c 7.37,2.62 14.41,5.51 21.06,8.56 l 2.17,-2.34 c -6.58,-3.11 -13.56,-6.07 -20.89,-8.74" /><path
         id="path216"
         style="fill:#f9a78d;fill-opacity:1;fill-rule:nonzero;stroke:none"
         d="m 2402.68,2870.35 c -77.05,61.88 -265.91,213.23 -274.54,217.27 -10.86,5.08 -177.07,64.13 -208.9,45.16 -31.84,-18.98 -117.21,-126.12 -117.21,-126.12 0,0 8.11,-66.64 82.57,-18.95 56.81,36.38 65.62,42.02 66.61,42.66 l -0.11,-0.07 79.15,-18.49 c 0,0 -96.54,-40.32 -116.96,-61.52 -20.42,-21.2 -52.71,-102.37 -32.57,-121.06 20.14,-18.69 43.53,-20.29 43.53,-20.29 0,0 -39.86,-56.6 30.84,-90.77 0,0 10.32,-47.58 45.19,-66.22 34.88,-18.65 99.84,-12.05 99.84,-12.05 0,0 30.13,17.82 7.75,47.36 -22.38,29.54 -63.66,33.62 -63.66,33.62 l 51.17,29.85 c 0,0 26.62,-8.15 66.06,-38.61 0,0 46.72,59.81 93.37,93.61 52.36,37.95 147.87,64.62 147.87,64.62" /><path
         id="path218"
         style="fill:#f57f62;fill-opacity:1;fill-rule:nonzero;stroke:none"
         d="m 2075.1,2845.21 c -0.02,0.23 -2.73,0.19 -7.59,-0.44 -4.86,-0.62 -11.85,-2.02 -20.22,-4.69 -16.67,-5.22 -39.03,-16.78 -57.36,-36.71 -18.34,-19.95 -27.99,-43.2 -31.8,-60.25 -1.96,-8.56 -2.77,-15.64 -2.98,-20.53 -0.22,-4.9 -0.04,-7.61 0.19,-7.61 0.72,-0.06 0.87,10.81 5.39,27.49 4.39,16.57 14.17,38.97 31.98,58.33 17.81,19.36 39.31,30.98 55.45,36.75 16.24,5.9 27.06,6.96 26.94,7.66" /><path
         id="path220"
         style="fill:#f57f62;fill-opacity:1;fill-rule:nonzero;stroke:none"
         d="m 2078.51,2931.35 c -0.03,0.26 -2.91,0.04 -8.12,-0.58 -2.61,-0.27 -5.79,-0.7 -9.42,-1.54 -3.64,-0.8 -7.84,-1.5 -12.32,-2.93 -9.08,-2.4 -19.6,-6.32 -30.85,-11.62 -11.15,-5.51 -22.96,-12.51 -34.39,-21.21 -11.34,-8.84 -21.13,-18.47 -29.3,-27.84 -8,-9.53 -14.48,-18.7 -19.12,-26.87 -2.52,-3.96 -4.27,-7.85 -5.97,-11.16 -1.74,-3.3 -2.97,-6.26 -3.9,-8.72 -1.93,-4.87 -2.87,-7.6 -2.63,-7.7 0.69,-0.3 4.93,10.5 14.79,26.19 4.86,7.88 11.46,16.74 19.46,25.97 8.17,9.08 17.85,18.45 28.97,27.13 11.23,8.54 24.15,18.15 35.01,23.74 10.97,5.37 19.83,6.84 28.69,9.53 17.69,5.53 29.21,6.86 29.1,7.61" /><path
         id="path222"
         style="fill:#f57f62;fill-opacity:1;fill-rule:nonzero;stroke:none"
         d="m 2092.96,3030.27 c 0.11,0.41 -3.89,1.95 -10.75,2.41 -6.82,0.49 -16.51,-0.58 -26.23,-4.68 -13.15,-5.62 -17.78,-11.11 -21.58,-15.63 -4.43,-5.25 -6.09,-9.2 -5.72,-9.41 0.88,-0.79 10.06,13.83 28.78,21.56 18.55,8.11 35.46,4.57 35.5,5.75" /><path
         id="path224"
         style="fill:#33535f;fill-opacity:1;fill-rule:nonzero;stroke:none"
         d="m 2980.06,3343.65 c 0,0 243.91,-23.4 321.33,-235.3 61.45,-168.19 94.85,-672.06 79.45,-682.33 l -430.62,13.78 c -5.66,122.87 -38.75,217.6 -85.13,278.9 l 114.97,624.95" /><path
         id="path226"
         style="fill:#f57f62;fill-opacity:1;fill-rule:nonzero;stroke:none"
         d="m 2956.81,2439.79 c 0.21,0.3 3.2,-1.39 8.45,-4.7 5.28,-3.29 12.69,-8.38 21.62,-14.98 17.9,-13.14 41.6,-32.8 65.53,-56.85 23.96,-24.03 43.59,-47.71 57.05,-65.35 6.72,-8.83 11.98,-16.11 15.42,-21.28 3.46,-5.15 5.24,-8.09 4.95,-8.31 -0.64,-0.47 -9.13,10.29 -23.25,27.3 -14.14,16.98 -34.07,40.11 -57.86,63.96 -23.75,23.87 -46.86,43.8 -64.09,57.62 -17.21,13.84 -28.28,21.92 -27.82,22.59" /><path
         id="path228"
         style="fill:#17282f;fill-opacity:1;fill-rule:nonzero;stroke:none"
         d="m 2905.52,2958.09 c 1.42,-0.24 -6.48,-54.02 -17.65,-120.12 -11.17,-66.12 -21.37,-119.51 -22.78,-119.27 -1.42,0.24 6.48,54.01 17.65,120.13 11.16,66.1 21.37,119.5 22.78,119.26" /><path
         id="path230"
         style="fill:#17282f;fill-opacity:1;fill-rule:nonzero;stroke:none"
         d="m 2363.57,1447.06 c -0.01,0.18 2.45,0.55 7.16,1.08 5.22,0.53 12.06,1.22 20.58,2.08 18.48,1.75 44.2,4.18 75.74,7.17 63.94,6.13 152.19,15.35 249.4,27.63 97.25,12.32 185.02,25.37 248.47,35.34 31.29,4.97 56.81,9.02 75.13,11.92 8.48,1.29 15.27,2.33 20.46,3.11 4.68,0.66 7.16,0.92 7.19,0.74 0.03,-0.18 -2.38,-0.78 -7.01,-1.77 -5.14,-1.03 -11.88,-2.39 -20.29,-4.07 -17.63,-3.46 -43.21,-8.11 -74.88,-13.56 -63.33,-10.91 -151.09,-24.55 -248.41,-36.88 -97.3,-12.28 -185.68,-20.93 -249.73,-26.13 -32.03,-2.61 -57.97,-4.48 -75.91,-5.52 -8.56,-0.46 -15.43,-0.82 -20.66,-1.1 -4.73,-0.2 -7.22,-0.22 -7.24,-0.04" /><path
         id="path232"
         style="fill:#17282f;fill-opacity:1;fill-rule:nonzero;stroke:none"
         d="m 2325.5,1511.43 c -0.01,0.36 6.31,0.92 17.75,1.61 12.29,0.65 28.64,1.52 48.45,2.58 41.7,2.14 97.8,5.01 159.81,8.19 62,3.59 118.09,6.84 159.78,9.26 19.8,1.11 36.15,2.03 48.44,2.72 11.44,0.56 17.78,0.7 17.81,0.34 0.03,-0.36 -6.26,-1.18 -17.66,-2.36 -11.4,-1.19 -27.91,-2.69 -48.33,-4.37 -40.84,-3.38 -97.31,-7.38 -159.76,-10.79 -62.42,-3.4 -118.99,-5.58 -159.95,-6.67 -20.48,-0.55 -37.06,-0.86 -48.52,-0.93 -11.46,-0.07 -17.8,0.06 -17.82,0.42" /><path
         id="path234"
         style="fill:#f9a78d;fill-opacity:1;fill-rule:nonzero;stroke:none"
         d="m 1639.66,2423.2 c 1.58,6.13 4.16,11.89 7.79,17.1 7.2,10.33 18.11,18.2 30.45,21.02 20.52,4.68 43.52,-4.93 54.61,-22.82 -0.74,13.64 10.03,26.35 23.21,29.95 13.17,3.6 23.39,-1.48 33.9,-10.2 10.52,-8.72 13.2,-15.66 17.47,-28.64 10.5,23.57 64.43,20.68 70.99,3 0,0 46.41,50.8 70.15,25.82 9.86,-10.38 5.63,-26.3 -0.9,-42.24 -8.72,-21.29 -14.46,-30.17 -25.86,-53.62 l -43.93,-2.39 c -3.71,-13.75 -11.5,-69.66 -13.14,-83.81 -1.65,-14.14 -4.48,-28.54 -12,-40.63 -7.52,-12.09 -20.59,-21.55 -34.83,-21.36 -14.24,0.2 -28.26,12.41 -27.42,26.62 -2.99,-11.74 -7.99,-23.33 -16.65,-31.82 -8.67,-8.48 -21.49,-13.37 -33.22,-10.31 -11.73,3.06 -21.03,15.33 -18.65,27.22 -15.67,-10.85 -38.81,-1.21 -48.75,15.04 -9.95,16.25 -10.19,36.45 -9.58,55.5 0.54,16.88 2.07,35.82 -4.58,51.8 -1.05,2.52 -2.86,4.7 -3.46,7.38 -0.9,3.98 -0.3,8.48 -0.58,12.54 -0.62,8.85 -2.25,17.67 -5.29,26.02 -0.67,1.83 -1.4,3.64 -2.21,5.42 -2.13,4.73 -5.27,8.73 -7.68,13.25 -0.53,1 -0.99,1.98 -1.11,3.11 -0.26,2.29 0.7,4.86 1.27,7.05" /><path
         id="path236"
         style="fill:#f9a78d;fill-opacity:1;fill-rule:nonzero;stroke:none"
         d="m 1590.23,2447.59 c -11.74,0.42 -24.53,-2.01 -32.37,-10.76 -9.29,-10.38 -11.43,-35.22 -10.37,-49.11 16.28,-3.08 24.96,0.55 41.24,-2.52 3.43,-0.65 6.3,0.21 9.15,-1.81 7.5,-5.33 6.29,-23.29 9.31,-31.99 5.24,-15.09 24.57,-22.46 39.55,-16.91 14.97,5.54 24.62,21.48 25.38,37.43 0.76,15.96 -6.27,31.56 -16.54,43.79 -16.06,19.11 -40.41,30.99 -65.35,31.88" /><path
         id="path238"
         style="fill:#f57f62;fill-opacity:1;fill-rule:nonzero;stroke:none"
         d="m 1867.48,2299.69 c -1.65,0.35 5.05,30.14 9.28,67.21 2.04,18.55 2.51,35.41 1.78,47.57 -0.63,12.16 -2.06,19.63 -1.26,19.83 0.59,0.17 3.32,-7.12 4.93,-19.5 1.7,-12.35 1.8,-29.65 -0.27,-48.45 -2.03,-18.82 -5.55,-35.56 -8.45,-47.56 -2.94,-11.99 -5.33,-19.26 -6.01,-19.1" /><path
         id="path240"
         style="fill:#f57f62;fill-opacity:1;fill-rule:nonzero;stroke:none"
         d="m 1788.2,2235.68 c -0.73,0.16 1.15,10.99 4.35,28.4 3.17,17.42 7.63,41.46 11.02,68.18 3.38,26.73 4.58,51.09 4.22,68.71 -0.26,17.63 -1.54,28.52 -0.7,28.64 0.58,0.11 3.17,-10.67 4.38,-28.49 1.31,-17.79 0.68,-42.54 -2.74,-69.5 -3.41,-26.96 -8.47,-51.02 -12.58,-68.29 -4.13,-17.28 -7.28,-27.8 -7.95,-27.65" /><path
         id="path242"
         style="fill:#f57f62;fill-opacity:1;fill-rule:nonzero;stroke:none"
         d="m 1721.12,2224.25 c -0.78,0.21 1.99,12.17 5.49,31.62 3.52,19.44 7.4,46.47 9.06,76.54 1.62,30.09 0.71,57.38 -0.68,77.09 -1.37,19.72 -2.82,31.9 -2.02,32.02 0.36,0.06 1.12,-2.93 2.2,-8.39 1.12,-5.45 2.33,-13.41 3.49,-23.29 2.33,-19.76 3.85,-47.33 2.21,-77.71 -1.68,-30.37 -6.18,-57.61 -10.65,-76.99 -2.22,-9.7 -4.3,-17.48 -6,-22.78 -1.67,-5.31 -2.75,-8.2 -3.1,-8.11" /><path
         id="path244"
         style="fill:#f57f62;fill-opacity:1;fill-rule:nonzero;stroke:none"
         d="m 1632.68,2420.08 c 0.23,0.53 6.02,-1.15 13.7,-6.92 7.63,-5.68 16.84,-15.92 22.24,-29.69 5.39,-13.75 5.8,-27.67 2.95,-37.07 -2.91,-9.67 -8.98,-13.02 -9.18,-12.41 -0.59,0.58 3.94,4.52 5.61,13.31 1.7,8.63 0.78,21.52 -4.23,34.26 -5.02,12.8 -13.09,22.67 -19.76,28.77 -6.66,6.18 -11.73,8.99 -11.33,9.75" /></g></g></svg>