<?xml version="1.0" encoding="UTF-8" standalone="no"?>
<!-- Created with Inkscape (http://www.inkscape.org/) -->

<svg
   version="1.1"
   id="svg2"
   width="630.22668"
   height="584.34668"
   viewBox="0 0 630.22668 584.34668"
   sodipodi:docname="7720440.eps"
   xmlns:inkscape="http://www.inkscape.org/namespaces/inkscape"
   xmlns:sodipodi="http://sodipodi.sourceforge.net/DTD/sodipodi-0.dtd"
   xmlns="http://www.w3.org/2000/svg"
   xmlns:svg="http://www.w3.org/2000/svg">
  <defs
     id="defs6" />
  <sodipodi:namedview
     id="namedview4"
     pagecolor="#ffffff"
     bordercolor="#000000"
     borderopacity="0.25"
     inkscape:showpageshadow="2"
     inkscape:pageopacity="0.0"
     inkscape:pagecheckerboard="0"
     inkscape:deskcolor="#d1d1d1" />
  <g
     id="g8"
     inkscape:groupmode="layer"
     inkscape:label="ink_ext_XXXXXX"
     transform="matrix(1.3333333,0,0,-1.3333333,0,584.34667)">
    <g
       id="g10"
       transform="scale(0.1)">
      <path
         d="m 2430.35,4356.47 c -56.29,26.58 -118.87,29.58 -158.66,23.52 -37.27,-5.67 -91.22,-19.89 -136.6,-55.44 -28.18,-22.08 -49.16,-49.59 -62.36,-81.74 -15.64,-38.09 -20.41,-83.01 -14.17,-133.49 0.93,-7.57 4.81,-14.29 10.9,-18.91 6.13,-4.64 13.69,-6.56 21.28,-5.41 l 97.72,14.87 c 13.79,2.1 24.08,14.19 23.93,28.13 -0.33,31.3 10.01,85.66 82.94,98.05 55.59,9.41 84.68,-27.41 94.63,-43.68 16.18,-26.48 18.27,-60.49 5.59,-90.97 -19.48,-46.83 -66.31,-60.67 -92.5,-64.75 -30.11,-4.7 -50.9,-32.88 -46.34,-62.84 l 16,-105.15 c 2.33,-15.35 16.73,-25.95 32.08,-23.61 l 95.21,14.49 c 15.36,2.34 25.95,16.73 23.61,32.08 l -3.36,22.09 0.67,1.3 c 20.41,10.85 59.43,35.49 91.39,78.66 40.8,55.11 55.79,120.5 44.55,194.36 -16.08,105.71 -77.67,155.38 -126.51,178.44"
         style="fill:#e7e8e5;fill-opacity:1;fill-rule:nonzero;stroke:none"
         id="path12" />
      <path
         d="m 2361.16,3816.55 -8.33,-1.27 c -39.81,-6.06 -67.28,-43.38 -61.22,-83.2 6.06,-39.82 43.38,-67.28 83.2,-61.22 l 8.33,1.26 c 39.81,6.06 67.28,43.38 61.22,83.2 -6.06,39.82 -43.38,67.28 -83.2,61.23"
         style="fill:#e7e8e5;fill-opacity:1;fill-rule:nonzero;stroke:none"
         id="path14" />
      <path
         d="m 469.188,2659.05 c -28.282,35.37 -68.211,57.34 -96.149,66.11 -26.168,8.21 -65.965,16.17 -106.988,7.45 -25.477,-5.41 -47.981,-16.67 -66.891,-33.46 -22.398,-19.89 -39.875,-47.71 -51.945,-82.7 -1.813,-5.24 -1.43,-10.87 1.078,-15.84 2.516,-4.99 6.844,-8.66 12.176,-10.34 l 68.605,-21.53 c 9.68,-3.04 20.27,1.57 24.629,10.72 9.793,20.56 33.934,52.78 85.555,37.55 39.332,-11.63 46.566,-44.99 47.859,-58.8 2.106,-22.48 -7.402,-45.37 -25.433,-61.24 -27.707,-24.36 -62.735,-18.43 -81.149,-12.72 -21.176,6.56 -43.777,-5.21 -50.375,-26.24 l -23.176,-73.82 c -3.382,-10.78 2.633,-22.31 13.414,-25.69 l 66.844,-20.98 c 10.781,-3.39 22.305,2.63 25.692,13.41 l 4.867,15.51 0.847,0.64 c 16.813,0.56 50.192,4.18 84.875,22.17 44.282,22.96 74.989,60.89 91.266,112.75 23.293,74.21 -1.066,126.36 -25.601,157.05"
         style="fill:#e7e8e5;fill-opacity:1;fill-rule:nonzero;stroke:none"
         id="path16" />
      <path
         d="m 251.316,2328.38 -5.847,1.83 c -27.953,8.78 -57.836,-6.82 -66.614,-34.78 -8.773,-27.95 6.833,-57.84 34.786,-66.61 l 5.847,-1.84 c 27.953,-8.77 57.836,6.83 66.614,34.79 8.773,27.95 -6.832,57.83 -34.786,66.61"
         style="fill:#e7e8e5;fill-opacity:1;fill-rule:nonzero;stroke:none"
         id="path18" />
      <path
         d="m 3432.96,263.07 c 243.39,10.571 552.13,88.289 740.95,247.102 -260.62,-6.742 -524.16,-94.633 -740.95,-247.102"
         style="fill:#e7e8e5;fill-opacity:1;fill-rule:nonzero;stroke:none"
         id="path20" />
      <path
         d="m 3602.28,550.91 c 243.39,10.578 552.13,88.289 740.95,247.11 -260.61,-6.739 -524.16,-94.641 -740.95,-247.11"
         style="fill:#e7e8e5;fill-opacity:1;fill-rule:nonzero;stroke:none"
         id="path22" />
      <path
         d="m 3784.3,825.09 c 243.39,10.578 552.13,88.289 740.95,247.11 -260.61,-6.74 -524.16,-94.641 -740.95,-247.11"
         style="fill:#e7e8e5;fill-opacity:1;fill-rule:nonzero;stroke:none"
         id="path24" />
      <path
         d="m 3987.42,1107.91 c 242.11,40.35 540.55,154.72 708.02,334.03 -259.86,-38.7 -511.7,-157.51 -708.02,-334.03"
         style="fill:#e7e8e5;fill-opacity:1;fill-rule:nonzero;stroke:none"
         id="path26" />
      <path
         d="m 4165.97,1316.59 c 214.97,123.03 454.55,332.93 543.74,554.49 -232.55,-127.9 -425.95,-325.12 -543.74,-554.49"
         style="fill:#e7e8e5;fill-opacity:1;fill-rule:nonzero;stroke:none"
         id="path28" />
      <path
         d="m 4079.42,1217.94 c 66.2,241.45 86.76,566.05 -10.39,796.25 -75.4,-257.24 -71.71,-540.45 10.39,-796.25"
         style="fill:#e7e8e5;fill-opacity:1;fill-rule:nonzero;stroke:none"
         id="path30" />
      <path
         d="m 3907.19,987.238 c 46.92,256.102 38.57,595.052 -83.99,826.722 -55.07,-273.23 -25.2,-567.28 83.99,-826.722"
         style="fill:#e7e8e5;fill-opacity:1;fill-rule:nonzero;stroke:none"
         id="path32" />
      <path
         d="m 3701.95,704.281 c 46.92,256.098 38.57,595.049 -83.99,826.719 -55.07,-273.23 -25.2,-567.281 83.99,-826.719"
         style="fill:#e7e8e5;fill-opacity:1;fill-rule:nonzero;stroke:none"
         id="path34" />
      <path
         d="m 3483.17,345.781 c 46.92,256.098 38.57,595.051 -83.99,826.719 -55.07,-273.23 -25.2,-567.281 83.99,-826.719"
         style="fill:#e7e8e5;fill-opacity:1;fill-rule:nonzero;stroke:none"
         id="path36" />
      <path
         d="M 3399.79,213.379 C 3364.54,148.289 3336.91,95.1211 3318.64,57.9805 3309.78,39.9492 3302.77,25.6719 3297.63,15.1992 3295.52,10.6797 3293.8,7 3292.38,3.96875 3291.24,1.41016 3290.73,0.0703125 3290.87,0 c 0.14,-0.0703125 0.94,1.12891 2.35,3.53906 1.64,2.92188 3.63,6.47264 6.07,10.82034 5.52,10.2695 13.04,24.2812 22.54,41.9804 19.24,36.6094 47.73,89.2692 83.67,153.8982 35.77,64.742 79.97,140.922 130.27,224.782 50.74,83.582 107.97,174.609 170.4,268.64 125.12,187.809 247.54,351.56 338.94,467.84 45.69,58.16 83.17,104.85 109.44,136.81 12.62,15.63 22.61,28 29.94,37.08 3.06,3.93 5.56,7.15 7.61,9.79 1.67,2.24 2.47,3.44 2.35,3.54 -0.12,0.11 -1.16,-0.89 -3.07,-2.93 -2.24,-2.48 -4.97,-5.5 -8.31,-9.2 -7.66,-8.81 -18.09,-20.82 -31.27,-35.98 -27.14,-31.26 -65.41,-77.36 -111.8,-135.05 -92.8,-115.35 -216.22,-278.72 -341.51,-466.79"
         style="fill:#dadbd8;fill-opacity:1;fill-rule:nonzero;stroke:none"
         id="path38" />
      <path
         d="m 2979.75,1896.98 c 88.83,219.3 144.7,523.43 80.55,754.32 -99.17,-232.98 -127.82,-501.28 -80.55,-754.32"
         style="fill:#e7e8e5;fill-opacity:1;fill-rule:nonzero;stroke:none"
         id="path40" />
      <path
         d="m 2793.73,2162.69 c 88.83,219.3 144.7,523.43 80.55,754.31 -99.17,-232.97 -127.82,-501.27 -80.55,-754.31"
         style="fill:#e7e8e5;fill-opacity:1;fill-rule:nonzero;stroke:none"
         id="path42" />
      <path
         d="m 2624.91,2434.1 c 88.83,219.3 144.7,523.43 80.55,754.32 -99.17,-232.98 -127.82,-501.28 -80.55,-754.32"
         style="fill:#e7e8e5;fill-opacity:1;fill-rule:nonzero;stroke:none"
         id="path44" />
      <path
         d="m 2456.96,2727.64 c 62.01,230.19 81.34,540 -9.53,760.3 -70.63,-245.21 -67.24,-515.64 9.53,-760.3"
         style="fill:#e7e8e5;fill-opacity:1;fill-rule:nonzero;stroke:none"
         id="path46" />
      <path
         d="m 2344.61,2969.57 c -21.99,239.56 -110.81,535.9 -270.58,704.07 19.19,-257.05 115.43,-507.48 270.58,-704.07"
         style="fill:#e7e8e5;fill-opacity:1;fill-rule:nonzero;stroke:none"
         id="path48" />
      <path
         d="m 2396.85,2853.31 c -186.62,155.88 -465.12,304.98 -707.7,312 196.86,-170.38 448.58,-281.36 707.7,-312"
         style="fill:#e7e8e5;fill-opacity:1;fill-rule:nonzero;stroke:none"
         id="path50" />
      <path
         d="m 2531.22,2608.08 c -207.35,144.75 -510.19,274.1 -764.31,259.26 219.18,-158.87 491.04,-251.09 764.31,-259.26"
         style="fill:#e7e8e5;fill-opacity:1;fill-rule:nonzero;stroke:none"
         id="path52" />
      <path
         d="m 2698.43,2312.61 c -207.34,144.75 -510.19,274.1 -764.31,259.26 219.19,-158.87 491.04,-251.09 764.31,-259.26"
         style="fill:#e7e8e5;fill-opacity:1;fill-rule:nonzero;stroke:none"
         id="path54" />
      <path
         d="m 2926.93,1974.7 c -207.35,144.75 -510.19,274.1 -764.31,259.27 219.18,-158.88 491.04,-251.1 764.31,-259.27"
         style="fill:#e7e8e5;fill-opacity:1;fill-rule:nonzero;stroke:none"
         id="path56" />
      <path
         d="m 3010.27,1847.62 c 43.29,-57.4 79.12,-103.25 104.57,-134.38 12.36,-15.09 22.14,-27.05 29.33,-35.82 3.13,-3.68 5.69,-6.69 7.8,-9.17 1.79,-2.03 2.78,-3.03 2.9,-2.93 0.12,0.1 -0.62,1.28 -2.19,3.5 -1.91,2.63 -4.25,5.82 -7.1,9.73 -6.86,9.02 -16.2,21.32 -28,36.85 -24.59,31.77 -59.63,78.18 -102.23,136.01 -42.77,57.71 -92.25,127.49 -146.05,205.75 -53.39,78.55 -110.73,165.84 -168.62,258.92 -115.47,186.31 -210.77,360.52 -276.64,488.18 -32.95,63.83 -59.09,115.77 -76.72,151.88 -8.72,17.45 -15.62,31.27 -20.69,41.41 -2.24,4.29 -4.08,7.79 -5.58,10.67 -1.31,2.38 -2.04,3.57 -2.18,3.51 -0.14,-0.07 0.32,-1.39 1.35,-3.9 1.29,-2.98 2.86,-6.61 4.78,-11.05 4.69,-10.32 11.09,-24.39 19.17,-42.15 16.68,-36.58 41.97,-88.99 74.23,-153.25 64.48,-128.51 159.04,-303.46 274.67,-490.02 l 317.2,-463.74"
         style="fill:#dadbd8;fill-opacity:1;fill-rule:nonzero;stroke:none"
         id="path58" />
      <path
         d="m 4674.04,2755.51 c -40.97,48.69 -97.82,78.16 -137.37,89.5 -37.04,10.62 -93.23,20.41 -150.54,6.73 -35.6,-8.5 -66.82,-25.1 -92.79,-49.35 -30.77,-28.72 -54.34,-68.41 -70.07,-117.97 -2.37,-7.43 -1.63,-15.32 2.06,-22.21 3.71,-6.93 9.92,-11.93 17.47,-14.1 l 97.12,-27.85 c 13.7,-3.93 28.41,2.92 34.22,15.92 13.04,29.23 45.82,75.32 118.86,55.73 55.66,-14.95 66.99,-61.55 69.29,-80.92 3.74,-31.5 -8.82,-63.99 -33.59,-86.9 -38.06,-35.19 -87.48,-28.08 -113.54,-20.71 -29.98,8.47 -61.31,-8.85 -69.84,-38.62 l -29.97,-104.5 c -4.38,-15.27 4.48,-31.24 19.74,-35.62 l 94.62,-27.13 c 15.26,-4.38 31.24,4.47 35.62,19.74 l 6.29,21.95 1.18,0.92 c 23.59,1.38 70.35,7.64 118.44,34.11 61.4,33.8 103.2,88.17 124.25,161.58 30.13,105.05 -5.91,177.46 -41.45,219.7"
         style="fill:#e7e8e5;fill-opacity:1;fill-rule:nonzero;stroke:none"
         id="path60" />
      <path
         d="m 4379.57,2283.41 -8.28,2.38 c -39.57,11.35 -81,-11.62 -92.35,-51.19 -11.35,-39.58 11.61,-81 51.19,-92.35 l 8.28,-2.38 c 39.57,-11.35 81,11.62 92.35,51.19 11.35,39.58 -11.62,81.01 -51.19,92.35"
         style="fill:#e7e8e5;fill-opacity:1;fill-rule:nonzero;stroke:none"
         id="path62" />
      <path
         d="m 1469.27,1900.4 c -47.17,35.29 -104.62,49.91 -142.66,51.82 -35.63,1.8 -88.34,-1.18 -137.14,-25.56 -30.31,-15.14 -54.97,-36.67 -73.29,-63.99 -21.7,-32.36 -34.62,-73.1 -38.39,-121.09 -0.56,-7.2 1.76,-14.16 6.54,-19.6 4.8,-5.46 11.44,-8.67 18.71,-9.03 l 93.41,-4.7 c 13.18,-0.67 25.01,8.6 27.51,21.54 5.61,29.09 25.48,77.54 95.45,75.23 53.32,-1.79 73.33,-41.43 79.47,-58.4 9.99,-27.62 5.5,-59.54 -12.02,-85.41 -26.92,-39.73 -72.96,-43.7 -98.01,-42.53 -28.81,1.34 -53.42,-20.86 -54.86,-49.5 l -5.06,-100.51 c -0.74,-14.68 10.61,-27.23 25.28,-27.97 l 91.02,-4.58 c 14.68,-0.73 27.22,10.61 27.96,25.29 l 1.06,21.12 0.87,1.07 c 20.98,6.2 61.82,21.67 99.62,55.65 48.25,43.37 74.52,101.17 78.07,171.77 5.08,101.05 -42.63,158.76 -83.54,189.38"
         style="fill:#e7e8e5;fill-opacity:1;fill-rule:nonzero;stroke:none"
         id="path64" />
      <path
         d="m 1302.98,1412.88 -7.96,0.4 c -38.06,1.92 -70.59,-27.49 -72.51,-65.56 -1.91,-38.06 27.5,-70.59 65.56,-72.5 l 7.96,-0.4 c 38.07,-1.92 70.59,27.49 72.51,65.56 1.91,38.06 -27.5,70.59 -65.56,72.5"
         style="fill:#e7e8e5;fill-opacity:1;fill-rule:nonzero;stroke:none"
         id="path66" />
      <path
         d="m 983.57,120.09 h 86.41 C 1120.83,301.289 1145.3,502.93 1112,671.5 1034,502.512 990.301,312.148 983.57,120.09"
         style="fill:#e7e8e5;fill-opacity:1;fill-rule:nonzero;stroke:none"
         id="path68" />
      <path
         d="M 967.199,960.961 C 860.953,730.801 818.125,461.031 846.152,201.238 c 0.965,-2.027 1.942,-4.09 2.911,-6.129 96.082,219.563 165.487,526.141 118.136,765.852"
         style="fill:#e7e8e5;fill-opacity:1;fill-rule:nonzero;stroke:none"
         id="path70" />
      <path
         d="m 739.23,1284.86 c -77.867,-237.3 -92.281,-502.579 -41.546,-749.79 3.129,-7.5 6.343,-15.172 9.597,-22.898 70.305,231.797 104.653,543.668 31.949,772.688"
         style="fill:#e7e8e5;fill-opacity:1;fill-rule:nonzero;stroke:none"
         id="path72" />
      <path
         d="m 590.676,799.371 c -0.84,2.649 -1.199,4.027 -1.063,4.09 0.137,0.051 0.77,-1.211 1.871,-3.742 1.262,-3.047 2.809,-6.77 4.692,-11.321 1.515,-3.847 3.301,-8.378 5.211,-13.226 3.437,-5.531 6.742,-11.184 10.258,-16.641 -7.086,247.569 -74.426,557.649 -216.579,740.439 3.293,-254.81 74.606,-507.63 200.762,-714.771 -0.41,1.153 -0.867,2.442 -1.246,3.512 -1.57,4.687 -2.855,8.508 -3.906,11.66"
         style="fill:#e7e8e5;fill-opacity:1;fill-rule:nonzero;stroke:none"
         id="path74" />
      <path
         d="m 650.281,636.73 c -0.726,1.872 -1.437,3.711 -2.152,5.559 C 479.707,811.891 227.238,978.488 0,1000.53 176.227,814.27 407.367,685.051 650.281,636.73"
         style="fill:#e7e8e5;fill-opacity:1;fill-rule:nonzero;stroke:none"
         id="path76" />
      <path
         d="m 768.164,375.391 c -0.934,0.8 -1.906,1.589 -2.844,2.39 l 0.965,-2.172 1.879,-0.218"
         style="fill:#e7e8e5;fill-opacity:1;fill-rule:nonzero;stroke:none"
         id="path78" />
      <path
         d="M 56.7266,689.469 C 253.09,515.02 501.855,404.141 757.273,376.68 c -1.828,4.191 -3.582,8.269 -5.378,12.41 C 563.582,545.551 292.227,688.891 56.7266,689.469"
         style="fill:#e7e8e5;fill-opacity:1;fill-rule:nonzero;stroke:none"
         id="path80" />
      <path
         d="M 198.613,375.391 C 327.223,261.129 478.363,174.281 639.07,120.09 H 836.711 C 653.133,257.949 411.258,374.871 198.613,375.391"
         style="fill:#e7e8e5;fill-opacity:1;fill-rule:nonzero;stroke:none"
         id="path82" />
      <path
         d="m 672.086,581.078 c 22.297,-56.328 49.098,-121.238 79.809,-191.988 1.796,-4.141 3.55,-8.219 5.378,-12.41 34.719,-79.551 74.387,-166.289 118.258,-256.59 h 9.61 c -12.352,25.32 -24.383,50.351 -36.078,75.019 -0.969,2.039 -1.946,4.102 -2.911,6.129 -28.734,60.774 -55.441,119.282 -79.867,174.371 l -0.965,2.172 c -21.113,47.66 -40.48,92.66 -58.039,134.391 -3.254,7.726 -6.468,15.398 -9.597,22.898 -7.004,16.801 -13.723,33.071 -20.071,48.621 -27.636,67.649 -49.484,122.661 -64.164,160.868 -4.668,11.851 -8.644,21.941 -12.062,30.613 -1.91,4.848 -3.696,9.379 -5.211,13.226 -1.883,4.551 -3.43,8.274 -4.692,11.321 -1.101,2.531 -1.734,3.793 -1.871,3.742 -0.136,-0.063 0.223,-1.441 1.063,-4.09 1.051,-3.152 2.336,-6.973 3.906,-11.66 0.379,-1.07 0.836,-2.359 1.246,-3.512 3.735,-10.527 8.547,-24.09 14.547,-41 9.34,-26.258 22.113,-60.437 37.754,-100.91 0.715,-1.848 1.426,-3.687 2.152,-5.559 6.77,-17.48 14.008,-35.968 21.805,-55.652"
         style="fill:#dadbd8;fill-opacity:1;fill-rule:nonzero;stroke:none"
         id="path84" />
      <path
         d="m 4536.33,124.012 c 0,-1.5 -986.78,-2.731 -2203.74,-2.731 -1217.4,0 -2203.961,1.231 -2203.961,2.731 0,1.508 986.561,2.73 2203.961,2.73 1216.96,0 2203.74,-1.222 2203.74,-2.73"
         style="fill:#17282f;fill-opacity:1;fill-rule:nonzero;stroke:none"
         id="path86" />
      <path
         d="m 853.98,3625.42 c 0,-177.87 -144.195,-322.06 -322.062,-322.06 -177.871,0 -322.066,144.19 -322.066,322.06 0,177.87 144.195,322.07 322.066,322.07 177.867,0 322.062,-144.2 322.062,-322.07"
         style="fill:#ffffff;fill-opacity:1;fill-rule:nonzero;stroke:none"
         id="path88" />
      <path
         d="m 853.98,3625.42 c 0,0 -0.226,1.77 -0.468,5.22 -0.231,3.58 -0.555,8.66 -0.977,15.28 -0.199,3.37 -0.422,7.13 -0.668,11.26 -0.433,4.12 -1.312,8.59 -2.035,13.45 -0.769,4.86 -1.602,10.09 -2.488,15.68 -0.668,5.63 -2.758,11.35 -4.203,17.56 -5.668,24.87 -17.305,54.27 -35.661,85.43 -18.507,31.04 -45.207,63.46 -81.574,90.98 -4.566,3.4 -9.187,6.84 -13.863,10.33 -4.871,3.19 -10,6.11 -15.074,9.23 -5.176,2.95 -10.078,6.53 -15.633,9.04 -5.488,2.64 -11.035,5.3 -16.641,7.98 -2.804,1.33 -5.625,2.67 -8.461,4.02 -2.949,1.07 -5.914,2.15 -8.89,3.23 -5.953,2.17 -11.965,4.36 -18.031,6.57 -6.125,2.02 -12.536,3.33 -18.879,5.05 -6.407,1.45 -12.707,3.71 -19.387,4.39 -13.246,1.88 -26.633,4.61 -40.508,4.68 -6.906,0.24 -13.863,0.92 -20.879,0.81 -7.012,-0.36 -14.078,-0.73 -21.195,-1.1 -3.551,-0.24 -7.145,-0.22 -10.699,-0.69 l -10.68,-1.64 c -7.125,-1.19 -14.375,-2.02 -21.543,-3.5 -14.133,-3.85 -28.773,-6.72 -42.695,-12.54 -14.364,-4.59 -27.871,-11.69 -41.754,-18.34 -6.762,-3.67 -13.242,-7.94 -19.938,-11.91 -3.273,-2.1 -6.769,-3.89 -9.89,-6.25 l -9.422,-7.07 c -13.016,-8.93 -24.399,-20.1 -36.317,-30.86 -5.394,-5.94 -10.82,-11.92 -16.269,-17.92 l -4.094,-4.5 -3.676,-4.87 -7.324,-9.81 -7.363,-9.84 -6.446,-10.54 -6.433,-10.6 -3.231,-5.31 -2.734,-5.6 c -3.609,-7.49 -7.23,-15.02 -10.867,-22.58 -2.883,-7.87 -5.777,-15.76 -8.684,-23.7 -10.437,-32.12 -16.058,-66.24 -16.519,-100.97 0.457,-34.74 6.062,-68.87 16.496,-101.01 2.906,-7.93 5.801,-15.84 8.683,-23.71 3.637,-7.55 7.262,-15.08 10.872,-22.58 l 2.73,-5.6 3.23,-5.32 6.438,-10.6 6.441,-10.54 7.364,-9.85 7.328,-9.81 3.676,-4.87 4.093,-4.51 c 5.45,-6 10.875,-11.97 16.274,-17.92 11.918,-10.76 23.301,-21.94 36.316,-30.87 l 9.426,-7.06 c 3.117,-2.37 6.617,-4.16 9.894,-6.26 6.696,-3.97 13.176,-8.24 19.938,-11.91 13.887,-6.66 27.398,-13.75 41.762,-18.35 13.922,-5.82 28.566,-8.69 42.703,-12.53 7.168,-1.49 14.418,-2.32 21.547,-3.5 l 10.679,-1.65 c 3.555,-0.46 7.149,-0.44 10.7,-0.69 7.117,-0.37 14.183,-0.73 21.199,-1.09 7.012,-0.11 13.972,0.56 20.879,0.8 13.875,0.08 27.261,2.81 40.508,4.69 6.683,0.68 12.984,2.94 19.39,4.39 6.344,1.72 12.754,3.02 18.879,5.05 6.066,2.21 12.078,4.4 18.031,6.57 2.981,1.09 5.946,2.17 8.895,3.24 2.832,1.34 5.652,2.68 8.461,4.01 5.601,2.69 11.148,5.35 16.64,7.98 5.551,2.52 10.454,6.1 15.633,9.04 5.071,3.13 10.203,6.05 15.071,9.24 4.671,3.49 9.296,6.93 13.863,10.33 36.367,27.52 63.062,59.95 81.562,90.97 18.356,31.17 29.992,60.56 35.657,85.44 1.445,6.21 3.535,11.92 4.203,17.56 0.882,5.58 1.715,10.81 2.484,15.67 0.723,4.86 1.606,9.33 2.035,13.45 0.246,4.13 0.469,7.88 0.668,11.26 0.422,6.62 0.746,11.7 0.977,15.28 0.242,3.45 0.468,5.21 0.468,5.21 0,0 0.051,-1.76 -0.054,-5.22 -0.137,-3.59 -0.324,-8.68 -0.574,-15.32 -0.141,-3.39 -0.297,-7.16 -0.473,-11.31 -0.367,-4.14 -1.188,-8.63 -1.848,-13.52 -0.718,-4.89 -1.488,-10.15 -2.312,-15.76 -0.61,-5.68 -2.649,-11.43 -4.043,-17.68 -5.457,-25.06 -16.934,-54.72 -35.235,-86.22 -18.445,-31.36 -45.195,-64.18 -81.773,-92.1 -4.598,-3.45 -9.246,-6.94 -13.949,-10.47 -4.899,-3.24 -10.067,-6.21 -15.176,-9.38 -5.211,-3 -10.156,-6.62 -15.75,-9.19 -5.531,-2.67 -11.125,-5.38 -16.773,-8.11 -2.832,-1.35 -5.676,-2.71 -8.536,-4.08 -2.972,-1.1 -5.961,-2.2 -8.964,-3.3 -6.008,-2.21 -12.075,-4.44 -18.2,-6.69 -6.179,-2.07 -12.652,-3.41 -19.054,-5.17 -6.469,-1.48 -12.836,-3.77 -19.582,-4.49 -13.379,-1.94 -26.907,-4.72 -40.926,-4.84 -6.981,-0.26 -14.02,-0.95 -21.11,-0.86 -7.089,0.35 -14.234,0.7 -21.429,1.06 -3.594,0.24 -7.227,0.21 -10.821,0.68 l -10.804,1.63 c -7.211,1.18 -14.547,2.01 -21.801,3.5 -14.309,3.85 -29.125,6.74 -43.223,12.6 -14.543,4.63 -28.226,11.78 -42.285,18.51 -6.847,3.7 -13.418,8.01 -20.195,12.02 -3.32,2.12 -6.863,3.93 -10.024,6.32 l -9.55,7.13 c -13.18,9.03 -24.719,20.32 -36.789,31.21 -5.473,6.01 -10.969,12.05 -16.493,18.12 l -4.148,4.56 -3.727,4.93 -7.425,9.92 -7.461,9.97 -6.535,10.66 -6.524,10.74 -3.273,5.38 -2.774,5.67 c -3.656,7.59 -7.328,15.21 -11.015,22.86 -2.926,7.97 -5.86,15.97 -8.805,24.01 -10.586,32.54 -16.27,67.11 -16.727,102.28 0.461,35.16 6.16,69.72 16.746,102.25 2.95,8.03 5.883,16.03 8.809,24 3.688,7.65 7.359,15.26 11.016,22.85 l 2.777,5.67 3.27,5.38 6.523,10.73 6.535,10.65 7.457,9.97 7.43,9.92 3.726,4.93 4.145,4.56 c 5.523,6.07 11.019,12.1 16.488,18.12 12.071,10.88 23.61,22.17 36.789,31.2 l 9.547,7.12 c 3.164,2.39 6.703,4.2 10.02,6.32 6.781,4.01 13.347,8.32 20.195,12.02 14.055,6.73 27.738,13.88 42.277,18.51 14.098,5.85 28.91,8.74 43.219,12.59 7.25,1.49 14.582,2.33 21.797,3.5 l 10.801,1.64 c 3.593,0.46 7.226,0.44 10.82,0.68 7.195,0.35 14.34,0.71 21.43,1.06 7.09,0.09 14.125,-0.6 21.101,-0.86 14.024,-0.12 27.547,-2.9 40.926,-4.85 6.746,-0.71 13.113,-3 19.582,-4.48 6.402,-1.76 12.871,-3.1 19.055,-5.16 6.125,-2.26 12.191,-4.49 18.195,-6.7 3.008,-1.1 5.992,-2.2 8.969,-3.3 2.859,-1.36 5.703,-2.72 8.535,-4.07 5.648,-2.74 11.238,-5.44 16.773,-8.12 5.594,-2.56 10.54,-6.19 15.75,-9.18 5.11,-3.17 10.274,-6.14 15.176,-9.38 4.703,-3.53 9.356,-7.02 13.949,-10.47 36.582,-27.92 63.332,-60.74 81.786,-92.1 18.3,-31.5 29.781,-61.16 35.242,-86.22 1.394,-6.25 3.429,-12.01 4.043,-17.68 0.824,-5.62 1.594,-10.88 2.308,-15.77 0.664,-4.89 1.485,-9.38 1.852,-13.52 0.176,-4.15 0.332,-7.92 0.473,-11.31 0.25,-6.64 0.437,-11.74 0.574,-15.33 0.105,-3.45 0.054,-5.22 0.054,-5.22"
         style="fill:#17282f;fill-opacity:1;fill-rule:nonzero;stroke:none"
         id="path90" />
      <path
         d="m 417.34,3680.63 h 61.183 c 0,0 0,51.37 53.395,52.29 27.727,0.48 42.102,-17.68 47.945,-31.6 6.782,-16.16 4.727,-34.57 -4.359,-49.55 -10.379,-17.11 -33.121,-32.67 -74.356,-25.4 v -89.8 h 60.5 v 32.65 c 0,0 84.86,21.93 84.86,115.45 0,89.47 -80.242,110.25 -114.586,110.25 -26.266,0 -115.738,-6.35 -114.582,-114.29"
         style="fill:#f2575d;fill-opacity:1;fill-rule:nonzero;stroke:none"
         id="path92" />
      <path
         d="m 562.379,3455.92 h -61.402 v 57.35 h 61.402 v -57.35"
         style="fill:#f2575d;fill-opacity:1;fill-rule:nonzero;stroke:none"
         id="path94" />
      <path
         d="m 868.582,3324.08 c 0,-27.15 -22.016,-49.17 -49.168,-49.17 -27.156,0 -49.168,22.02 -49.168,49.17 0,27.16 22.012,49.17 49.168,49.17 27.152,0 49.168,-22.01 49.168,-49.17"
         style="fill:#ffffff;fill-opacity:1;fill-rule:nonzero;stroke:none"
         id="path96" />
      <path
         d="m 868.582,3324.08 c -0.434,-0.02 -0.277,4.38 -2.305,11.81 -2.007,7.3 -6.996,17.95 -17.988,26.13 -10.621,8.21 -28.094,12.78 -44.984,6.48 -8.321,-3.02 -16.25,-8.7 -21.883,-16.53 -5.789,-7.74 -9.043,-17.65 -9.145,-27.88 0.098,-10.23 3.352,-20.15 9.145,-27.89 5.629,-7.84 13.562,-13.52 21.883,-16.53 16.894,-6.31 34.367,-1.73 44.988,6.48 10.992,8.18 15.977,18.83 17.984,26.12 2.028,7.43 1.871,11.84 2.305,11.81 0.141,0 0.223,-1.08 0.25,-3.16 0.066,-2.07 -0.172,-5.16 -1.019,-9.03 -1.598,-7.64 -6.36,-19.05 -17.778,-28.03 -11.023,-9 -29.683,-14.32 -48.008,-7.72 -9.023,3.16 -17.664,9.24 -23.816,17.71 -6.32,8.35 -9.91,19.14 -10,30.24 0.094,11.1 3.684,21.89 10.004,30.24 6.152,8.46 14.789,14.53 23.812,17.69 18.325,6.61 36.981,1.28 48.004,-7.71 11.418,-8.98 16.184,-20.39 17.782,-28.03 0.847,-3.87 1.085,-6.96 1.019,-9.04 -0.027,-2.08 -0.109,-3.16 -0.25,-3.16"
         style="fill:#17282f;fill-opacity:1;fill-rule:nonzero;stroke:none"
         id="path98" />
      <path
         d="m 4450.22,3825.43 c 0,-186.92 -151.53,-338.45 -338.46,-338.45 -186.92,0 -338.45,151.53 -338.45,338.45 0,186.92 151.53,338.45 338.45,338.45 186.93,0 338.46,-151.53 338.46,-338.45"
         style="fill:#ffffff;fill-opacity:1;fill-rule:nonzero;stroke:none"
         id="path100" />
      <path
         d="m 4450.22,3825.43 c 0,0 -0.24,1.86 -0.5,5.48 -0.24,3.76 -0.58,9.11 -1.02,16.06 -0.21,3.55 -0.45,7.49 -0.7,11.83 -0.46,4.34 -1.38,9.03 -2.14,14.14 -0.81,5.11 -1.69,10.6 -2.62,16.47 -0.7,5.92 -2.9,11.93 -4.42,18.45 -5.95,26.15 -18.18,57.04 -37.47,89.79 -19.45,32.61 -47.51,66.69 -85.73,95.6 -4.8,3.58 -9.65,7.2 -14.56,10.86 -5.12,3.35 -10.51,6.42 -15.84,9.71 -5.44,3.09 -10.6,6.85 -16.43,9.49 -5.77,2.77 -11.6,5.57 -17.49,8.39 -2.95,1.4 -5.91,2.8 -8.89,4.21 -3.1,1.13 -6.21,2.27 -9.34,3.41 -6.26,2.27 -12.58,4.58 -18.95,6.9 -6.44,2.13 -13.18,3.5 -19.84,5.31 -6.74,1.52 -13.36,3.9 -20.38,4.61 -13.92,1.97 -27.98,4.84 -42.56,4.93 -7.26,0.24 -14.58,0.95 -21.95,0.84 -7.36,-0.38 -14.79,-0.77 -22.27,-1.15 -3.73,-0.26 -7.51,-0.24 -11.24,-0.73 l -11.23,-1.73 c -7.49,-1.24 -15.1,-2.12 -22.64,-3.67 -14.85,-4.05 -30.24,-7.06 -44.86,-13.17 -15.1,-4.83 -29.29,-12.29 -43.88,-19.29 -7.11,-3.85 -13.92,-8.34 -20.95,-12.51 -3.44,-2.21 -7.12,-4.09 -10.4,-6.57 l -9.9,-7.42 c -13.68,-9.39 -25.64,-21.13 -38.16,-32.44 -5.67,-6.24 -11.37,-12.52 -17.1,-18.83 l -4.3,-4.73 -3.86,-5.12 -7.7,-10.3 -7.74,-10.35 -6.77,-11.07 -6.77,-11.14 -3.39,-5.58 -2.87,-5.89 c -3.79,-7.87 -7.6,-15.78 -11.42,-23.72 -3.03,-8.27 -6.08,-16.57 -9.13,-24.91 -10.97,-33.76 -16.87,-69.62 -17.36,-106.11 0.48,-36.5 6.37,-72.37 17.34,-106.15 3.05,-8.33 6.09,-16.64 9.12,-24.92 3.82,-7.94 7.63,-15.85 11.42,-23.72 l 2.88,-5.89 3.39,-5.59 6.77,-11.14 6.77,-11.07 7.73,-10.36 7.7,-10.3 3.87,-5.12 4.3,-4.74 c 5.73,-6.3 11.43,-12.59 17.1,-18.84 12.52,-11.3 24.49,-23.05 38.16,-32.44 l 9.91,-7.42 c 3.28,-2.49 6.96,-4.36 10.4,-6.57 7.03,-4.17 13.85,-8.66 20.95,-12.51 14.59,-7 28.79,-14.46 43.89,-19.29 14.63,-6.12 30.02,-9.13 44.87,-13.18 7.53,-1.55 15.15,-2.43 22.64,-3.67 l 11.23,-1.73 c 3.73,-0.49 7.51,-0.47 11.24,-0.73 7.48,-0.38 14.91,-0.77 22.28,-1.15 7.37,-0.11 14.68,0.6 21.94,0.85 14.58,0.08 28.65,2.95 42.57,4.92 7.02,0.72 13.65,3.09 20.38,4.62 6.66,1.81 13.4,3.18 19.84,5.31 6.37,2.32 12.69,4.62 18.95,6.9 3.13,1.14 6.24,2.27 9.34,3.4 2.98,1.42 5.94,2.82 8.89,4.22 5.89,2.83 11.72,5.62 17.49,8.39 5.83,2.65 10.99,6.4 16.43,9.5 5.33,3.28 10.72,6.35 15.84,9.71 4.91,3.66 9.77,7.28 14.56,10.85 38.22,28.93 66.28,63 85.72,95.61 19.29,32.75 31.52,63.64 37.47,89.78 1.52,6.52 3.71,12.53 4.41,18.45 0.94,5.87 1.81,11.36 2.62,16.47 0.76,5.11 1.68,9.8 2.14,14.13 0.25,4.35 0.49,8.29 0.7,11.83 0.44,6.96 0.78,12.3 1.02,16.06 0.26,3.62 0.5,5.48 0.5,5.48 0,0 0.05,-1.86 -0.06,-5.48 -0.14,-3.78 -0.34,-9.13 -0.6,-16.11 -0.15,-3.56 -0.32,-7.52 -0.5,-11.88 -0.39,-4.35 -1.25,-9.07 -1.94,-14.21 -0.76,-5.14 -1.57,-10.66 -2.43,-16.57 -0.64,-5.96 -2.78,-12 -4.25,-18.58 -5.74,-26.33 -17.8,-57.5 -37.03,-90.6 -19.38,-32.95 -47.49,-67.45 -85.93,-96.78 -4.83,-3.63 -9.72,-7.29 -14.66,-11.01 -5.15,-3.41 -10.58,-6.53 -15.95,-9.86 -5.48,-3.14 -10.67,-6.95 -16.55,-9.65 -5.82,-2.81 -11.69,-5.66 -17.63,-8.53 -2.97,-1.42 -5.96,-2.85 -8.97,-4.28 -3.12,-1.16 -6.26,-2.31 -9.42,-3.47 -6.31,-2.32 -12.69,-4.67 -19.12,-7.03 -6.5,-2.18 -13.3,-3.58 -20.03,-5.43 -6.8,-1.56 -13.49,-3.97 -20.58,-4.72 -14.06,-2.04 -28.27,-4.97 -43.01,-5.09 -7.33,-0.27 -14.73,-1 -22.18,-0.9 -7.45,0.36 -14.96,0.73 -22.52,1.11 -3.77,0.25 -7.59,0.22 -11.37,0.71 l -11.35,1.72 c -7.58,1.24 -15.29,2.12 -22.91,3.68 -15.04,4.05 -30.61,7.08 -45.43,13.23 -15.28,4.87 -29.66,12.39 -44.43,19.46 -7.2,3.89 -14.1,8.41 -21.23,12.63 -3.48,2.23 -7.21,4.12 -10.53,6.64 l -10.03,7.49 c -13.86,9.49 -25.98,21.35 -38.67,32.8 -5.75,6.32 -11.53,12.67 -17.33,19.05 l -4.36,4.79 -3.91,5.17 -7.81,10.43 -7.84,10.48 -6.87,11.2 -6.85,11.29 -3.44,5.65 -2.91,5.96 c -3.85,7.97 -7.71,15.98 -11.58,24.02 -3.08,8.38 -6.16,16.79 -9.26,25.23 -11.12,34.2 -17.09,70.53 -17.57,107.49 0.48,36.95 6.47,73.27 17.6,107.45 3.09,8.44 6.18,16.85 9.25,25.22 3.88,8.04 7.74,16.05 11.58,24.02 l 2.92,5.96 3.43,5.65 6.86,11.27 6.87,11.2 7.83,10.48 7.81,10.42 3.92,5.17 4.35,4.8 c 5.81,6.38 11.58,12.72 17.33,19.04 12.68,11.44 24.81,23.3 38.66,32.79 l 10.03,7.49 c 3.33,2.51 7.05,4.41 10.53,6.64 7.13,4.21 14.03,8.74 21.22,12.63 14.78,7.07 29.16,14.58 44.43,19.45 14.82,6.15 30.39,9.18 45.42,13.23 7.62,1.57 15.33,2.44 22.91,3.68 l 11.35,1.72 c 3.78,0.49 7.59,0.46 11.37,0.71 7.56,0.38 15.07,0.75 22.52,1.11 7.45,0.1 14.84,-0.63 22.18,-0.9 14.73,-0.12 28.94,-3.05 43,-5.08 7.09,-0.75 13.78,-3.16 20.58,-4.72 6.73,-1.85 13.53,-3.26 20.03,-5.43 6.43,-2.36 12.81,-4.71 19.12,-7.03 3.16,-1.16 6.3,-2.32 9.42,-3.47 3.01,-1.43 6,-2.86 8.97,-4.28 5.94,-2.87 11.81,-5.72 17.63,-8.53 5.88,-2.69 11.07,-6.5 16.55,-9.65 5.37,-3.33 10.8,-6.45 15.95,-9.86 4.94,-3.71 9.83,-7.38 14.66,-11 38.44,-29.34 66.55,-63.82 85.94,-96.78 19.24,-33.1 31.3,-64.27 37.04,-90.61 1.46,-6.57 3.6,-12.62 4.25,-18.58 0.86,-5.9 1.67,-11.43 2.42,-16.57 0.7,-5.14 1.56,-9.86 1.95,-14.21 0.18,-4.36 0.35,-8.32 0.5,-11.88 0.26,-6.98 0.46,-12.34 0.6,-16.11 0.11,-3.63 0.06,-5.49 0.06,-5.49"
         style="fill:#17282f;fill-opacity:1;fill-rule:nonzero;stroke:none"
         id="path102" />
      <path
         d="m 3991.36,3883.44 h 64.3 c 0,0 0,53.99 56.1,54.96 29.14,0.5 44.25,-18.59 50.39,-33.21 7.13,-16.98 4.97,-36.33 -4.58,-52.08 -10.91,-17.98 -34.81,-34.32 -78.14,-26.69 v -94.36 h 63.58 v 34.31 c 0,0 89.17,23.05 89.17,121.32 0,94.03 -84.32,115.86 -120.41,115.86 -27.6,0 -121.63,-6.67 -120.41,-120.11"
         style="fill:#f2575d;fill-opacity:1;fill-rule:nonzero;stroke:none"
         id="path104" />
      <path
         d="m 4143.78,3647.3 h -64.53 v 60.27 h 64.53 v -60.27"
         style="fill:#f2575d;fill-opacity:1;fill-rule:nonzero;stroke:none"
         id="path106" />
      <path
         d="m 3796.85,3533.79 c 0,-28.53 -23.13,-51.67 -51.67,-51.67 -28.54,0 -51.67,23.14 -51.67,51.67 0,28.54 23.13,51.67 51.67,51.67 28.54,0 51.67,-23.13 51.67,-51.67"
         style="fill:#ffffff;fill-opacity:1;fill-rule:nonzero;stroke:none"
         id="path108" />
      <path
         d="m 3796.85,3533.79 c -0.46,-0.02 -0.29,4.6 -2.42,12.41 -2.11,7.67 -7.36,18.87 -18.91,27.46 -11.16,8.62 -29.52,13.43 -47.27,6.81 -8.74,-3.17 -17.08,-9.14 -22.99,-17.38 -6.09,-8.13 -9.51,-18.54 -9.61,-29.29 0.1,-10.75 3.51,-21.17 9.6,-29.3 5.92,-8.25 14.26,-14.21 23,-17.39 17.75,-6.62 36.12,-1.81 47.28,6.82 11.55,8.59 16.79,19.79 18.9,27.45 2.13,7.81 1.96,12.44 2.42,12.41 0.15,0 0.23,-1.13 0.26,-3.32 0.07,-2.18 -0.18,-5.42 -1.07,-9.49 -1.68,-8.03 -6.68,-20.02 -18.68,-29.46 -11.58,-9.45 -31.19,-15.05 -50.45,-8.11 -9.49,3.32 -18.56,9.71 -25.03,18.61 -6.64,8.77 -10.41,20.11 -10.51,31.78 0.1,11.66 3.87,23 10.51,31.77 6.47,8.9 15.55,15.28 25.03,18.6 19.25,6.94 38.86,1.35 50.45,-8.11 12,-9.43 17,-21.42 18.68,-29.45 0.89,-4.07 1.14,-7.32 1.07,-9.5 -0.03,-2.18 -0.11,-3.32 -0.26,-3.32"
         style="fill:#17282f;fill-opacity:1;fill-rule:nonzero;stroke:none"
         id="path110" />
      <path
         d="m 1915.65,1048.2 c -107.93,270.39 -188.92,458.19 -188.92,458.19 L 739.789,1356.38 c 0,0 -177.391,-454.751 -162.035,-661.099 C 593.105,488.93 665.336,125.57 665.336,125.57 H 1859.61 c 0,0 163.97,652.239 56.04,922.63"
         style="fill:#17282f;fill-opacity:1;fill-rule:nonzero;stroke:none"
         id="path112" />
      <path
         d="m 1559.46,3303.4 c 7.74,78.01 19.43,156.45 47.98,229.46 28.55,73.02 75.33,140.85 141.39,183.05 l 16.97,-15.78 c 11.71,33.52 42.89,59.43 78,64.82 35.1,5.37 72.61,-10.01 93.82,-38.5 37.86,10.2 81.28,-5.26 104.17,-37.09 22.88,-31.83 23.72,-77.91 1.99,-110.56 35.46,-4.49 66.78,-32.41 75.3,-67.12 8.52,-34.72 -6.3,-73.96 -35.65,-94.37 39.09,-33.78 54.67,-92.27 37.55,-141.02 -17.12,-48.74 -65.84,-84.65 -117.47,-86.58 11.52,-44.88 -11.86,-96.25 -53.28,-117.04 -41.41,-20.78 -96.57,-8.84 -125.68,27.21 3.62,-46.69 -33.71,-90.89 -79.2,-102 -45.5,-11.11 -95.06,7.27 -128.25,40.3 -33.2,33.03 -51.42,78.83 -58.48,125.12 -7.07,46.29 -3.79,93.5 0.84,140.1"
         style="fill:#17282f;fill-opacity:1;fill-rule:nonzero;stroke:none"
         id="path114" />
      <path
         d="m 1769.49,3649.05 c 45.39,-14.7 54.68,-51.45 64.11,-82.09 20.3,-65.93 -2.53,-163.5 -39.42,-221.79 -36.91,-58.29 -77.36,-87.92 -145.64,-97.78 -2.22,104.67 -4.44,209.33 -6.66,313.99 l 127.61,87.67"
         style="fill:#f2575d;fill-opacity:1;fill-rule:nonzero;stroke:none"
         id="path116" />
      <path
         d="m 1795.11,3468.8 c 31,40.26 26.61,103.48 -9.65,139.08 19.87,24.96 12.74,63.47 -7.46,88.18 -20.19,24.7 -50.2,38.88 -79.16,52.26 -15.9,73.05 -97.91,124.44 -170.58,106.88 -37.86,55.66 -118.51,64.39 -183.13,45.55 -15.79,-4.59 -31.56,-10.54 -48,-10.47 -12.06,0.05 -23.84,3.34 -35.8,4.95 -65.74,8.85 -130.99,-37.43 -156.62,-98.62 -4.1,-9.78 -7.47,-20.09 -13.97,-28.47 -8.52,-11 -21.46,-17.46 -32.48,-25.96 -23.83,-18.36 -38.96,-47.57 -40.22,-77.63 -1.07,-25.53 7.05,-52.62 -3.7,-75.8 -5.39,-11.63 -15.121,-21.01 -19.32,-33.11 -12.157,-35.08 26.72,-70.93 19.52,-107.35 -1.47,-7.43 -4.82,-14.35 -6.88,-21.64 -4.21,-14.9 -2.78,-31.33 3.94,-45.28 5.19,-10.77 13.56,-20.63 14.26,-32.57 0.54,-9.05 -3.49,-17.67 -5.31,-26.56 -4.44,-21.74 42.47,-105.56 61.25,-117.38 l 561.33,-5.03 c 42.48,8.66 77.08,47.15 81.17,90.31 0.68,7.18 0.79,14.97 5.23,20.65 3.79,4.84 9.91,7.05 15.32,9.96 36.15,19.4 40.51,69.03 36.7,109.87 -0.53,5.72 -1.12,11.58 0.32,17.14 2.09,8.09 8.15,14.42 13.24,21.04"
         style="fill:#17282f;fill-opacity:1;fill-rule:nonzero;stroke:none"
         id="path118" />
      <path
         d="m 1634.3,3467.99 c 1.66,99.35 -60.65,213.5 -159.33,262.08 -62.21,30.62 -110.74,30.82 -143.44,34.64 -73.27,8.54 -132.39,-27.77 -132.39,-27.77 -30.94,-7.26 -144.32,-111.08 -150.21,-223.74 -6.54,-125.15 -9.59,-278.21 6.23,-371.37 31.81,-187.32 175.88,-209.66 175.88,-209.66 l -13.41,-311.39 276.89,-226.92 84.6,372.58 55.18,701.55"
         style="fill:#f9a78d;fill-opacity:1;fill-rule:nonzero;stroke:none"
         id="path120" />
      <path
         d="m 1231.04,2932.17 c 0,0 127.17,-6.82 251.43,69.69 0,0 -65.48,-132.98 -253.48,-117.43 l 2.05,47.74"
         style="fill:#f57f62;fill-opacity:1;fill-rule:nonzero;stroke:none"
         id="path122" />
      <path
         d="m 1605.98,3289.83 c -0.11,13.98 15.68,47.1 29.46,49.4 36.8,6.14 103.25,3.89 104.87,-89.69 2.21,-127.93 -123.37,-99.36 -126.97,-100.1 -20.4,-4.18 -6.96,92.14 -7.36,140.39"
         style="fill:#f9a78d;fill-opacity:1;fill-rule:nonzero;stroke:none"
         id="path124" />
      <path
         d="m 1647.82,3196.78 c 0.56,0.42 2.26,-1.52 6.05,-3.18 3.71,-1.61 10.05,-2.67 16.67,-0.06 13.43,5.2 24.44,26.85 24.66,49.92 0.12,11.66 -2.5,22.7 -6.79,31.81 -4.07,9.29 -10.23,15.72 -17.06,16.81 -6.79,1.45 -11.54,-2.71 -13.05,-6.33 -1.65,-3.61 -0.79,-6.15 -1.47,-6.38 -0.35,-0.33 -2.78,2.09 -1.84,7.39 0.48,2.55 1.93,5.6 4.9,8.11 3.02,2.55 7.51,3.9 12.26,3.47 9.89,-0.52 18.92,-9.44 23.63,-19.43 5.25,-10.04 8.48,-22.45 8.34,-35.53 -0.37,-25.79 -13.15,-50.14 -31.56,-55.81 -8.95,-2.5 -16.51,0.08 -20.44,3.04 -4.02,3.08 -4.73,5.93 -4.3,6.17"
         style="fill:#f57f62;fill-opacity:1;fill-rule:nonzero;stroke:none"
         id="path126" />
      <path
         d="m 1021.48,3532.16 c 4.07,46.47 22.59,90.53 45,131.44 15.52,28.31 33.37,55.94 57.79,77.05 20.42,17.64 44.72,30.11 69.09,41.67 64.1,30.4 135.59,56.2 204.79,40.6 37.14,-8.37 70.59,-28.11 103.12,-47.9 24.94,-15.16 49.97,-30.7 70.86,-51.09 18.32,-17.89 33.05,-39.14 46.05,-61.2 30.97,-52.6 52.84,-111.39 57.03,-172.28 4.19,-60.89 50.27,-114.73 14.56,-164.24 -2.77,-3.83 -66.35,-16.99 -70.75,-18.74 -10.33,-4.12 -21.69,7.1 -21.61,18.22 0.08,11.12 7.74,20.71 15.98,28.18 -15.84,0.53 -26.69,18.16 -25.69,33.97 0.99,15.81 10.35,29.73 19.75,42.48 1.23,1.67 2.5,3.43 2.76,5.48 0.66,5.4 -5.45,8.72 -10.13,11.48 -22.79,13.49 -25.33,51.01 -4.56,67.43 -30.52,7.08 -50.29,43.77 -39.42,73.15 1.72,4.65 4.06,9.85 1.83,14.28 -2.13,4.25 -7.41,5.58 -11.98,6.93 -33.76,10.01 -56.45,48.16 -49.13,82.61 -17.75,-0.93 -35.81,-1.84 -53.08,2.36 -17.28,4.2 -33.99,14.31 -41.89,30.24 -11.33,-20.4 -33.57,-34.31 -56.87,-35.56 -23.3,-1.25 -46.9,10.2 -60.34,29.27 -29.8,-2.85 -60.28,1.87 -87.82,13.6 -6.76,-27.77 -28.66,-51.35 -55.85,-60.13 -5.28,-1.71 -11.35,-3.37 -13.89,-8.3 -1.62,-3.14 -1.36,-6.87 -1.18,-10.4 0.95,-17.86 -11.23,-25.47 -21.08,-40.4 -9.84,-14.93 -27.02,-37.18 -44.21,-32.25 1.91,-30.42 -14.36,-52.56 -40.05,-68.98 l 0.92,21.03"
         style="fill:#17282f;fill-opacity:1;fill-rule:nonzero;stroke:none"
         id="path128" />
      <path
         d="m 995.02,3555.64 c 0,0 1.23,5.29 6.77,13.79 2.67,4.28 6.46,9.27 10.02,15.65 3.48,6.39 6.24,14.49 6.96,23.96 0.93,9.45 0.07,20.06 -0.84,31.65 -0.92,11.55 -1.89,24.44 0.66,37.99 2.43,13.5 7.76,27.52 16.47,40.45 4.34,6.46 9.54,12.65 15.57,18.25 6,5.68 13.04,10.45 20.08,15.21 6.99,4.82 14.06,9.98 19.29,16.95 5.25,6.97 8.45,15.52 11.91,24.19 6.95,17.48 17.09,34.61 30.64,49.73 13.47,15.12 29.86,28.84 49.25,38.58 9.51,5.21 20,8.73 30.69,11.84 10.86,2.45 22.1,4.38 33.59,4.1 5.73,0.08 11.49,-0.67 17.25,-1.22 5.73,-0.84 11.38,-2 17.05,-2.95 11.32,-2.15 22.77,-2.38 34.19,0.26 11.43,2.35 22.63,6.58 34.43,9.63 11.72,3.33 23.89,5.32 36.21,6.71 12.33,1.38 24.89,1.39 37.49,0.68 12.6,-0.94 25.2,-3.16 37.59,-6.59 24.52,-7.26 48.43,-20.8 64.77,-41.95 1.61,-2.1 3.21,-4.19 4.8,-6.26 l -2.05,0.79 c 38.63,9.25 79.09,-0.85 110.35,-21.32 31.47,-20.41 54.89,-52.07 62.47,-87.05 l -1.02,1.28 c 15.53,-7.19 30.88,-14.42 45.05,-23.29 14.13,-8.84 27.11,-19.43 36.89,-32.45 9.68,-13.07 15.62,-28.46 17.02,-44.02 1.47,-15.5 -2.35,-31.53 -11.86,-43.35 l -0.13,2.14 c 18.42,-18.16 27.84,-42.42 30.01,-65.44 2.19,-23.13 -2.47,-45.7 -12.77,-63.69 -2.34,-4.63 -5.53,-8.66 -8.39,-12.74 -3.09,-3.9 -6.24,-7.56 -8.72,-11.49 -2.48,-3.93 -4.12,-8.15 -4.44,-12.58 -0.4,-4.43 0.11,-8.87 0.47,-13.28 1.49,-17.64 1.25,-34.02 -0.96,-48.57 -2.22,-14.52 -6.32,-27.26 -12.28,-37.06 -5.82,-9.89 -13.15,-16.67 -19.72,-20.93 -6.57,-4.42 -12.4,-6.15 -15.62,-8.55 -3.35,-2.2 -4.52,-4.01 -4.63,-3.9 0,0 1.02,1.92 4.34,4.3 3.21,2.58 9.04,4.5 15.37,8.95 6.39,4.32 13.45,11.07 19.04,20.84 5.72,9.68 9.62,22.26 11.68,36.61 2.04,14.39 2.16,30.62 0.55,48.11 -0.38,4.37 -0.95,8.93 -0.57,13.68 0.31,4.77 2.13,9.54 4.72,13.66 2.58,4.17 5.78,7.9 8.79,11.76 2.77,4.01 5.85,7.93 8.1,12.46 9.93,17.54 14.37,39.59 12.13,62.13 -2.2,22.44 -11.49,45.97 -29.34,63.44 l -1.03,1.01 0.9,1.13 c 8.87,11.12 12.47,26.23 11.03,41.07 -1.38,14.88 -7.14,29.72 -16.47,42.23 -9.45,12.52 -22.1,22.84 -36.01,31.49 -13.94,8.69 -29.16,15.84 -44.69,23 l -0.83,0.38 -0.2,0.89 c -7.4,33.9 -30.22,64.74 -60.96,84.64 -30.53,19.97 -69.97,29.73 -107.37,20.76 l -1.21,-0.29 -0.83,1.08 c -1.54,1.99 -3.09,4.01 -4.64,6.04 -15.75,20.41 -38.87,33.55 -62.82,40.65 -12.09,3.36 -24.42,5.55 -36.78,6.47 -12.37,0.71 -24.71,0.71 -36.84,-0.62 -12.11,-1.36 -24.09,-3.3 -35.62,-6.57 -11.59,-2.96 -22.87,-7.21 -34.65,-9.63 -5.88,-1.23 -11.87,-2 -17.89,-2 -6.02,0 -11.91,0.8 -17.66,1.78 -5.74,0.98 -11.37,2.14 -16.96,2.97 -5.61,0.54 -11.19,1.29 -16.76,1.22 -11.16,0.3 -22.1,-1.56 -32.7,-3.91 -10.43,-3.03 -20.69,-6.42 -30.01,-11.5 -18.99,-9.47 -35.12,-22.88 -48.39,-37.68 -13.36,-14.81 -23.37,-31.55 -30.27,-48.73 -3.49,-8.59 -6.8,-17.4 -12.4,-24.79 -5.61,-7.39 -12.98,-12.66 -20.03,-17.48 -7.13,-4.77 -13.99,-9.37 -19.86,-14.86 -5.91,-5.43 -11.01,-11.43 -15.3,-17.72 -8.59,-12.59 -13.9,-26.28 -16.37,-39.47 -2.61,-13.23 -1.77,-25.89 -0.96,-37.47 0.8,-11.59 1.57,-22.31 0.5,-31.92 -0.84,-9.63 -3.8,-17.94 -7.45,-24.38 -3.73,-6.43 -7.61,-11.33 -10.37,-15.52 -2.835,-4.15 -4.67,-7.51 -5.78,-9.83 -1.117,-2.31 -1.543,-3.57 -1.64,-3.53"
         style="fill:#33535f;fill-opacity:1;fill-rule:nonzero;stroke:none"
         id="path130" />
      <path
         d="m 1467.97,3882.83 c -0.19,-0.29 -3.39,1.91 -9.63,4.91 -6.23,2.95 -15.7,6.62 -27.96,7.91 -12.16,1.37 -27.23,0.22 -42.01,-6.45 -14.67,-6.64 -28.91,-18.66 -37.99,-34.97 -2.61,-4.68 -4.84,-9.67 -6.25,-14.53 -1.34,-4.84 -1.5,-9.98 1.04,-13.47 l 3.16,-4.32 -5.18,1.41 c -14.21,3.9 -28.8,1.08 -39.52,-5.02 -10.91,-6.09 -17.77,-15.46 -21.51,-23.85 -3.79,-8.48 -4.66,-16.03 -4.83,-21.12 -0.14,-5.12 0.29,-7.94 0,-7.97 -0.11,-0.02 -0.31,0.66 -0.6,2 -0.3,1.33 -0.58,3.34 -0.7,5.96 -0.23,5.21 0.27,13.08 3.92,22.07 3.57,8.88 10.59,19.03 22.1,25.72 11.29,6.69 26.76,9.93 42.14,5.83 l -2.02,-2.91 c -3.59,4.98 -3.12,11.4 -1.69,16.67 1.54,5.4 3.82,10.44 6.57,15.41 9.53,17.1 24.5,29.58 39.92,36.33 15.56,6.81 31.28,7.67 43.78,5.92 12.62,-1.7 22.18,-5.87 28.32,-9.29 3.07,-1.73 5.36,-3.23 6.81,-4.37 1.48,-1.13 2.21,-1.76 2.13,-1.87"
         style="fill:#33535f;fill-opacity:1;fill-rule:nonzero;stroke:none"
         id="path132" />
      <path
         d="m 1676.73,3737.59 c 0.15,-0.16 -1.35,-1.86 -4.44,-4.61 -3.1,-2.7 -7.81,-6.5 -14.39,-10.16 -6.56,-3.61 -15.17,-7.18 -25.47,-7.86 -10.12,-0.69 -22.17,1.52 -31.84,9.35 l 2.83,0.45 c -1.21,-1.72 -2.45,-3.48 -3.71,-5.28 -1.35,-1.72 -2.87,-3.36 -4.32,-5.07 -9.35,-9.81 -20.74,-16.55 -31.81,-20.14 -11.07,-3.71 -21.7,-4.69 -30.46,-4.07 -8.79,0.61 -15.64,2.71 -20.19,4.43 -4.49,1.96 -6.81,3.31 -6.71,3.52 0.27,0.8 9.95,-4.62 27.03,-5.23 8.46,-0.25 18.63,0.97 29.16,4.71 10.55,3.61 21.32,10.14 30.16,19.42 1.37,1.61 2.81,3.16 4.1,4.78 1.19,1.69 2.37,3.36 3.52,4.97 l 1.24,1.76 1.59,-1.3 c 8.63,-7.08 19.71,-9.36 29.23,-8.92 9.63,0.43 17.96,3.54 24.46,6.73 13,6.7 19.6,13.08 20.02,12.52"
         style="fill:#33535f;fill-opacity:1;fill-rule:nonzero;stroke:none"
         id="path134" />
      <path
         d="m 1745.28,3619.47 c 0.13,-0.03 0.03,-0.83 -0.3,-2.36 -0.43,-1.48 -1.15,-3.71 -2.79,-6.21 -3.12,-5.04 -10.06,-11.19 -20.51,-13.87 -10.51,-2.82 -23.56,-0.81 -36.58,3.68 -6.53,2.28 -13.31,4.56 -20.26,7.81 -6.75,3.25 -14.12,7.94 -17.79,15.96 l -0.82,2.05 3.03,-0.89 c -12.25,-9.73 -24.88,-18.21 -37.77,-23.09 -12.81,-5.06 -25.71,-5.95 -35.9,-3.99 -10.28,1.85 -17.86,6.15 -22.22,9.89 -2.23,1.84 -3.75,3.5 -4.67,4.7 -0.92,1.2 -1.35,1.86 -1.25,1.94 0.26,0.24 2.29,-2.21 6.83,-5.46 4.48,-3.26 11.88,-6.97 21.74,-8.4 9.83,-1.52 21.94,-0.43 34.18,4.61 12.31,4.87 24.55,13.18 36.66,22.82 l 2.03,1.61 1,-2.5 0.68,-1.72 c 3,-6.63 9.46,-10.99 15.92,-14.13 6.54,-3.12 13.39,-5.53 19.76,-7.85 12.7,-4.58 24.99,-6.68 34.79,-4.39 9.86,2.18 16.61,7.59 19.91,12.08 3.43,4.52 3.94,7.85 4.33,7.71"
         style="fill:#33535f;fill-opacity:1;fill-rule:nonzero;stroke:none"
         id="path136" />
      <path
         d="m 1332.17,3359.67 c -0.84,-12.48 9.03,-23.48 22.04,-24.6 13,-1.12 24.23,8.06 25.08,20.54 0.84,12.48 -9.03,23.5 -22.02,24.62 -13.02,1.12 -24.26,-8.08 -25.1,-20.56"
         style="fill:#17282f;fill-opacity:1;fill-rule:nonzero;stroke:none"
         id="path138" />
      <path
         d="m 1102.87,3365.95 c -0.85,-12.48 9.03,-23.48 22.04,-24.6 12.99,-1.12 24.23,8.06 25.08,20.54 0.84,12.48 -9.04,23.5 -22.02,24.61 -13.02,1.13 -24.26,-8.07 -25.1,-20.55"
         style="fill:#17282f;fill-opacity:1;fill-rule:nonzero;stroke:none"
         id="path140" />
      <path
         d="m 1093.53,3444.46 c 2.83,-3.18 21.18,9.5 46.64,8.62 25.44,-0.52 43.71,-14.22 46.56,-11.19 1.41,1.34 -1.41,7 -9.35,13.19 -7.81,6.15 -21.29,12.32 -37.15,12.78 -15.86,0.41 -29.39,-5 -37.25,-10.72 -8.02,-5.76 -10.85,-11.25 -9.45,-12.68"
         style="fill:#17282f;fill-opacity:1;fill-rule:nonzero;stroke:none"
         id="path142" />
      <path
         d="m 1346.71,3431.75 c 3.15,-2.87 20.12,11.64 45.52,13.36 25.35,2.1 44.93,-9.64 47.46,-6.34 1.25,1.48 -2.09,6.82 -10.66,12.16 -8.41,5.32 -22.44,10.08 -38.26,8.89 -15.82,-1.21 -28.72,-7.98 -35.96,-14.49 -7.36,-6.54 -9.63,-12.3 -8.1,-13.58"
         style="fill:#17282f;fill-opacity:1;fill-rule:nonzero;stroke:none"
         id="path144" />
      <path
         d="m 1251.77,3240.64 c 0.17,1.44 -15.57,4.68 -41.11,8.79 -6.47,0.88 -12.59,2.37 -13.54,6.84 -1.38,4.75 1.56,11.66 4.96,19.13 6.62,15.53 13.54,31.82 20.82,48.88 28.96,69.61 50.15,126.95 47.34,128.09 -2.82,1.14 -28.58,-54.36 -57.54,-123.98 -6.98,-17.17 -13.67,-33.54 -20.02,-49.2 -2.7,-7.31 -7.2,-15.56 -4.19,-25.41 1.59,-4.92 6.25,-8.59 10.38,-9.85 4.13,-1.41 7.78,-1.59 10.99,-1.89 25.76,-2.22 41.77,-2.85 41.91,-1.4"
         style="fill:#17282f;fill-opacity:1;fill-rule:nonzero;stroke:none"
         id="path146" />
      <path
         d="m 1291.2,3202.79 c 9.54,-1.34 19.07,-6.27 24.64,-14.25 5.56,-7.98 9.58,-26.66 4.05,-33.92 -4.71,-6.2 -25.74,-6.18 -40.2,-4.36 -6.69,0.85 -12.29,5.49 -14.5,11.87 l -5.72,16.43 c -3.25,9.36 1.62,19.86 11.07,22.82 6.42,2.01 13.58,2.41 20.66,1.41"
         style="fill:#f57f62;fill-opacity:1;fill-rule:nonzero;stroke:none"
         id="path148" />
      <path
         d="m 1335.12,3524.71 c 3.79,-6.31 28.13,1.77 58.14,3.95 29.99,2.78 55.31,-1.2 58.02,5.66 1.16,3.25 -4.2,8.84 -15.05,13.56 -10.76,4.73 -27.1,8.03 -45.09,6.56 -17.99,-1.51 -33.56,-7.44 -43.4,-13.87 -9.92,-6.44 -14.3,-12.84 -12.62,-15.86"
         style="fill:#17282f;fill-opacity:1;fill-rule:nonzero;stroke:none"
         id="path150" />
      <path
         d="m 1099.81,3486.26 c 5.34,-5.63 25.49,0.91 49.91,1.85 24.38,1.68 45.22,-2.67 49.81,3.51 2.02,2.99 -1.41,8.7 -10.59,13.93 -9.05,5.21 -24.07,9.27 -40.85,8.38 -16.77,-0.91 -31.17,-6.55 -39.5,-12.7 -8.47,-6.17 -11.15,-12.21 -8.78,-14.97"
         style="fill:#17282f;fill-opacity:1;fill-rule:nonzero;stroke:none"
         id="path152" />
      <path
         d="m 1977.14,2428.98 -240.21,-871.28 84.26,-249.74 c -317.2,-139.8 -775.72,-184.23 -1137.159,-9.08 0,0 122.774,360.25 126.949,430.37 4.176,70.13 -26.003,479.77 7.411,617.15 33.406,137.39 129.058,431.84 129.058,431.84 l 281.351,44.67 c 129,-69.29 211.6,-79.61 350.32,0.69 l 262.08,-57.16 135.94,-337.46"
         style="fill:#33535f;fill-opacity:1;fill-rule:nonzero;stroke:none"
         id="path154" />
      <path
         d="m 951.719,2778.7 c 0,0 -151.094,-15.99 -211.93,-140.26 -60.098,-122.77 -226.93,-666.12 -236.008,-756.88 -9.078,-90.77 64.563,-212.95 128.754,-229.84 l 194.672,194.06 161.508,-14.38 212.655,992.2 -249.651,-44.9"
         style="fill:#33535f;fill-opacity:1;fill-rule:nonzero;stroke:none"
         id="path156" />
      <path
         d="m 836.637,1932.69 c -18.895,29.88 -54.317,46.09 -89.426,50.19 -7.723,0.9 -15.457,1.29 -23.195,1.29 -27.45,0 -54.953,-4.96 -82.075,-9.92 13.411,26.68 44.192,41.03 73.985,42.98 2.957,0.19 5.906,0.28 8.851,0.28 26.766,0 53.18,-7.53 79.02,-15 -43.465,23.51 -81.539,56.91 -110.52,96.94 35.457,-13.24 70.911,-26.48 106.368,-39.73 -22.27,128.7 -8.989,263.36 37.992,385.23 l -30.883,-166.19 c -6.434,-115.99 3.664,-232.89 29.883,-346.07"
         style="fill:#20353d;fill-opacity:1;fill-rule:nonzero;stroke:none"
         id="path158" />
      <path
         d="m 785.98,1620.28 c -4.628,24.3 0.989,52.65 7.532,77.42 l 12.121,-1.2 c -4.453,-20.53 -11.356,-46.89 -19.653,-76.22"
         style="fill:#a7a9a8;fill-opacity:1;fill-rule:nonzero;stroke:none"
         id="path160" />
      <path
         d="m 1277.38,1506.39 c -50.49,0 -102.25,7.44 -151.87,15.24 -86.63,13.63 -173.26,27.26 -259.893,40.88 -21.859,3.44 -45.148,7.55 -61.262,22.72 -10.226,9.63 -15.839,21.72 -18.375,35.05 8.297,29.33 15.2,55.69 19.653,76.22 l 312.997,-31.01 5.96,-90.95 c 0,0 124.68,-24.34 193.88,-24.34 5.19,0 10.08,0.14 14.56,0.43 45.99,3.02 105.76,37.38 136.13,56.75 0.04,-0.04 0.08,-0.08 0.12,-0.11 5.26,-5.1 22.6,-9.04 42.79,-12.41 -25.72,-15.9 -50.24,-36.43 -76.28,-51.5 -48.14,-27.85 -102.5,-36.97 -158.41,-36.97"
         style="fill:#20353d;fill-opacity:1;fill-rule:nonzero;stroke:none"
         id="path162" />
      <path
         d="m 1399.06,1762.88 132.77,128.2 c 12.89,12.44 30.52,18.64 48.35,16.95 37.9,-3.58 102.12,-10.25 115.33,-15.38 18.99,-7.39 36.92,-17.94 42.2,-27.43 5.27,-9.5 23.21,-66.47 24.26,-74.91 0.51,-4.1 -0.72,-15.93 -2.12,-27 -1.66,-13.1 -16.06,-20.82 -27.54,-14.33 -5.17,2.92 -9.86,6.77 -12.54,11.79 -8.44,15.83 -7.38,22.16 -7.38,22.16 0,0 4.22,-56.97 -42.2,-58.02 0,0 21.38,-48.53 -38.37,-68.58 0,0 2.21,-31.65 -47.76,-35.87 -49.97,-4.22 -95.33,0 -95.33,0 0,0 -91.34,-65.61 -155.7,-69.83 -64.35,-4.22 -208.44,23.91 -208.44,23.91 l -17.39,265.39 291.86,-77.05"
         style="fill:#f9a78d;fill-opacity:1;fill-rule:nonzero;stroke:none"
         id="path164" />
      <path
         d="m 1578.95,1844.21 c -0.16,-0.45 7.95,-3.88 21.27,-8.91 13.33,-4.98 31.88,-11.63 52.95,-17.23 10.42,-2.96 20.94,-4.63 29.68,-7.03 8.88,-2.38 14.23,-9.03 18.09,-14.84 3.86,-5.88 6.92,-10.88 9.58,-13.92 2.61,-3.09 4.46,-4.39 4.59,-4.24 0.2,0.2 -1.28,1.83 -3.48,5.08 -2.27,3.22 -4.9,8.25 -8.57,14.44 -1.88,3.06 -4.12,6.41 -7.24,9.49 -3.07,3.13 -7.33,5.64 -11.96,7.11 -9.35,2.75 -19.31,4.37 -29.78,7.35 -20.89,5.56 -39.5,11.8 -53.03,16.17 -13.51,4.41 -21.93,7 -22.1,6.53"
         style="fill:#f57f62;fill-opacity:1;fill-rule:nonzero;stroke:none"
         id="path166" />
      <path
         d="m 1561.86,1762.85 c -0.17,-0.45 5.46,-3.08 14.78,-6.82 9.31,-3.75 22.3,-8.58 36.82,-13.44 14.53,-4.86 27.82,-8.82 37.51,-11.44 9.69,-2.61 15.77,-3.9 15.9,-3.44 0.14,0.48 -5.69,2.63 -15.17,5.85 -10.77,3.6 -23.28,7.78 -37.11,12.41 -13.82,4.62 -26.33,8.81 -37.09,12.42 -9.52,3.13 -15.46,4.93 -15.64,4.46"
         style="fill:#f57f62;fill-opacity:1;fill-rule:nonzero;stroke:none"
         id="path168" />
      <path
         d="m 1529.05,1687.19 c -0.12,-1.09 23.11,-3.46 50.74,-10.99 27.68,-7.38 48.95,-17.01 49.41,-16.01 0.19,0.41 -4.89,3.35 -13.55,7.19 -8.65,3.86 -20.95,8.48 -34.93,12.26 -13.98,3.75 -26.93,5.94 -36.34,6.96 -9.43,1.03 -15.3,1.04 -15.33,0.59"
         style="fill:#f57f62;fill-opacity:1;fill-rule:nonzero;stroke:none"
         id="path170" />
      <path
         d="m 1221.53,1557.7 -588.995,94.02 c 0,0 70.778,295.43 174.047,295.43 15.129,0 538.308,-169.97 538.308,-169.97 L 1221.53,1557.7"
         style="fill:#33535f;fill-opacity:1;fill-rule:nonzero;stroke:none"
         id="path172" />
      <path
         d="m 1324.58,1686.33 c 0.37,-0.34 5.54,4.6 13.82,12.64 9.09,8.94 20.06,19.71 32.18,31.62 12.5,12.43 23.65,23.87 31.48,32.39 7.84,8.51 12.36,14.07 12.01,14.4 -0.37,0.34 -5.53,-4.61 -13.82,-12.65 -9.09,-8.93 -20.06,-19.71 -32.18,-31.62 -12.5,-12.43 -23.65,-23.86 -31.48,-32.38 -7.83,-8.51 -12.36,-14.08 -12.01,-14.4"
         style="fill:#f57f62;fill-opacity:1;fill-rule:nonzero;stroke:none"
         id="path174" />
      <path
         d="m 1344.89,1777.18 c -0.08,-0.28 -2.66,0.21 -7.49,1.4 -5.76,1.54 -12.68,3.38 -20.99,5.6 -19.44,5.59 -45.34,13.04 -76.75,22.07 -64.69,19 -153.9,45.79 -252.265,75.89 -54.465,16.82 -106.067,32.75 -151.875,46.9 l -1.196,0.37 -0.89,1.19 c -18.047,24.29 -44.653,39.08 -68.649,46.39 -24.402,7.45 -47.234,8.35 -65.656,6.69 -18.531,-1.51 -32.813,-5.58 -42.426,-8.48 -9.594,-3.08 -14.562,-5.28 -14.762,-4.9 -0.199,0.36 4.465,3.33 13.942,7.19 9.496,3.67 23.836,8.53 42.769,10.74 18.813,2.36 42.418,2.09 67.938,-5.14 25.297,-7.35 52.969,-21.65 73.246,-48.3 l -2.078,1.56 c 45.879,-13.91 97.558,-29.58 152.109,-46.12 98.373,-30.09 187.293,-57.8 251.543,-78.26 31.09,-10.08 56.72,-18.4 75.96,-24.65 8.13,-2.81 14.9,-5.16 20.53,-7.11 4.67,-1.71 7.08,-2.75 6.99,-3.03"
         style="fill:#17282f;fill-opacity:1;fill-rule:nonzero;stroke:none"
         id="path176" />
      <path
         d="m 1188.84,2721.5 c 4.92,16.38 32.59,167.73 43.84,202.92 15.87,49.66 144.88,138.44 144.88,138.44 0,0 -20.23,46.61 -75.16,22.39 -65.03,-28.69 -97.17,-76.97 -113.56,-67.14 -16.38,9.83 -118.53,113.81 -146.38,110.54 -27.85,-3.28 -33.97,-31.86 -24.14,-43.32 9.83,-11.47 20.86,-30.41 20.86,-30.41 0,0 -58.977,17.75 -47.508,-46.83 0,0 -67.172,41.92 -60.621,-46.55 0,0 -44.235,18.02 -54.063,-13.11 -9.828,-31.13 19.325,-67.17 34.067,-91.74 14.746,-24.58 62.593,-167.11 62.593,-167.11 l 0.563,-125.67 234.869,48.27 -20.24,109.32"
         style="fill:#f9a78d;fill-opacity:1;fill-rule:nonzero;stroke:none"
         id="path178" />
      <path
         d="m 1188.84,2721.5 c 0.18,-0.01 0.81,-2.46 1.86,-7.22 1.1,-5.25 2.56,-12.22 4.41,-21.07 3.75,-19.04 9.09,-46.12 15.9,-80.67 l 0.37,-1.88 -1.91,-0.4 c -58,-12.25 -138.21,-29.19 -234.603,-49.54 l -3.887,-0.82 -0.031,4 c -0.293,38.7 -0.609,81.03 -0.945,125.66 l 0.187,-1.14 c -16.761,48.34 -34.179,100.33 -56.058,152.86 -10.695,25.3 -32.996,47.35 -41.035,78.05 -1.965,7.59 -2.879,15.8 -1.551,23.99 1.23,7.86 4.953,16.94 12.715,21.9 7.547,5 16.496,6.09 24.582,5.52 8.234,-0.6 15.965,-2.39 23.785,-5.33 l -5.746,-4.18 c -0.328,8.64 -0.668,17.42 0.57,26.48 1.617,8.83 3.606,18.68 11.231,26.13 7.386,7.79 19.019,9.46 28.382,7.79 9.672,-1.58 18.411,-5.03 26.84,-9.95 l -6.398,-4.32 c -1.57,11.87 -3.602,26.34 4.394,39.35 4.977,8.18 14.278,12.85 22.918,14.07 8.83,1.27 17.17,0.36 25.58,-1.81 l -4.87,-6.17 c -5.89,9.85 -12.21,19.69 -19.23,28.37 -4.54,4.54 -6.93,12.4 -6.55,18.77 0.34,6.63 2.58,13.02 6.39,18.37 3.78,5.35 9.23,9.5 15.21,11.84 3.02,1.09 6.08,1.98 9.19,2.4 3.01,0.41 7.24,-0.05 10.17,-0.87 12.06,-3.91 21.28,-10.65 30.64,-17.16 36.63,-26.76 68.03,-57.48 99.71,-85.2 3.77,-3.08 8.44,-7.46 11.2,-8.24 2.84,-0.93 7.55,1.27 11.62,3.7 8.37,5.19 16.35,11.88 24.41,18.13 16.04,12.73 32.59,24.64 49.96,34.4 17.27,9.11 35.48,19.21 56.01,18.37 20.58,-0.44 38.27,-14.14 46.48,-31.44 l 1.2,-2.52 -2.41,-1.71 c -50.27,-35.73 -95.46,-70.91 -127.43,-108.76 -7.95,-9.52 -14.16,-19.56 -17.7,-30.25 -3.29,-11.03 -5.84,-22.01 -8.29,-32.5 -4.62,-21.03 -8.87,-40.35 -12.71,-57.84 -7.36,-34.5 -13.17,-61.72 -17.27,-80.92 -2.06,-9.3 -3.74,-16.39 -5,-21.14 -1.23,-4.75 -2.29,-7.1 -2.29,-7.1 -0.22,-0.01 0.36,2.5 1.25,7.33 1.01,5.33 2.33,12.39 4.01,21.33 3.66,19.29 8.85,46.63 15.42,81.29 3.6,17.57 7.57,36.98 11.89,58.11 2.34,10.58 4.74,21.56 8,32.95 3.64,11.56 10.32,22.49 18.32,32.24 32.44,39.13 77.36,74.55 127.87,110.96 l -1.21,-4.22 c -7.23,14.77 -22.75,26.83 -40.42,26.95 -17.74,0.79 -35.08,-8.58 -52.02,-17.69 -16.87,-9.58 -32.94,-21.23 -48.85,-33.95 -8.06,-6.28 -15.87,-12.96 -25.16,-18.79 -4.71,-2.52 -10.01,-6.23 -17.67,-4.62 -7.22,2.66 -9.92,6.55 -14.42,9.87 -32.03,27.88 -63.41,58.38 -99.32,84.5 -8.92,6.28 -18.43,12.83 -28.1,15.88 -2.44,0.54 -4.1,0.86 -6.64,0.64 -2.55,-0.34 -4.95,-1.07 -7.32,-1.9 -4.65,-1.83 -8.67,-4.94 -11.51,-8.97 -5.65,-7.93 -7.07,-19.88 -0.16,-26.89 7.58,-9.37 13.89,-19.22 20.03,-29.47 l 5.34,-8.9 -10.21,2.73 c -13.68,3.65 -31.69,3.26 -38.929,-8.73 -5.972,-9.22 -4.801,-22.35 -3.199,-33.32 l 1.293,-8.84 -7.695,4.52 c -7.184,4.22 -15.551,7.5 -23.594,8.77 -8.098,1.35 -16.16,-0.04 -21.238,-5.43 -10.391,-11.23 -10.094,-30.15 -9.375,-46 l 0.293,-6.39 -6.043,2.21 c -13.239,4.82 -29.782,7.68 -40.539,0.7 -5.344,-3.38 -8.09,-9.58 -9.25,-16.4 -1.102,-6.75 -0.391,-13.79 1.367,-20.62 3.562,-13.73 10.785,-26.53 18.394,-38.81 7.465,-12.19 16.516,-24.32 21.989,-38.07 22.007,-53.32 39.093,-105.12 55.675,-153.73 l 0.188,-0.56 v -0.59 c 0.062,-44.63 0.121,-86.97 0.172,-125.66 l -3.914,3.17 c 96.605,19.32 177.005,35.39 235.125,47.01 l -1.53,-2.28 c -6.04,34.85 -10.77,62.16 -14.1,81.37 -1.42,8.87 -2.55,15.86 -3.4,21.12 -0.71,4.76 -0.98,7.19 -0.81,7.18"
         style="fill:#f57f62;fill-opacity:1;fill-rule:nonzero;stroke:none"
         id="path180" />
      <path
         d="m 1039.39,3053.29 c -0.63,-0.8 12.63,-12.14 28.51,-26.6 15.9,-14.44 28.44,-26.56 29.18,-25.86 0.69,0.65 -10.77,13.95 -26.79,28.49 -15.99,14.57 -30.32,24.72 -30.9,23.97"
         style="fill:#f57f62;fill-opacity:1;fill-rule:nonzero;stroke:none"
         id="path182" />
      <path
         d="m 986.871,3011.63 c -0.844,-0.36 4.192,-13.06 14.469,-26.24 10.22,-13.25 21.27,-21.28 21.82,-20.55 0.69,0.79 -9.07,9.84 -19,22.73 -10.019,12.82 -16.347,24.52 -17.289,24.06"
         style="fill:#f57f62;fill-opacity:1;fill-rule:nonzero;stroke:none"
         id="path184" />
      <path
         d="m 931.957,2964.78 c -0.797,-0.58 4.731,-9.6 12.34,-20.15 7.617,-10.55 14.43,-18.64 15.23,-18.07 0.793,0.58 -4.73,9.6 -12.343,20.15 -7.614,10.55 -14.43,18.64 -15.227,18.07"
         style="fill:#f57f62;fill-opacity:1;fill-rule:nonzero;stroke:none"
         id="path186" />
      <path
         d="M 1841.2,2766.44 1588.6,2514.4 1329.45,2188.82 1226.39,2622.7 963.051,2568.57 c 0,0 18.582,-490.11 99.619,-712.24 15.42,-42.27 61.05,-73.71 81.4,-83.37 127.31,-60.46 251.6,33.08 251.6,33.08 0,0 531.13,356.47 588.7,595.11 27.19,112.69 16.29,246.67 -30.03,301.83 -40.72,48.49 -113.14,63.46 -113.14,63.46"
         style="fill:#33535f;fill-opacity:1;fill-rule:nonzero;stroke:none"
         id="path188" />
      <path
         d="m 1984.37,2401.15 c 0,0 -0.59,-2.63 -2.02,-7.71 -1.66,-5 -2.99,-12.85 -7.11,-22.32 -6.68,-19.53 -20.44,-46.89 -41.7,-79.74 -21.39,-32.78 -50.88,-70.71 -88.36,-111.75 -37.62,-40.91 -82.7,-85.44 -135.1,-131.77 -52.21,-46.54 -111.55,-95.06 -176.88,-144.99 -32.69,-24.94 -66.91,-50.19 -102.68,-75.48 -8.99,-6.26 -18.04,-12.57 -27.16,-18.92 -9.01,-6.23 -18.45,-12.8 -28.29,-18.33 -19.74,-11.16 -40.83,-20.55 -63.06,-27.51 -44.19,-14.29 -94.17,-17.19 -141.11,-2.65 -5.97,1.39 -11.45,4.32 -17.22,6.41 -5.68,2.33 -11.52,4.38 -16.93,7.56 -10.89,6 -21.01,13.25 -30.66,21.17 -18.98,16.01 -36.32,35.58 -45.61,59.83 -16.83,47.66 -28.85,97.57 -39.5,148.47 -9.67,51.08 -18.65,103.08 -25.355,156.02 -18.566,141.21 -29.141,278.76 -35.082,409.03 l -0.098,2.13 2.102,0.43 c 91.913,18.83 179.963,36.87 263.363,53.96 l 2.23,0.45 0.52,-2.2 c 38.94,-164.85 73.58,-311.52 102.52,-434.01 l -3.04,0.8 c 88.95,95.68 160.34,172.47 209.62,225.48 24.6,26.3 43.65,46.67 56.68,60.6 6.43,6.79 11.35,11.99 14.78,15.61 3.34,3.5 5.15,5.2 5.15,5.2 0,0 -1.56,-1.93 -4.78,-5.54 -3.34,-3.7 -8.14,-9.01 -14.41,-15.95 -12.87,-14.08 -31.69,-34.66 -55.99,-61.24 -49,-53.27 -119.99,-130.44 -208.43,-226.58 l -2.26,-2.45 -0.78,3.25 c -29.24,122.42 -64.26,269 -103.61,433.75 l 2.75,-1.75 c -83.39,-17.2 -171.41,-35.35 -263.301,-54.3 l 2,2.56 c 6.054,-130.07 16.691,-267.57 35.231,-408.54 6.69,-52.86 15.64,-104.75 25.27,-155.69 10.6,-50.73 22.57,-100.48 39.21,-147.72 8.76,-23 25.52,-42.09 44.05,-57.72 9.4,-7.74 19.33,-14.86 29.84,-20.67 5.15,-3.03 10.86,-5.03 16.42,-7.32 5.63,-2.05 10.97,-4.93 16.81,-6.29 45.79,-14.22 94.67,-11.52 138.19,2.5 21.88,6.8 42.7,16.04 62.16,26.99 9.8,5.51 18.74,11.71 28,18.08 9.11,6.33 18.16,12.61 27.14,18.84 35.77,25.19 70,50.34 102.71,75.17 65.36,49.73 124.76,98.02 177.05,144.32 52.47,46.08 97.65,90.34 135.39,130.98 37.61,40.76 67.24,78.4 88.82,110.9 21.44,32.56 35.44,59.66 42.41,78.99 4.26,9.38 5.75,17.15 7.58,22.09 1.59,5.03 2.53,7.57 2.53,7.57"
         style="fill:#17282f;fill-opacity:1;fill-rule:nonzero;stroke:none"
         id="path190" />
      <path
         d="m 1377.36,1989.56 c -0.93,0.21 2.16,12.75 3.77,33.31 0.99,10.27 0.84,22.56 0.12,36.13 -1.1,13.55 -3.38,28.35 -7.26,43.55 -7.77,30.48 -20.87,56.1 -31.44,73.77 -10.75,17.64 -18.71,27.77 -17.99,28.34 0.28,0.22 2.5,-2.11 6.3,-6.56 3.87,-4.37 8.92,-11.16 14.8,-19.81 11.51,-17.38 25.43,-43.28 33.38,-74.43 3.96,-15.53 6.14,-30.7 7,-44.56 0.47,-13.87 0.24,-26.4 -1.25,-36.78 -1.25,-10.4 -2.91,-18.73 -4.53,-24.35 -1.54,-5.64 -2.55,-8.7 -2.9,-8.61"
         style="fill:#17282f;fill-opacity:1;fill-rule:nonzero;stroke:none"
         id="path192" />
      <path
         d="m 1341.41,3169.79 c -0.47,-1.38 -5.9,-0.78 -14.19,0.91 -8.32,1.64 -19.46,4.18 -31.85,5.14 -12.41,1.04 -23.5,0.14 -31.13,-1.86 -7.8,-1.82 -11.08,-4.98 -12.35,-4.46 -0.61,0.28 -0.62,2.01 0.96,4.34 1.54,2.31 4.59,4.88 8.74,6.99 8.27,4.29 21.06,6.53 34.61,5.37 13.61,-1.06 25.33,-5.01 33.24,-8.5 7.94,-3.55 12.43,-6.59 11.97,-7.93"
         style="fill:#17282f;fill-opacity:1;fill-rule:nonzero;stroke:none"
         id="path194" />
      <path
         d="m 1742.66,1563.24 c 0,0 -1.43,0.18 -4.06,0.51 l 17.03,61.77 h 2.82 l -15.79,-62.28"
         style="fill:#a7a9a8;fill-opacity:1;fill-rule:nonzero;stroke:none"
         id="path196" />
      <path
         d="m 1738.6,1563.75 c -21.01,2.59 -118.49,14.74 -173.77,23.29 -15.75,2.44 -35.32,4.92 -52.76,7.82 22.54,13.94 46,24.31 72.22,24.31 0.7,0 1.41,-0.01 2.11,-0.03 l -8.48,0.85 c 2.04,0.14 4.08,0.3 6.14,0.47 9.74,0.83 17.5,2.69 23.68,5.16 l 147.89,-0.1 -17.03,-61.77 m -281.82,254.86 c 0.89,9.93 1.94,19.9 3.15,29.81 17.87,12.92 35.33,25.81 52.39,38.63 -1.13,-5.94 -2.2,-11.9 -3.22,-17.91 l -52.32,-50.53"
         style="fill:#20353d;fill-opacity:1;fill-rule:nonzero;stroke:none"
         id="path198" />
      <path
         d="m 1512.07,1594.86 c -20.19,3.37 -37.53,7.31 -42.79,12.41 -0.04,0.03 -0.08,0.07 -0.12,0.11 12.13,7.74 19.57,13.08 19.57,13.08 0,0 20.16,-1.87 48.41,-1.87 12.38,0 26.31,0.36 40.78,1.4 l 8.48,-0.85 c -0.7,0.02 -1.41,0.03 -2.11,0.03 -26.22,0 -49.68,-10.37 -72.22,-24.31"
         style="fill:#142127;fill-opacity:1;fill-rule:nonzero;stroke:none"
         id="path200" />
      <path
         d="m 1469.16,1607.38 c -12.05,11.82 -11.97,31.39 -13.26,48.24 -4.12,53.84 -4.01,108.48 0.88,162.99 l 52.32,50.53 c -8.06,-47.57 -12.86,-97.62 -14.37,-150.02 -0.71,-24.68 8.39,-48.05 25.62,-65.8 17.32,-17.83 40.55,-27.67 65.41,-27.68 l 21.98,-0.02 c -6.18,-2.47 -13.94,-4.33 -23.68,-5.16 -2.06,-0.17 -4.1,-0.33 -6.14,-0.47 -14.47,-1.04 -28.4,-1.4 -40.78,-1.4 -28.25,0 -48.41,1.87 -48.41,1.87 0,0 -7.44,-5.34 -19.57,-13.08"
         style="fill:#ba7562;fill-opacity:1;fill-rule:nonzero;stroke:none"
         id="path202" />
      <path
         d="m 1460.7,1854.54 c 27.4,212.36 129.59,419.19 339.86,562.6 12.35,-10.76 27.04,-20.56 44.32,-29.09 5.56,-2.75 12.23,-5.13 19.91,-7.18 -6.74,-3.52 -13.46,-7.17 -20.15,-10.94 -100.91,-56.83 -181.45,-134.52 -239.38,-230.89 -42.99,-71.54 -73.65,-153.72 -91.71,-245.6 -17.21,-12.91 -34.82,-25.89 -52.85,-38.9"
         style="fill:#20353d;fill-opacity:1;fill-rule:nonzero;stroke:none"
         id="path204" />
      <path
         d="m 1459.93,1848.42 c 0.25,2.05 0.51,4.07 0.77,6.12 18.03,13.01 35.64,25.99 52.85,38.9 -0.42,-2.12 -0.83,-4.26 -1.23,-6.39 -17.06,-12.82 -34.52,-25.71 -52.39,-38.63"
         style="fill:#0f191d;fill-opacity:1;fill-rule:nonzero;stroke:none"
         id="path206" />
      <path
         d="m 3549.85,3811.45 c 39.23,-3.51 78.66,26.2 86.1,64.88 7.43,38.67 -18.16,80.88 -55.89,92.18 23.72,25.53 28.82,66.56 12.06,97.12 -16.75,30.56 -54.09,48.32 -88.37,42.05 -2.27,34.33 -23.61,66.78 -54.24,82.47 -30.62,15.68 -69.43,14.03 -98.61,-4.19 -38.78,31.65 -100.06,31.39 -138.57,-0.6 -33.55,5.36 -69.54,-13.31 -84.49,-43.82 -14.94,-30.52 -7.62,-70.4 17.19,-93.62"
         style="fill:#17282f;fill-opacity:1;fill-rule:nonzero;stroke:none"
         id="path208" />
      <path
         d="m 3196.98,4105.64 17.66,0.41 c 177.67,4.15 328.75,-128.82 347.15,-305.59 17.13,-164.41 33.93,-346.27 34.91,-434.66 2,-183.02 -180.34,-215.74 -180.34,-215.74 l 20.6,-219.47 -444.4,3.4 -57.86,796.35 c -20.81,189.6 72.18,359.74 262.28,375.3"
         style="fill:#f9a78d;fill-opacity:1;fill-rule:nonzero;stroke:none"
         id="path210" />
      <path
         d="m 3416.59,3150.1 c 0,0 -127.58,-9.5 -252.29,64.83 0,0 74.35,-133.38 256.54,-112.65 l -4.25,47.82"
         style="fill:#f57f62;fill-opacity:1;fill-rule:nonzero;stroke:none"
         id="path212" />
      <path
         d="m 3505.91,3601.89 c 0.81,-13.79 -10.2,-25.85 -24.59,-26.95 -14.35,-1.11 -26.67,9.14 -27.47,22.93 -0.81,13.79 10.19,25.85 24.54,26.97 14.39,1.1 26.71,-9.17 27.52,-22.95"
         style="fill:#17282f;fill-opacity:1;fill-rule:nonzero;stroke:none"
         id="path214" />
      <path
         d="m 3524.55,3710.02 c -3.16,-3.48 -23.29,10.71 -51.41,9.98 -28.1,-0.32 -48.4,-15.27 -51.53,-11.9 -1.53,1.49 1.63,7.72 10.46,14.47 8.69,6.72 23.63,13.41 41.15,13.74 17.51,0.31 32.4,-5.79 41.02,-12.19 8.8,-6.44 11.87,-12.53 10.31,-14.1"
         style="fill:#17282f;fill-opacity:1;fill-rule:nonzero;stroke:none"
         id="path216" />
      <path
         d="m 3263.79,3601.89 c 0.8,-13.79 -10.2,-25.85 -24.59,-26.95 -14.35,-1.12 -26.67,9.14 -27.48,22.93 -0.81,13.78 10.2,25.85 24.56,26.96 14.38,1.12 26.7,-9.16 27.51,-22.94"
         style="fill:#17282f;fill-opacity:1;fill-rule:nonzero;stroke:none"
         id="path218" />
      <path
         d="m 3248.29,3698.34 c -3.16,-3.48 -23.33,10.7 -51.42,9.97 -28.09,-0.33 -48.39,-15.27 -51.53,-11.9 -1.53,1.49 1.6,7.72 10.47,14.47 8.69,6.72 23.62,13.4 41.14,13.74 17.51,0.32 32.4,-5.79 41.03,-12.19 8.77,-6.43 11.86,-12.53 10.31,-14.09"
         style="fill:#17282f;fill-opacity:1;fill-rule:nonzero;stroke:none"
         id="path220" />
      <path
         d="m 3355.19,3492.19 c -0.17,1.6 17.24,5.02 45.48,9.31 7.16,0.9 13.92,2.49 15.02,7.42 1.57,5.22 -1.62,12.89 -5.29,21.17 -7.16,17.21 -14.64,35.26 -22.5,54.18 -31.31,77.16 -54.14,140.66 -51.03,141.89 3.13,1.23 31.02,-60.3 62.32,-137.45 7.55,-19.03 14.76,-37.18 21.62,-54.53 2.91,-8.1 7.8,-17.24 4.38,-28.09 -1.8,-5.41 -6.98,-9.43 -11.55,-10.78 -4.58,-1.51 -8.61,-1.68 -12.16,-1.97 -28.46,-2.2 -46.14,-2.73 -46.29,-1.15"
         style="fill:#17282f;fill-opacity:1;fill-rule:nonzero;stroke:none"
         id="path222" />
      <path
         d="m 3254.24,3756.41 c -3.55,-7.22 -27.82,-0.05 -57.52,0.22 -29.68,0.93 -54.55,-5.24 -57.43,2.1 -1.25,3.5 3.87,10.03 14.42,15.99 10.47,5.95 26.5,10.74 44.3,10.39 17.8,-0.38 33.37,-5.8 43.27,-12.17 10,-6.37 14.53,-13.1 12.96,-16.53"
         style="fill:#17282f;fill-opacity:1;fill-rule:nonzero;stroke:none"
         id="path224" />
      <path
         d="m 3523.21,3826 c -5.77,-6.52 -29.13,-0.43 -57.05,-0.77 -27.92,0.47 -51.44,-5.5 -57.03,1.06 -2.46,3.18 1.11,9.67 11.29,15.95 10.03,6.26 26.94,11.59 46.13,11.55 19.18,-0.06 35.94,-5.46 45.8,-11.78 10.01,-6.33 13.4,-12.84 10.86,-16.01"
         style="fill:#17282f;fill-opacity:1;fill-rule:nonzero;stroke:none"
         id="path226" />
      <path
         d="m 3542.24,3883.96 c 0,0 -50.93,113.46 -106.81,138.92 -67.64,30.81 -94.72,-43.28 -158.88,-26.95 -64.16,16.33 -128.74,45.9 -192.74,-4.89 -70.04,-55.6 -35.76,-92.66 -38.27,-173.95 -10.18,-329.56 -68.12,-424.04 -88.83,-269.4 -2.28,16.94 -49.73,29.35 -58.39,100.95 -11.22,92.84 -17.44,205.75 1.79,272.27 16.22,56.07 47.05,95.27 102.98,139 88.27,69.02 211.64,73.33 295.64,66.85 83.99,-6.47 247.8,-99.14 243.51,-242.8"
         style="fill:#17282f;fill-opacity:1;fill-rule:nonzero;stroke:none"
         id="path228" />
      <path
         d="m 2968.25,3552.94 c -1.81,28.21 -26.66,49.94 -54.74,46.61 -34.05,-4.04 -71.57,-24.3 -67.67,-94.76 6.91,-125 130.98,-92.28 131,-88.68 0.01,2.44 -5.23,84.55 -8.59,136.83"
         style="fill:#f9a78d;fill-opacity:1;fill-rule:nonzero;stroke:none"
         id="path230" />
      <path
         d="m 2947.04,3461.64 c -0.57,0.36 -2.1,-1.66 -5.69,-3.55 -3.49,-1.84 -9.6,-3.31 -16.25,-1.23 -13.48,4.12 -25.76,24.46 -27.61,46.96 -0.94,11.36 0.84,22.32 4.38,31.52 3.31,9.36 8.87,16.07 15.45,17.61 6.53,1.9 11.46,-1.82 13.18,-5.25 1.87,-3.4 1.22,-5.94 1.89,-6.13 0.37,-0.29 2.56,2.25 1.27,7.36 -0.65,2.45 -2.28,5.32 -5.35,7.56 -3.13,2.27 -7.61,3.27 -12.21,2.51 -9.6,-1.2 -17.79,-10.54 -21.68,-20.63 -4.41,-10.16 -6.68,-22.5 -5.62,-35.26 2.19,-25.14 16.39,-48 34.75,-52.22 8.92,-1.81 16.1,1.25 19.73,4.4 3.7,3.31 4.2,6.14 3.76,6.35"
         style="fill:#f57f62;fill-opacity:1;fill-rule:nonzero;stroke:none"
         id="path232" />
      <path
         d="m 2965.05,3795.36 c 16.5,-10.71 33.93,-21.75 53.55,-23.23 19.62,-1.49 41.74,10.28 44.59,29.75 1.28,8.75 -1.08,18.8 4.49,25.66 6.64,8.19 19.3,5.97 29.81,5.1 36.46,-3.01 78.02,38.15 86.45,73.75 9.6,-13.67 30.02,-17.4 43.85,-8.02 13.82,9.37 18.82,14.66 29.51,27.49 10.69,12.84 25.85,24.45 42.44,22.48 9.28,-1.09 18.06,-6.4 27.35,-5.36 16.39,1.84 23.96,21.27 26.07,37.63 2.1,16.36 3.6,35.43 17.3,44.62 12.7,8.51 29.52,4.15 44.7,2.28 15.17,-1.88 34.61,2.13 38.14,17.01 1.85,7.8 -1.67,15.88 -6.13,22.55 -20.19,30.22 -62.98,42.85 -96.35,28.45 -13.2,41.04 -52.6,72.31 -95.58,75.84 -42.98,3.52 -86.95,-20.91 -106.66,-59.26 -27,23.36 -65.65,32.54 -100.27,23.79 -34.63,-8.75 -64.28,-35.18 -76.93,-68.58 -30.61,7.3 -65.02,-5.28 -83.72,-30.6 -18.7,-25.32 -20.59,-61.9 -4.61,-89.02 -22.19,-13.37 -40.92,-36.16 -40.78,-62.07 0.14,-25.9 25.96,-51.11 50.79,-43.71 -9.63,-20.4 -0.78,-47.57 19.01,-58.37 19.8,-10.81 47.45,-3.57 59.4,15.55"
         style="fill:#17282f;fill-opacity:1;fill-rule:nonzero;stroke:none"
         id="path234" />
      <path
         d="m 3360.98,4058.93 c 0.1,-0.01 0.11,-0.79 0.02,-2.3 -0.13,-1.5 -0.16,-3.78 -0.64,-6.7 -1.01,-5.8 -3.14,-14.41 -8.52,-24.31 -5.42,-9.76 -13.91,-21.08 -27.05,-30.22 -12.85,-9.24 -30.62,-16.45 -50.9,-15.81 l 2.06,2.82 c 4.13,-10.61 3.37,-23.47 -1.71,-34.59 -4.78,-11.31 -12.5,-21.41 -20.69,-31.27 -4.2,-4.74 -7.81,-10.28 -13.66,-14.68 -5.69,-4.23 -12.57,-6.76 -19.66,-7.82 -14.06,-2.13 -30.08,1.86 -40.59,13.5 l 4.64,1.43 c -2.6,-24.93 -16.17,-50.14 -38.28,-65.84 -11.69,-8.87 -26.29,-14.46 -40.77,-14.42 -14.48,-0.19 -28.04,3.74 -40.69,7.94 l 3.31,1.55 c -6.35,-15.7 -16.38,-29.21 -28.7,-39.29 -12.09,-10.07 -28.37,-16.19 -43.31,-12.89 -29.67,5.56 -49.83,29.66 -54.31,52.69 l 2.86,-1.26 c -14.46,-8.32 -30.16,-9.45 -42.84,-7.31 -12.84,2.04 -23,7.36 -30.28,12.67 -7.31,5.41 -11.69,11.06 -14.34,14.96 -2.44,4.07 -3.46,6.33 -3.32,6.4 0.62,0.52 4.37,-9.41 18.88,-19.64 7.24,-4.88 17.17,-9.73 29.53,-11.39 12.18,-1.79 27.05,-0.36 40.4,7.6 l 2.31,1.38 0.56,-2.63 c 4.47,-21.48 23.86,-43.96 51.37,-48.8 13.53,-2.84 27.84,2.62 39.29,12.15 11.51,9.51 21.07,22.53 26.97,37.29 l 0.93,2.33 2.38,-0.78 c 12.45,-4.1 25.53,-7.78 38.92,-7.56 13.4,0.03 26.49,5.01 37.64,13.42 20.89,14.84 33.62,38.43 36.2,62.05 l 0.65,5.93 4,-4.49 c 8.87,-9.95 23.21,-13.79 35.86,-11.9 6.34,0.91 12.45,3.14 17.42,6.78 4.85,3.5 8.62,8.98 12.88,13.76 8.19,9.7 15.69,19.41 20.25,29.93 4.83,10.41 5.54,21.71 1.99,31.32 l -1.09,2.96 3.15,-0.13 c 19.1,-0.85 36.22,5.7 48.79,14.38 12.84,8.55 21.34,19.31 26.92,28.63 10.95,19.18 10.27,32.42 11.17,32.16"
         style="fill:#33535f;fill-opacity:1;fill-rule:nonzero;stroke:none"
         id="path236" />
      <path
         d="m 2461.19,2950.21 c 0,0 -470.22,-165.61 -606.24,-234.02 -106.26,-53.45 -173.6,-247.34 -10.07,-328.14 121.93,-60.26 781.99,54.9 781.99,54.9 l -165.68,507.26"
         style="fill:#f9a78d;fill-opacity:1;fill-rule:nonzero;stroke:none"
         id="path238" />
      <path
         d="m 3896.68,1303.87 -1194.74,45.21 -43.26,-406.689 -47.86,-815.813 609.86,-2.566 c 0.26,3.457 76.06,458.578 76.06,458.578 l 34.47,9.019 -3.2,-467.597 h 571.61 c 30.01,386.949 47.16,711.949 48.21,742.539 8.31,241.719 -51.15,437.319 -51.15,437.319"
         style="fill:#17282f;fill-opacity:1;fill-rule:nonzero;stroke:none"
         id="path240" />
      <path
         d="m 3253.74,836.059 c -0.22,-0.547 6.17,-3.938 18.15,-9.227 12.02,-5.051 29.68,-12.801 53.39,-16.191 11.83,-1.641 25.21,-1.692 39.15,1.39 13.84,3.059 28.49,9.629 40.09,21.367 11.59,11.774 18.7,27.864 22.97,44.442 4.3,16.711 6.44,34 9.21,51.578 10.58,70.543 17.05,134.812 20.43,181.402 1.7,23.3 2.67,42.17 3.09,55.23 0.39,13.06 0.28,20.3 -0.33,20.34 -0.63,0.04 -1.7,-7.12 -3.17,-20.08 -1.61,-14.86 -3.59,-33.21 -5.93,-54.91 -5,-46.36 -12.44,-110.32 -22.99,-180.65 -5.39,-34.77 -8.58,-70.09 -29.25,-91.578 -20.66,-21.102 -50.52,-24.492 -72.53,-22.203 -22.73,2.422 -40.55,9.09 -52.86,13.121 -12.3,4.269 -19.17,6.57 -19.42,5.969"
         style="fill:#33535f;fill-opacity:1;fill-rule:nonzero;stroke:none"
         id="path242" />
      <path
         d="m 3367.66,1170.26 c 0.12,0.39 -2.85,2.1 -8.85,2.21 -5.92,0.2 -14.84,-1.98 -23.44,-8.64 -8.23,-6.61 -16.79,-18.23 -16.5,-33.57 -0.04,-15.55 12.71,-30.3 28.75,-35.32 15.9,-5.45 34.92,-1.1 44.09,11.46 9.31,12.21 9.28,26.64 6.55,36.84 -2.99,10.45 -8.89,17.48 -13.79,20.83 -4.9,3.45 -8.3,3.83 -8.44,3.44 -1.11,-1.21 12.26,-6.62 16.03,-25.73 1.68,-9.02 0.71,-21.13 -6.8,-30.16 -7.2,-9.23 -21.66,-12.48 -34.83,-8.12 -13.2,4.29 -22.93,15.44 -23.28,27.15 -0.71,11.73 5.67,22.06 12.35,28.34 14.35,13.18 28.33,9.63 28.16,11.27"
         style="fill:#33535f;fill-opacity:1;fill-rule:nonzero;stroke:none"
         id="path244" />
      <path
         d="m 2701.94,966.859 c -0.02,-0.629 5.14,-1.179 14.55,-1.648 9.4,-0.629 23.07,-0.281 39.87,1.23 33.55,2.93 79.82,13.059 126.64,35.059 46.77,22.17 84,51.46 107.59,75.51 11.85,12 20.79,22.34 26.28,29.99 5.62,7.57 8.47,11.91 7.98,12.28 -1.25,1.01 -14.22,-15.19 -38.67,-37.67 -24.34,-22.51 -61.28,-50.27 -107.02,-71.97 -45.8,-21.511 -90.71,-32.39 -123.56,-36.878 -32.89,-4.582 -53.65,-4.301 -53.66,-5.903"
         style="fill:#33535f;fill-opacity:1;fill-rule:nonzero;stroke:none"
         id="path246" />
      <path
         d="m 3920.76,1370.18 c -23.44,53.37 -19.09,58.27 -19.09,58.27 l -66.43,581.28 -63.8,565.47 -51.73,418.55 -298.87,63.99 c 0,0 -34.41,-95.34 -178.88,-98.22 -166.44,-3.32 -261.82,145.5 -261.82,145.5 l -477.9,-102.6 179.72,-1232.62 21.54,-332.01 c 0,0 -35.67,-53.73 -35.67,-111.36 0,-57.63 -2.34,-96.04 -2.34,-96.04 443.57,-121.86 883.77,-227.39 1288.8,-109.43 0,0 -10.1,195.86 -33.53,249.22"
         style="fill:#33535f;fill-opacity:1;fill-rule:nonzero;stroke:none"
         id="path248" />
      <path
         d="m 3610.67,3015.57 c 0,0 172.27,-19.24 233.38,-84.12 61.12,-64.88 256.5,-385.88 256.5,-385.88 l -283.78,-388.24 -131.47,179.4 -74.63,678.84"
         style="fill:#33535f;fill-opacity:1;fill-rule:nonzero;stroke:none"
         id="path250" />
      <path
         d="m 3742,2814.67 c 2.38,0.23 29.52,-213.14 60.61,-476.52 31.1,-263.47 54.37,-477.18 51.98,-477.41 -2.38,-0.23 -29.52,213.1 -60.62,476.57 -31.09,263.39 -54.36,477.13 -51.97,477.36"
         style="fill:#17282f;fill-opacity:1;fill-rule:nonzero;stroke:none"
         id="path252" />
      <path
         d="m 2502.24,3002.42 -382.64,-169.83 138.45,-387.35 368.82,-58.45 -124.63,615.63"
         style="fill:#33535f;fill-opacity:1;fill-rule:nonzero;stroke:none"
         id="path254" />
      <path
         d="m 2554.91,2745.66 c 2.55,0.27 20.8,-150.85 40.76,-337.49 19.98,-186.72 34.1,-338.25 31.55,-338.52 -2.55,-0.27 -20.8,150.82 -40.77,337.53 -19.97,186.64 -34.09,338.21 -31.54,338.48"
         style="fill:#17282f;fill-opacity:1;fill-rule:nonzero;stroke:none"
         id="path256" />
      <path
         d="m 2649.25,781.711 c 0,0 3.67,66.769 8.46,151.57 0.15,0.071 0.3,0.149 0.45,0.219 l -8.91,-151.789 v 0"
         style="fill:#a7a9a8;fill-opacity:1;fill-rule:nonzero;stroke:none"
         id="path258" />
      <path
         d="m 2649.25,781.711 8.91,151.789 c 18.32,9.262 37.66,19.801 57.63,31.75 0.23,-0.012 0.47,-0.031 0.7,-0.039 2.95,-0.191 6.31,-0.301 10.06,-0.301 8.21,0 18.27,0.488 29.81,1.531 33.55,2.93 79.82,13.059 126.64,35.059 46.77,22.17 84,51.46 107.59,75.51 11.85,12 20.79,22.34 26.28,29.99 5.62,7.57 8.47,11.91 7.98,12.28 -0.04,0.03 -0.09,0.05 -0.14,0.05 -1.88,0 -14.8,-15.91 -38.53,-37.72 -24.34,-22.51 -61.28,-50.27 -107.02,-71.97 -45.8,-21.511 -90.71,-32.39 -123.56,-36.878 -13.29,-1.852 -24.61,-2.91 -33.37,-3.621 52.19,31.809 108.4,73.209 162.04,126.459 20.31,20.18 39.34,41.11 57.06,62.78 36.06,-8.68 72.02,-16.95 107.93,-24.73 -90.28,-146.259 -203.85,-281.412 -400.01,-351.939"
         style="fill:#0f191d;fill-opacity:1;fill-rule:nonzero;stroke:none"
         id="path260" />
      <path
         d="m 2726.55,964.91 c -3.75,0 -7.11,0.11 -10.06,0.301 -0.23,0.008 -0.47,0.027 -0.7,0.039 2.14,1.281 4.28,2.578 6.44,3.891 8.76,0.711 20.08,1.769 33.37,3.621 32.85,4.488 77.76,15.367 123.56,36.878 45.74,21.7 82.68,49.46 107.02,71.97 23.73,21.81 36.65,37.72 38.53,37.72 0.05,0 0.1,-0.02 0.14,-0.05 0.49,-0.37 -2.36,-4.71 -7.98,-12.28 -5.49,-7.65 -14.43,-17.99 -26.28,-29.99 -23.59,-24.05 -60.82,-53.34 -107.59,-75.51 -46.82,-22 -93.09,-32.129 -126.64,-35.059 -11.54,-1.043 -21.6,-1.531 -29.81,-1.531"
         style="fill:#20353d;fill-opacity:1;fill-rule:nonzero;stroke:none"
         id="path262" />
      <path
         d="m 3049.26,1133.65 c -35.91,7.78 -71.87,16.05 -107.93,24.73 116.02,141.85 176.52,315.65 180.18,518.03 47.87,-166.5 30.95,-369.83 -56.48,-516.72 -5.18,-8.7 -10.44,-17.39 -15.77,-26.04"
         style="fill:#20353d;fill-opacity:1;fill-rule:nonzero;stroke:none"
         id="path264" />
      <path
         d="m 3236.47,2959.46 c -1.11,0 -2.22,0.01 -3.33,0.02 0.12,1.8 0.29,3.61 0.51,5.42 l 135.31,31.56 c -27.44,-19.2 -68.06,-35.77 -127,-36.94 -1.83,-0.04 -3.67,-0.06 -5.49,-0.06"
         style="fill:#ba7562;fill-opacity:1;fill-rule:nonzero;stroke:none"
         id="path266" />
      <path
         d="m 3841.92,1946.87 c -80.94,27.52 -146.58,90.05 -193.45,161.69 -47.75,72.98 -78.25,155.64 -108.36,237.48 -34.96,95.04 -69.92,190.08 -104.88,285.11 -16.74,45.52 -33.95,91.88 -64.02,129.93 -26.34,33.33 -61.34,58.71 -90.24,89.85 -27.67,29.8 -50.44,68.32 -47.83,108.55 1.11,-0.01 2.22,-0.02 3.33,-0.02 1.82,0 3.66,0.02 5.49,0.06 58.94,1.17 99.56,17.74 127,36.94 l 81.93,19.11 194.1,-312.15 40.31,-366.69 129.99,-177.38 c 10.49,-86.19 19.73,-159.87 26.63,-212.48"
         style="fill:#20353d;fill-opacity:1;fill-rule:nonzero;stroke:none"
         id="path268" />
      <path
         d="m 3815.29,2159.35 -129.99,177.38 -40.31,366.69 130.85,-210.43 c 5.6,-48.79 11.7,-101.18 18.13,-155.68 7.43,-62.92 14.63,-122.98 21.32,-177.96"
         style="fill:#20353d;fill-opacity:1;fill-rule:nonzero;stroke:none"
         id="path270" />
      <path
         d="m 3846.46,1945.37 c -1.52,0.49 -3.03,0.99 -4.54,1.5 -6.9,52.61 -16.14,126.29 -26.63,212.48 -6.69,54.98 -13.89,115.04 -21.32,177.96 -6.43,54.5 -12.53,106.89 -18.13,155.68 l 7.58,-12.2 63.04,-535.42"
         style="fill:#0f191d;fill-opacity:1;fill-rule:nonzero;stroke:none"
         id="path272" />
      <path
         d="m 3578.21,2960.24 c 0,6.73 5.34,254.73 -11.29,281.66 -16.63,26.94 -29.94,52.19 -33.26,77.44 0,0 9.07,14.73 -7.46,23.95 -16.53,9.24 -42.74,-13.26 -43.31,-53.07 -0.57,-39.8 3.99,-107.88 3.99,-107.88 0,0 -182.96,103.84 -233.11,106.73 -50.16,2.88 -125.39,12.11 -129.38,-12.12 -3.99,-24.23 -0.57,-30 25.65,-39.23 26.21,-9.23 67.82,-15.57 108.86,-29.42 41.03,-13.84 59.84,-23.25 59.84,-23.25 0,0 -93.47,27.52 -113.99,0 -20.52,-27.51 -17.67,-52.32 -4.56,-65.59 0,0 -27.93,-11.54 -25.08,-42.11 2.85,-30.58 16.53,-38.08 16.53,-38.08 0,0 -27.36,-20.77 -14.25,-47.3 13.11,-26.54 43.89,-9.81 72.96,-39.81 29.06,-30 101.45,-100.38 129.37,-115.95 27.93,-15.58 91.77,-21.93 91.77,-21.93 l 106.72,145.96"
         style="fill:#f9a78d;fill-opacity:1;fill-rule:nonzero;stroke:none"
         id="path274" />
      <path
         d="m 3578.21,2960.24 c 0.06,-0.02 -0.49,-0.87 -1.63,-2.53 -1.26,-1.8 -2.96,-4.23 -5.18,-7.38 -4.75,-6.63 -11.61,-16.21 -20.5,-28.62 -18.23,-25.18 -44.74,-61.81 -78.33,-108.22 l -0.45,-0.62 -0.77,0.08 c -12.63,1.33 -25.79,3.19 -39.46,5.76 -13.65,2.6 -27.87,5.77 -42.1,11.14 -7.16,2.56 -14.1,6.53 -20.42,11.14 -6.45,4.49 -12.64,9.5 -18.91,14.6 -12.45,10.32 -24.89,21.43 -37.52,33.06 -12.63,11.65 -25.43,23.84 -38.4,36.54 -6.44,6.4 -12.96,12.88 -19.57,19.44 -6.52,6.79 -12.91,13.28 -21.08,17.77 -8.02,4.66 -17.25,6.93 -26.72,9.03 -9.22,2.11 -20.36,4.31 -27.3,13.04 -6.81,8.12 -9.75,19.58 -7.15,30.16 2.68,10.55 9.27,19.41 17.62,26.36 l 0.26,-3.61 c -7.23,5.03 -10.76,12.34 -13.56,19.85 -2.56,7.64 -3.98,15.49 -4.26,23.8 -0.28,8.35 2.2,16.94 7,24.06 4.93,7.06 11.53,12.69 19.55,16.45 l -0.74,-3.66 c -11.71,11.7 -13.47,30.37 -8.08,45.33 2.52,7.65 6.41,14.77 11.06,21.31 2.14,3.33 5.54,6.77 9.25,8.68 3.73,2.06 7.71,3.38 11.71,4.36 16.17,3.4 32.55,2 48.68,-0.08 16.16,-2.26 32.19,-5.68 48.2,-10.16 l -1.73,-4.38 c -24.03,11.03 -50.03,20.35 -76.46,28.4 -26.59,7.94 -54.36,13.13 -82.06,20.96 -9.92,3.14 -19.8,5.99 -29.04,11.9 -4.61,2.99 -8.41,8.32 -9.11,13.98 -0.85,5.55 -0.15,10.79 0.52,15.88 0.39,2.33 0.61,5.46 2.31,8.16 1.61,2.6 3.91,4.48 6.26,5.96 4.82,2.78 9.95,4.15 15.01,5.14 10.17,1.86 20.31,2.2 30.34,2.26 20.07,-0.02 39.81,-1.56 59.32,-2.9 9.77,-0.8 19.33,-0.9 29.34,-2.83 4.82,-1.08 9.48,-2.55 14.2,-3.81 l 13.71,-4.76 c 36,-13.68 69.69,-30.26 102.24,-46.75 32.5,-16.61 63.73,-33.44 93.68,-50.32 l -3.21,-2.01 c -2.25,39.29 -4.57,76.89 -3.56,113.28 1.38,18.13 8.26,36.81 23.41,47.32 3.81,2.45 8.25,4.17 12.92,4.35 4.67,0.27 9.44,-1.65 12.87,-4.35 3.58,-2.66 6.59,-6.69 7.34,-11.32 0.77,-4.64 -0.3,-9.09 -2.5,-13.09 l 0.25,1.19 c 3.95,-27.7 17.78,-51.57 30.69,-73.27 1.59,-2.56 3.51,-5.62 4.36,-8.81 1.07,-3.11 1.62,-6.21 2.27,-9.29 1.12,-6.17 1.92,-12.26 2.53,-18.27 1.26,-12 2,-23.66 2.59,-34.92 2.17,-45.08 2.14,-83.98 2.14,-115.8 -0.11,-31.82 -0.54,-56.57 -0.92,-73.36 -0.24,-8.25 -0.42,-14.62 -0.54,-19.11 -0.16,-4.29 -0.37,-6.51 -0.37,-6.51 0,0 -0.16,2.19 -0.17,6.52 0,4.49 0.01,10.86 0.02,19.11 -0.02,16.98 -0.04,41.68 -0.06,73.35 -0.3,31.79 -0.57,70.69 -3,115.64 -0.66,11.23 -1.46,22.84 -2.77,34.75 -0.64,5.95 -1.46,11.97 -2.59,17.99 -1.28,6.17 -2.49,11.71 -6.3,17 -13.05,21.76 -27.25,45.78 -31.49,74.5 l -0.08,0.57 0.34,0.62 c 1.67,3.08 2.63,7.05 1.97,10.56 -0.61,3.56 -2.88,6.67 -5.96,8.97 -6.12,5.14 -14.73,4.32 -21.45,-0.23 -13.55,-9.39 -20.32,-27.08 -21.51,-44.4 -0.88,-35.7 1.53,-73.61 3.86,-112.7 l 0.24,-3.95 -3.45,1.93 c -29.9,16.76 -61.15,33.52 -93.6,50.04 -32.48,16.4 -66.16,32.9 -101.8,46.39 l -13.5,4.68 c -4.57,1.2 -9.15,2.65 -13.76,3.67 -9.03,1.78 -19,1.96 -28.71,2.72 -19.51,1.34 -39.19,2.85 -58.98,2.85 -9.87,-0.05 -19.83,-0.41 -29.45,-2.19 -9.24,-1.87 -20.02,-5.16 -19.75,-15.25 -0.66,-4.9 -1.24,-9.89 -0.53,-14.42 0.65,-4.56 3.21,-8.16 7.12,-10.83 7.99,-5.17 18.06,-8.24 27.66,-11.24 27.28,-7.72 55.24,-12.96 82.06,-20.97 26.82,-8.19 52.57,-17.41 77.23,-28.75 l -1.73,-4.39 c -15.67,4.4 -31.64,7.83 -47.5,10.06 -15.82,2.08 -31.97,3.37 -47,0.2 -7.39,-1.78 -14.41,-4.8 -18.24,-11.18 -4.45,-6.24 -8.12,-12.97 -10.47,-20.08 -5.03,-13.97 -3.26,-30.51 6.93,-40.74 l 2.26,-2.26 -3,-1.4 c -6.91,-3.21 -13.26,-8.52 -17.58,-14.8 -4.29,-6.37 -6.52,-13.92 -6.28,-21.5 0.23,-7.58 1.61,-15.38 3.97,-22.42 2.38,-6.89 6.31,-13.89 11.52,-17.5 l 2.52,-1.74 -2.26,-1.86 c -7.52,-6.2 -13.8,-14.68 -16.1,-23.93 -2.33,-9.19 0.3,-19.39 6.22,-26.49 5.77,-7.44 15.65,-9.59 25,-11.72 9.48,-2.13 19.26,-4.54 27.79,-9.54 8.63,-4.73 15.61,-11.9 21.91,-18.5 6.56,-6.57 13.05,-13.06 19.45,-19.47 12.91,-12.72 25.64,-24.93 38.19,-36.6 12.55,-11.66 24.91,-22.79 37.24,-33.1 12.48,-10.02 24.36,-20.36 38.31,-25.39 13.85,-5.32 27.96,-8.57 41.49,-11.23 13.55,-2.62 26.68,-4.57 39.18,-5.97 l -1.22,-0.54 c 33.96,45.96 60.76,82.24 79.18,107.18 9.16,12.28 16.24,21.75 21.13,28.31 2.36,3.1 4.18,5.49 5.52,7.25 1.25,1.62 1.98,2.42 1.98,2.42"
         style="fill:#f57f62;fill-opacity:1;fill-rule:nonzero;stroke:none"
         id="path276" />
      <path
         d="m 4171.15,2381.25 c -18.28,34.94 -59.57,107.66 -79.48,152.18 l -130.78,-47.53 c 0,0 -370.47,500.44 -382.3,500.44 -11.83,0 -172.72,-149.18 -172.72,-149.18 7.09,-7.1 340.66,-771.58 468.42,-854.39 127.77,-82.81 222.99,-135.4 291.61,-17.1 68.61,118.3 85.69,261.79 5.25,415.58"
         style="fill:#f9a78d;fill-opacity:1;fill-rule:nonzero;stroke:none"
         id="path278" />
      <path
         d="m 4128.4,2261.29 c -0.3,-0.15 -2.47,3.32 -6.14,9.7 -3.63,6.41 -9.02,15.6 -15.85,26.84 -13.61,22.5 -33.76,52.75 -58.21,84.57 -24.46,31.83 -48.2,59.4 -65.47,79.28 -8.13,9.37 -14.98,17.26 -20.45,23.56 -4.8,5.6 -7.34,8.81 -7.1,9.03 0.25,0.23 3.25,-2.54 8.47,-7.76 5.23,-5.21 12.62,-12.9 21.6,-22.57 17.94,-19.34 42.17,-46.64 66.75,-78.62 24.57,-31.97 44.4,-62.74 57.33,-85.78 6.49,-11.51 11.45,-20.98 14.57,-27.67 3.18,-6.67 4.79,-10.43 4.5,-10.58"
         style="fill:#f57f62;fill-opacity:1;fill-rule:nonzero;stroke:none"
         id="path280" />
      <path
         d="m 3374.81,3375.69 c -3.33,-2.45 -17.11,11.76 -39.01,19.41 -21.7,8.22 -41.39,6.19 -42.36,10.2 -0.43,1.82 4.29,4.98 13.04,6.65 8.67,1.7 21.37,1.31 34.23,-3.35 12.85,-4.69 22.83,-12.56 28.38,-19.43 5.63,-6.91 7.21,-12.36 5.72,-13.48"
         style="fill:#17282f;fill-opacity:1;fill-rule:nonzero;stroke:none"
         id="path282" />
      <path
         d="m 3709.22,1373.62 c 0.08,-0.15 -1.5,-1.07 -4.57,-2.69 -3.12,-1.51 -7.56,-4.17 -13.7,-6.64 -12.15,-5.19 -30.52,-11.24 -54.02,-14.54 -23.47,-3.27 -51.94,-3.63 -82.98,0.41 -31.07,3.94 -64.64,11.76 -99.12,22.14 -68.87,21.06 -129.83,44.13 -173.45,61.98 -21.81,8.93 -39.29,16.57 -51.29,22.01 -5.58,2.61 -10.13,4.73 -13.75,6.42 -3.12,1.52 -4.73,2.4 -4.66,2.55 0.07,0.15 1.8,-0.43 5.04,-1.66 3.72,-1.48 8.38,-3.32 14.1,-5.59 12.85,-5.11 30.4,-12.08 51.81,-20.59 43.87,-17.01 104.93,-39.55 173.58,-60.53 34.31,-10.34 67.59,-18.22 98.31,-22.35 30.69,-4.24 58.76,-4.23 81.97,-1.43 23.24,2.83 41.51,8.29 53.77,12.91 12.17,4.83 18.76,7.99 18.96,7.6"
         style="fill:#17282f;fill-opacity:1;fill-rule:nonzero;stroke:none"
         id="path284" />
      <path
         d="m 2804.36,2327.72 c -167.01,112.49 -365.65,152.66 -495.85,152.75 -121.94,0.08 -301.4,-19.03 -463.87,-110.54 -100.91,-56.83 -181.45,-134.52 -239.38,-230.89 -68.61,-114.16 -105.8,-255.44 -110.53,-419.92 -0.71,-24.68 8.39,-48.05 25.62,-65.8 17.32,-17.83 40.55,-27.67 65.41,-27.68 l 319.73,-0.22 c 45.12,-0.03 83.92,33.61 90.26,78.24 14.24,100.25 73.86,269.03 313.14,273 182.35,2.93 257.39,-129 281.23,-185.9 38.8,-92.6 28.87,-202.37 -26.57,-293.63 -85.17,-140.22 -241.69,-161.59 -327.42,-161.84 -98.58,-0.3 -178.83,-80.27 -178.89,-178.28 l -0.23,-344.049 c -0.04,-50.242 40.81,-91.141 91.06,-91.18 l 311.51,-0.203 c 50.25,-0.039 91.15,40.813 91.18,91.063 l 0.05,72.281 c 0,1.726 1.09,3.226 2.76,3.816 70.58,24.711 207.41,84.453 330.7,206.862 157.38,156.27 237.26,358.05 237.42,599.72 0.23,345.87 -172.44,534.8 -317.33,632.4"
         style="fill:#f2575d;fill-opacity:1;fill-rule:nonzero;stroke:none"
         id="path286" />
      <path
         d="m 2319.28,635.059 -27.26,0.019 c -130.28,0.082 -236.34,-105.84 -236.42,-236.117 -0.09,-130.281 105.83,-236.34 236.11,-236.43 l 27.26,-0.019 c 130.28,-0.09 236.34,105.84 236.42,236.117 0.09,130.281 -105.83,236.34 -236.11,236.43"
         style="fill:#f2575d;fill-opacity:1;fill-rule:nonzero;stroke:none"
         id="path288" />
      <path
         d="m 3109.69,1847.46 c -24.84,150.19 -85.57,263.15 -156.48,347.27 56.6,-46.61 101.93,-106.81 130.12,-177.13 12.97,-32.37 22.17,-66.1 26.35,-101.32 2.69,-22.7 3.03,-46.1 0.01,-68.82"
         style="fill:#20353d;fill-opacity:1;fill-rule:nonzero;stroke:none"
         id="path290" />
      <path
         d="m 2981.1,1710.99 c -1.86,0 -3.71,0.05 -5.57,0.15 -71.45,3.91 -106.75,72.41 -133.29,133.07 -23.24,53.13 -46.49,106.26 -69.73,159.38 -15.68,35.84 -32.3,72.97 -62.06,98.36 -30.51,26.03 -71.04,36.45 -110.27,44.8 -122.25,26.02 -252.51,73.04 -373.49,104.4 -120.99,31.36 -235.12,49.15 -322.53,138.48 l 803.85,-91.42 c 91.31,-10.38 176.54,-46.94 245.2,-103.48 70.91,-84.12 131.64,-197.08 156.48,-347.27 -5.44,-40.99 -21.84,-79.77 -55.13,-108.31 -20.5,-17.57 -46.58,-28.16 -73.46,-28.16"
         style="fill:#cc4341;fill-opacity:1;fill-rule:nonzero;stroke:none"
         id="path292" />
      <path
         d="m 3098.23,2131.61 c -6.22,10.94 -128.39,160.33 -189.13,218.24 -39.23,37.4 -98.32,63.19 -135.37,76.83 0,0 -611.68,220.89 -654.13,242.45 l -274.72,-281.08 c 95.64,-26.6 744.97,-182.94 905.16,-218.09 28.02,-32.69 56.21,-59.48 56.21,-59.48 l 46.56,-109.39 c 0,0 5.37,-39.82 2.02,-82.53 -3.35,-42.7 31.28,-26.05 31.28,-26.05 0,0 -1.63,-26.53 0.62,-64.79 l 0.08,-1.13 c 2.27,-28.61 43.36,-32.14 52.11,-4.81 l 31.56,98.62 c 0,0 -4.13,-89.75 -5.82,-139.7 -0.3,-9.06 1.28,-16.51 4.07,-22.64 12.08,-26.48 51.5,-21.54 58.21,6.78 l 36.97,156.02 -11.96,95.55 31.01,-87.31 c 0,0 8.57,-46.66 6.84,-112.22 -0.69,-26.23 8.15,-37.39 19.01,-41.34 18.18,-6.61 37.39,7.88 38.97,27.16 l 11.83,144.57 c 0,0 -55.17,173.4 -61.38,184.34"
         style="fill:#f9a78d;fill-opacity:1;fill-rule:nonzero;stroke:none"
         id="path294" />
      <path
         d="m 2080.13,2680.05 c 0.27,1.14 17.65,-1.64 45,-9.23 27.37,-7.51 64.45,-20.28 104.58,-36.21 40.14,-15.95 75.99,-31.33 101.97,-42.37 25.96,-11.09 42,-18.04 41.55,-19.29 -0.41,-1.17 -17.29,3.63 -43.94,13.18 -26.67,9.5 -62.98,23.95 -102.99,39.85 -40.01,15.89 -76.44,29.52 -103.12,38.57 -26.64,9.13 -43.38,14.15 -43.05,15.5"
         style="fill:#f57f62;fill-opacity:1;fill-rule:nonzero;stroke:none"
         id="path296" />
    </g>
  </g>
</svg>
